<svg width="344" height="283" viewBox="0 0 344 283" fill="none" xmlns="http://www.w3.org/2000/svg">
<rect x="0.25" y="0.915527" width="343.5" height="280.904" fill="#F9F9F9"/>
<rect x="0.25" y="0.915527" width="343.5" height="280.904" stroke="#D3DADD" stroke-width="0.5"/>
<path d="M300 58.2373C305.523 58.2373 310 53.7602 310 48.2373C310 42.7145 305.523 38.2373 300 38.2373C294.477 38.2373 290 42.7145 290 48.2373C290 53.7602 294.477 58.2373 300 58.2373Z" stroke="#565D60" stroke-width="1.5" stroke-linejoin="round"/>
<path d="M99.3681 120.418L98.7667 119.772C101.818 116.943 104.29 114.894 107.854 112.756C109.277 111.902 110.767 111.164 112.309 110.551H112.353C113.534 110.083 114.269 108.947 114.291 107.589C114.336 105.072 113.734 100.885 110.616 95.0713C107.498 89.2581 104.045 86.4962 101.863 85.4717C101.419 85.2431 100.928 85.122 100.429 85.1181C99.9296 85.1143 99.4366 85.2277 98.9894 85.4494H98.9671L98.8781 85.4939L98.0762 85.8058C95.8935 86.6744 92.263 88.1444 88.2093 87.8772C86.3165 87.7167 84.417 88.0951 82.7301 88.9685L75.625 92.7549L70.2349 96.6527L69.7227 95.94L75.1795 91.9977L82.3069 88.189C84.1439 87.2345 86.2128 86.8176 88.2761 86.9862C92.1071 87.2535 95.5148 85.8949 97.7421 84.9817L98.4994 84.6921H98.5217C99.0965 84.397 99.7327 84.2412 100.379 84.2374C101.025 84.2335 101.663 84.3817 102.241 84.6698C104.535 85.7612 108.01 88.3672 111.373 94.6482C114.736 100.929 115.226 104.983 115.182 107.589C115.18 108.397 114.941 109.187 114.493 109.861C114.045 110.534 113.41 111.061 112.665 111.375H112.621C111.125 111.971 109.68 112.686 108.3 113.513C104.803 115.607 102.375 117.634 99.3681 120.418Z" fill="#565D60"/>
<path d="M95.3581 126.499H95.2245C94.0778 126.473 92.9724 126.066 92.084 125.34L92.6408 124.65C93.3722 125.264 94.2917 125.61 95.2467 125.63C95.8228 125.657 96.3972 125.548 96.9235 125.312C97.4497 125.076 97.913 124.719 98.2759 124.271C99.1445 123.18 99.3004 121.665 98.6768 120.284C98.379 119.661 97.9451 119.113 97.4072 118.681L83.0188 107.143C81.6379 106.052 80.9252 105.562 80.3238 105.139C79.1399 104.327 78.0022 103.449 76.916 102.51L77.4728 101.842C79.366 103.401 80.0342 103.869 80.8138 104.426C81.5934 104.983 82.1502 105.339 83.5757 106.453L97.964 117.968C98.6081 118.492 99.1258 119.154 99.4786 119.906C99.8525 120.69 100.003 121.563 99.9122 122.428C99.8218 123.292 99.4945 124.115 98.9663 124.806C98.5288 125.339 97.9778 125.767 97.3535 126.06C96.7293 126.353 96.0476 126.503 95.3581 126.499Z" fill="#565D60"/>
<path d="M42.5704 115.585C41.9913 115.05 41.3453 114.538 40.6326 113.937C39.9199 113.335 39.4076 112.957 38.6726 112.333C37.2634 111.156 35.775 110.077 34.218 109.103C32.6589 108.123 31.8125 106.408 32.0352 104.716C32.3693 102.065 33.7057 97.8333 38.1603 92.5769C42.6149 87.3204 47.0027 85.2713 49.6977 84.7368C50.3888 84.5928 51.1029 84.5999 51.791 84.7575C52.4791 84.9151 53.1251 85.2195 53.6846 85.65H53.7292C54.6646 86.229 55.4664 87.0086 56.2906 87.8104C57.8719 89.3473 59.4979 90.9064 62.4602 91.7305C62.5938 91.775 65.7343 92.755 70.2112 95.9178L69.6989 96.6306C65.3557 93.5569 62.2375 92.5769 62.2152 92.5769C59.0524 91.7082 57.2706 89.9709 55.6892 88.4564C54.8651 87.6545 54.0855 86.8972 53.2169 86.3627L53.1278 86.2959C52.6691 85.9497 52.1411 85.7069 51.5798 85.5838C51.0185 85.4608 50.4373 85.4606 49.8759 85.5831C47.3145 86.0954 43.3276 87.8104 38.8285 93.1114C34.3293 98.4124 33.238 102.288 32.9039 104.805C32.8246 105.493 32.9465 106.19 33.2548 106.81C33.5632 107.431 34.0447 107.949 34.6412 108.302H34.6634C36.2652 109.294 37.7913 110.403 39.2294 111.62L41.1894 113.224C41.9244 113.825 42.5481 114.338 43.1495 114.872L42.5704 115.585Z" fill="#565D60"/>
<path d="M74.9556 142.067H74.8443C73.3074 142.045 71.392 141.243 69.766 139.929L67.3828 138.014L67.9396 137.323L70.3228 139.239C71.8151 140.441 73.5079 141.154 74.8666 141.199C75.6255 141.233 76.3707 140.988 76.9602 140.508C77.9625 139.751 78.4971 138.793 78.5193 137.791C78.5142 137.286 78.3906 136.789 78.1585 136.34C77.9264 135.891 77.5923 135.503 77.1829 135.207L77.7398 134.517L79.7443 136.121C80.4941 136.715 81.4161 137.051 82.3726 137.078C82.9443 137.097 83.5126 136.984 84.0338 136.748C84.5551 136.513 85.0154 136.161 85.3794 135.72C85.6788 135.343 85.9 134.911 86.0301 134.449C86.1601 133.986 86.1964 133.502 86.1367 133.025C86.0006 131.887 85.4251 130.848 84.5331 130.129L85.0676 129.461L87.4063 131.31C89.344 132.646 91.6827 132.49 92.93 130.909C93.2512 130.514 93.4848 130.056 93.6153 129.565C93.7459 129.073 93.7704 128.559 93.6873 128.058C93.5154 126.976 92.943 125.998 92.0836 125.318L92.6404 124.65C93.6692 125.46 94.3535 126.63 94.5559 127.924C94.6543 128.547 94.6219 129.183 94.4608 129.793C94.2998 130.403 94.0136 130.972 93.6204 131.465C92.0836 133.381 89.1881 133.626 86.8717 132.022L86.8049 131.955C86.9106 132.267 86.9852 132.587 87.0276 132.913C87.1056 133.564 87.0414 134.223 86.8393 134.846C86.6373 135.469 86.3022 136.041 85.8574 136.522C85.4125 137.003 84.8685 137.381 84.2629 137.631C83.6574 137.881 83.0048 137.996 82.3503 137.969C81.2442 137.933 80.1772 137.551 79.2989 136.878C79.3725 137.184 79.4025 137.499 79.388 137.813C79.3657 139.083 78.6975 140.286 77.4948 141.199C76.7818 141.787 75.8794 142.096 74.9556 142.067Z" fill="#565D60"/>
<path d="M61.0352 132.935L61.6588 132.312L61.0352 132.935Z" fill="#565D60"/>
<path d="M76.0027 117.077C74.2431 117.077 72.6617 116.097 71.6817 114.271L66.4921 104.56C65.3116 102.355 65.0221 100.551 65.5566 99.0138L65.6012 98.8801L65.7126 98.8133L74.3545 92.5991L74.8668 93.3119L66.3585 99.4369C65.9576 100.707 66.2471 102.243 67.2717 104.137L72.4613 113.848C73.9313 116.609 76.3591 116.565 78.1632 115.629C79.5218 114.894 80.9696 112.756 79.4327 109.883L76.3813 104.159L77.3836 98.4347L78.2523 98.5683L77.3168 104.025L80.2123 109.46C81.8382 112.511 80.5909 115.318 78.5641 116.387C77.7819 116.828 76.901 117.066 76.0027 117.077Z" fill="#565D60"/>
<path d="M46.6484 121.888H46.2029C45.275 121.803 44.3932 121.445 43.6695 120.858C42.9458 120.271 42.4128 119.483 42.1383 118.592C41.8638 117.702 41.8601 116.75 42.1278 115.858C42.3954 114.965 42.9223 114.173 43.6415 113.58L48.0516 109.95L49.2543 109.237C49.9802 108.952 50.7656 108.852 51.5398 108.946C52.3139 109.04 53.0525 109.325 53.6889 109.776C54.3253 110.227 54.8395 110.829 55.1851 111.528C55.5308 112.227 55.6971 113.001 55.669 113.781C55.6459 114.44 55.483 115.086 55.1912 115.678C54.8993 116.269 54.4852 116.791 53.9762 117.211L49.633 120.819C48.7967 121.519 47.7387 121.898 46.6484 121.888ZM48.5193 110.685L44.1984 114.271C43.8113 114.589 43.4917 114.982 43.2584 115.425C43.0251 115.869 42.8827 116.355 42.8397 116.854C42.7508 117.861 43.0631 118.861 43.7083 119.638C44.355 120.414 45.2817 120.903 46.2869 120.999C47.2921 121.095 48.2945 120.79 49.0761 120.151L53.4194 116.542C53.8319 116.196 54.1678 115.768 54.4055 115.285C54.6433 114.802 54.7778 114.274 54.8003 113.736C54.8238 112.806 54.5159 111.898 53.9317 111.175C53.418 110.561 52.725 110.124 51.9501 109.924C51.1751 109.724 50.357 109.772 49.6107 110.061L48.5193 110.685Z" fill="#565D60"/>
<path d="M57.4942 134.985C56.5265 134.996 55.5791 134.707 54.7828 134.156C53.9865 133.606 53.3804 132.823 53.048 131.914C52.7157 131.005 52.6736 130.015 52.9274 129.081C53.1812 128.147 53.7184 127.315 54.4651 126.699L58.8529 123.069C59.5486 122.491 60.3969 122.127 61.2951 122.022C62.1932 121.916 63.1028 122.073 63.9135 122.474C64.7243 122.875 65.4015 123.502 65.8632 124.279C66.3249 125.057 66.5512 125.952 66.5148 126.855C66.4948 127.518 66.3335 128.169 66.0415 128.764C65.7496 129.36 65.3338 129.886 64.8221 130.308L60.4788 133.916C59.6369 134.606 58.5826 134.983 57.4942 134.985ZM61.8375 122.891C60.9502 122.88 60.0885 123.188 59.4097 123.759L55.0442 127.368C54.2674 128.014 53.7794 128.943 53.6875 129.95C53.5956 130.957 53.9074 131.959 54.5542 132.735C55.201 133.512 56.13 134 57.1366 134.092C58.1433 134.184 59.1452 133.872 59.922 133.225L64.2652 129.639C64.6778 129.293 65.0136 128.865 65.2514 128.382C65.4892 127.899 65.6236 127.371 65.6462 126.833C65.6697 125.903 65.3618 124.995 64.7775 124.272C64.4196 123.839 63.9704 123.491 63.4621 123.252C62.9538 123.013 62.399 122.89 61.8375 122.891Z" fill="#565D60"/>
<path d="M52.0586 128.436H51.6131C51.0029 128.385 50.4089 128.213 49.8659 127.93C49.3229 127.647 48.8417 127.259 48.4504 126.788C47.6631 125.829 47.2869 124.598 47.4037 123.363C47.5205 122.128 48.1209 120.989 49.074 120.195L54.9986 115.251C55.9574 114.463 57.1885 114.087 58.4235 114.204C59.6586 114.321 60.7973 114.921 61.5914 115.874C62.329 116.75 62.7105 117.871 62.6605 119.015C62.636 119.671 62.4748 120.315 62.1872 120.906C61.8995 121.497 61.4918 122.021 60.9901 122.445L55.0432 127.367C54.2069 128.067 53.1489 128.446 52.0586 128.436ZM57.9832 115.05C57.1042 115.048 56.2526 115.356 55.5777 115.919L49.6308 120.863C48.8614 121.505 48.3778 122.426 48.286 123.424C48.1941 124.422 48.5015 125.415 49.1408 126.187C49.4524 126.576 49.8404 126.897 50.2809 127.131C50.7215 127.365 51.2051 127.506 51.7022 127.545C52.1956 127.593 52.6936 127.543 53.1676 127.398C53.6415 127.252 54.0821 127.015 54.4641 126.699L60.411 121.777C60.825 121.437 61.1622 121.013 61.4002 120.533C61.6383 120.053 61.7718 119.528 61.7919 118.993C61.8154 118.063 61.5075 117.155 60.9233 116.431C60.2735 115.657 59.3457 115.169 58.3396 115.072L57.9832 115.05Z" fill="#565D60"/>
<path d="M63.7302 140.197C63.1186 140.193 62.5144 140.062 61.9557 139.814C61.397 139.565 60.8958 139.203 60.4837 138.751C60.0715 138.299 59.7574 137.767 59.561 137.188C59.3645 136.609 59.2901 135.995 59.3424 135.386C59.3925 134.811 59.5584 134.252 59.8301 133.743C60.1019 133.234 60.4739 132.785 60.9238 132.423L62.9952 130.686L63.3738 130.419C64.0457 129.972 64.8279 129.719 65.6344 129.687C66.4408 129.656 67.2403 129.848 67.9448 130.242C68.6493 130.635 69.2316 131.216 69.6276 131.919C70.0236 132.622 70.218 133.421 70.1894 134.227C70.1731 134.848 70.0235 135.457 69.7506 136.015C69.4777 136.572 69.088 137.064 68.608 137.457L66.5366 139.194C65.743 139.839 64.7526 140.193 63.7302 140.197ZM65.8238 130.552C65.1181 130.552 64.4282 130.761 63.8415 131.154L63.552 131.376L61.4806 133.092C60.7676 133.691 60.3195 134.547 60.2333 135.475C60.1849 135.932 60.2289 136.395 60.3628 136.835C60.4968 137.275 60.7178 137.683 61.0129 138.036C61.3076 138.394 61.6702 138.69 62.0797 138.907C62.4892 139.125 62.9376 139.259 63.3991 139.302C63.8606 139.346 64.3262 139.298 64.7691 139.161C65.2119 139.024 65.6234 138.8 65.9797 138.504L68.0511 136.789C68.4346 136.469 68.746 136.071 68.9648 135.622C69.1836 135.173 69.3049 134.682 69.3207 134.183C69.3387 133.713 69.2615 133.243 69.0939 132.804C68.9262 132.364 68.6715 131.962 68.345 131.623C68.0184 131.284 67.6268 131.015 67.1936 130.831C66.7604 130.647 66.2945 130.552 65.8238 130.552Z" fill="#565D60"/>
<path d="M83.8676 117.876L83.3203 118.579L92.0904 125.406L92.6377 124.703L83.8676 117.876Z" fill="#565D60"/>
<path d="M77.7016 123.796L77.1543 124.5L84.5412 130.25L85.0885 129.547L77.7016 123.796Z" fill="#565D60"/>
<path d="M71.4484 129.532L70.9023 130.236L77.1782 135.104L77.7243 134.4L71.4484 129.532Z" fill="#565D60"/>
<path d="M85.0688 106.587C82.7969 106.587 81.5274 105.963 81.416 105.896L81.8169 105.117C81.8615 105.161 87.9866 108.124 98.2767 100.083L98.8335 100.773C92.7307 105.54 88.0311 106.587 85.0688 106.587Z" fill="#565D60"/>
<path d="M32.5957 187.069V185.468L34.1289 185.175V174.755L32.5957 174.462V172.851H38.3184V174.462L36.7852 174.755V185.175L38.3184 185.468V187.069H32.5957ZM47.9863 187.274C46.9251 187.274 46.0885 186.998 45.4766 186.444C44.8711 185.884 44.5684 185.119 44.5684 184.149C44.5684 183.153 44.972 182.346 45.7793 181.728C46.5931 181.103 47.765 180.79 49.2949 180.79H50.7988V179.96C50.7988 179.426 50.6393 178.996 50.3203 178.671C50.0078 178.345 49.5456 178.183 48.9336 178.183C48.6016 178.183 48.3021 178.225 48.0352 178.31C47.7747 178.388 47.5404 178.502 47.332 178.651L47.1074 180.067H45.1738L45.1543 177.392C45.6882 177.066 46.2741 176.806 46.9121 176.61C47.5566 176.409 48.2728 176.308 49.0605 176.308C50.4212 176.308 51.4922 176.627 52.2734 177.265C53.0612 177.896 53.4551 178.804 53.4551 179.989V184.491C53.4551 184.634 53.4551 184.774 53.4551 184.911C53.4616 185.048 53.4746 185.181 53.4941 185.312L54.5781 185.468V187.069H51.209C51.1374 186.868 51.069 186.662 51.0039 186.454C50.9453 186.239 50.903 186.024 50.877 185.81C50.5319 186.246 50.1185 186.601 49.6367 186.874C49.1615 187.141 48.6113 187.274 47.9863 187.274ZM48.6406 185.272C49.0898 185.272 49.5098 185.168 49.9004 184.96C50.2975 184.752 50.597 184.488 50.7988 184.169V182.45H49.2852C48.6016 182.45 48.084 182.61 47.7324 182.929C47.3874 183.241 47.2148 183.612 47.2148 184.042C47.2148 184.433 47.3385 184.735 47.5859 184.95C47.8333 185.165 48.1849 185.272 48.6406 185.272ZM55.6133 187.069V185.468L57.0391 185.175V178.407L55.5059 178.114V176.503H59.4902L59.6074 177.89C59.9525 177.388 60.3822 177.001 60.8965 176.728C61.4108 176.448 62.0065 176.308 62.6836 176.308C63.3672 176.308 63.9531 176.461 64.4414 176.767C64.9297 177.073 65.2975 177.532 65.5449 178.144C65.8704 177.571 66.2969 177.121 66.8242 176.796C67.3516 176.47 67.9668 176.308 68.6699 176.308C69.7246 176.308 70.5547 176.666 71.1602 177.382C71.7656 178.098 72.0684 179.185 72.0684 180.644V185.175L73.4941 185.468V187.069H68.1035V185.468L69.4121 185.175V180.634C69.4121 179.794 69.2721 179.211 68.9922 178.886C68.7188 178.554 68.3118 178.388 67.7715 178.388C67.2832 178.388 66.8763 178.537 66.5508 178.837C66.2253 179.136 66.0007 179.521 65.877 179.989V185.175L67.1172 185.468V187.069H61.9902V185.468L63.2305 185.175V180.634C63.2305 179.826 63.0905 179.25 62.8105 178.905C62.5306 178.56 62.1204 178.388 61.5801 178.388C61.1374 178.388 60.7598 178.479 60.4473 178.661C60.1348 178.837 59.8809 179.091 59.6855 179.423V185.175L60.9941 185.468V187.069H55.6133ZM82.9863 187.274C81.9251 187.274 81.0885 186.998 80.4766 186.444C79.8711 185.884 79.5684 185.119 79.5684 184.149C79.5684 183.153 79.972 182.346 80.7793 181.728C81.5931 181.103 82.765 180.79 84.2949 180.79H85.7988V179.96C85.7988 179.426 85.6393 178.996 85.3203 178.671C85.0078 178.345 84.5456 178.183 83.9336 178.183C83.6016 178.183 83.3021 178.225 83.0352 178.31C82.7747 178.388 82.5404 178.502 82.332 178.651L82.1074 180.067H80.1738L80.1543 177.392C80.6882 177.066 81.2741 176.806 81.9121 176.61C82.5566 176.409 83.2728 176.308 84.0605 176.308C85.4212 176.308 86.4922 176.627 87.2734 177.265C88.0612 177.896 88.4551 178.804 88.4551 179.989V184.491C88.4551 184.634 88.4551 184.774 88.4551 184.911C88.4616 185.048 88.4746 185.181 88.4941 185.312L89.5781 185.468V187.069H86.209C86.1374 186.868 86.069 186.662 86.0039 186.454C85.9453 186.239 85.903 186.024 85.877 185.81C85.5319 186.246 85.1185 186.601 84.6367 186.874C84.1615 187.141 83.6113 187.274 82.9863 187.274ZM83.6406 185.272C84.0898 185.272 84.5098 185.168 84.9004 184.96C85.2975 184.752 85.597 184.488 85.7988 184.169V182.45H84.2852C83.6016 182.45 83.084 182.61 82.7324 182.929C82.3874 183.241 82.2148 183.612 82.2148 184.042C82.2148 184.433 82.3385 184.735 82.5859 184.95C82.8333 185.165 83.1849 185.272 83.6406 185.272ZM95.5352 187.069V185.468L96.9609 185.175V178.407L95.4277 178.114V176.503H99.4121L99.5293 177.89C99.8743 177.388 100.304 177.001 100.818 176.728C101.333 176.448 101.928 176.308 102.605 176.308C103.289 176.308 103.875 176.461 104.363 176.767C104.852 177.073 105.219 177.532 105.467 178.144C105.792 177.571 106.219 177.121 106.746 176.796C107.273 176.47 107.889 176.308 108.592 176.308C109.646 176.308 110.477 176.666 111.082 177.382C111.688 178.098 111.99 179.185 111.99 180.644V185.175L113.416 185.468V187.069H108.025V185.468L109.334 185.175V180.634C109.334 179.794 109.194 179.211 108.914 178.886C108.641 178.554 108.234 178.388 107.693 178.388C107.205 178.388 106.798 178.537 106.473 178.837C106.147 179.136 105.923 179.521 105.799 179.989V185.175L107.039 185.468V187.069H101.912V185.468L103.152 185.175V180.634C103.152 179.826 103.012 179.25 102.732 178.905C102.452 178.56 102.042 178.388 101.502 178.388C101.059 178.388 100.682 178.479 100.369 178.661C100.057 178.837 99.8027 179.091 99.6074 179.423V185.175L100.916 185.468V187.069H95.5352ZM119.363 187.274C118.361 187.274 117.485 187.053 116.736 186.61C115.994 186.161 115.418 185.546 115.008 184.765C114.598 183.977 114.393 183.078 114.393 182.069V181.669C114.393 180.634 114.588 179.713 114.979 178.905C115.376 178.098 115.929 177.463 116.639 177.001C117.348 176.539 118.169 176.308 119.1 176.308C120.057 176.308 120.861 176.5 121.512 176.884C122.163 177.261 122.654 177.805 122.986 178.515C123.318 179.224 123.484 180.077 123.484 181.073V182.548H117.146L117.127 182.606C117.153 183.114 117.267 183.567 117.469 183.964C117.671 184.354 117.954 184.664 118.318 184.892C118.683 185.119 119.126 185.233 119.646 185.233C120.2 185.233 120.704 185.162 121.16 185.019C121.622 184.875 122.062 184.664 122.479 184.384L123.24 186.034C122.817 186.386 122.28 186.682 121.629 186.923C120.978 187.157 120.223 187.274 119.363 187.274ZM117.176 180.741H120.984V180.487C120.984 180.045 120.919 179.66 120.789 179.335C120.659 179.003 120.457 178.746 120.184 178.563C119.917 178.381 119.568 178.29 119.139 178.29C118.748 178.29 118.413 178.397 118.133 178.612C117.853 178.821 117.632 179.107 117.469 179.472C117.306 179.83 117.199 180.237 117.146 180.692L117.176 180.741ZM124.754 187.069V185.468L126.17 185.175V178.407L124.646 178.114V176.503H128.631L128.758 178.026C129.109 177.486 129.546 177.066 130.066 176.767C130.594 176.461 131.189 176.308 131.854 176.308C132.915 176.308 133.745 176.643 134.344 177.313C134.949 177.978 135.252 179.022 135.252 180.448V185.175L136.668 185.468V187.069H131.287V185.468L132.586 185.175V180.468C132.586 179.713 132.436 179.179 132.137 178.866C131.837 178.547 131.391 178.388 130.799 178.388C130.356 178.388 129.969 178.485 129.637 178.681C129.311 178.869 129.041 179.14 128.826 179.491V185.175L130.076 185.468V187.069H124.754ZM141.404 187.265C140.467 187.265 139.738 187.004 139.217 186.483C138.702 185.956 138.445 185.123 138.445 183.983V178.388H136.951V176.503H138.445V173.925H141.092V176.503H143.113V178.388H141.092V183.983C141.092 184.413 141.183 184.722 141.365 184.911C141.548 185.1 141.792 185.194 142.098 185.194C142.267 185.194 142.452 185.181 142.654 185.155C142.856 185.129 143.025 185.103 143.162 185.077L143.416 186.962C143.123 187.047 142.798 187.118 142.439 187.177C142.088 187.235 141.743 187.265 141.404 187.265ZM149.266 187.274C148.23 187.274 147.345 187.047 146.609 186.591C145.874 186.135 145.307 185.504 144.91 184.696C144.513 183.882 144.314 182.948 144.314 181.894V181.688C144.314 180.64 144.513 179.713 144.91 178.905C145.307 178.098 145.874 177.463 146.609 177.001C147.345 176.539 148.224 176.308 149.246 176.308C150.275 176.308 151.157 176.539 151.893 177.001C152.628 177.457 153.191 178.088 153.582 178.896C153.979 179.703 154.178 180.634 154.178 181.688V181.894C154.178 182.948 153.979 183.882 153.582 184.696C153.191 185.504 152.628 186.135 151.893 186.591C151.157 187.047 150.281 187.274 149.266 187.274ZM149.266 185.233C149.78 185.233 150.203 185.093 150.535 184.813C150.874 184.534 151.124 184.143 151.287 183.642C151.45 183.134 151.531 182.551 151.531 181.894V181.688C151.531 181.037 151.45 180.461 151.287 179.96C151.124 179.459 150.874 179.068 150.535 178.788C150.197 178.502 149.767 178.358 149.246 178.358C148.725 178.358 148.296 178.502 147.957 178.788C147.625 179.068 147.378 179.459 147.215 179.96C147.052 180.461 146.971 181.037 146.971 181.688V181.894C146.971 182.558 147.052 183.14 147.215 183.642C147.378 184.143 147.628 184.534 147.967 184.813C148.305 185.093 148.738 185.233 149.266 185.233ZM155.652 187.069V185.468L157.068 185.175V178.407L155.545 178.114V176.503H159.529L159.646 177.821L159.666 178.046C159.933 177.479 160.265 177.05 160.662 176.757C161.059 176.457 161.528 176.308 162.068 176.308C162.244 176.308 162.433 176.324 162.635 176.356C162.843 176.382 163.019 176.418 163.162 176.464L162.859 178.915L161.463 178.837C161.04 178.817 160.691 178.896 160.418 179.071C160.151 179.247 159.92 179.498 159.725 179.823V185.175L161.141 185.468V187.069H155.652ZM163.27 188.29L169.148 172.851H171.561L165.682 188.29H163.27ZM171.795 191.132V189.521L173.201 189.228V178.407L171.658 178.114V176.503H175.613L175.76 177.743C176.079 177.281 176.466 176.926 176.922 176.679C177.378 176.431 177.918 176.308 178.543 176.308C179.396 176.308 180.125 176.542 180.73 177.011C181.342 177.473 181.811 178.124 182.137 178.964C182.462 179.804 182.625 180.78 182.625 181.894V182.099C182.625 183.134 182.462 184.042 182.137 184.823C181.811 185.598 181.342 186.2 180.73 186.63C180.125 187.06 179.393 187.274 178.533 187.274C177.947 187.274 177.433 187.17 176.99 186.962C176.548 186.754 176.167 186.448 175.848 186.044V189.228L177.293 189.521V191.132H171.795ZM177.732 185.233C178.501 185.233 179.064 184.95 179.422 184.384C179.78 183.817 179.959 183.056 179.959 182.099V181.894C179.959 181.197 179.878 180.588 179.715 180.067C179.559 179.54 179.314 179.13 178.982 178.837C178.65 178.537 178.227 178.388 177.713 178.388C177.29 178.388 176.919 178.485 176.6 178.681C176.287 178.869 176.036 179.136 175.848 179.481V184.218C176.036 184.543 176.287 184.794 176.6 184.97C176.919 185.146 177.296 185.233 177.732 185.233ZM187.459 187.274C186.398 187.274 185.561 186.998 184.949 186.444C184.344 185.884 184.041 185.119 184.041 184.149C184.041 183.153 184.445 182.346 185.252 181.728C186.066 181.103 187.238 180.79 188.768 180.79H190.271V179.96C190.271 179.426 190.112 178.996 189.793 178.671C189.48 178.345 189.018 178.183 188.406 178.183C188.074 178.183 187.775 178.225 187.508 178.31C187.247 178.388 187.013 178.502 186.805 178.651L186.58 180.067H184.646L184.627 177.392C185.161 177.066 185.747 176.806 186.385 176.61C187.029 176.409 187.745 176.308 188.533 176.308C189.894 176.308 190.965 176.627 191.746 177.265C192.534 177.896 192.928 178.804 192.928 179.989V184.491C192.928 184.634 192.928 184.774 192.928 184.911C192.934 185.048 192.947 185.181 192.967 185.312L194.051 185.468V187.069H190.682C190.61 186.868 190.542 186.662 190.477 186.454C190.418 186.239 190.376 186.024 190.35 185.81C190.005 186.246 189.591 186.601 189.109 186.874C188.634 187.141 188.084 187.274 187.459 187.274ZM188.113 185.272C188.562 185.272 188.982 185.168 189.373 184.96C189.77 184.752 190.07 184.488 190.271 184.169V182.45H188.758C188.074 182.45 187.557 182.61 187.205 182.929C186.86 183.241 186.688 183.612 186.688 184.042C186.688 184.433 186.811 184.735 187.059 184.95C187.306 185.165 187.658 185.272 188.113 185.272ZM195.34 187.069V185.468L196.756 185.175V178.407L195.232 178.114V176.503H199.217L199.334 177.821L199.354 178.046C199.62 177.479 199.952 177.05 200.35 176.757C200.747 176.457 201.215 176.308 201.756 176.308C201.932 176.308 202.12 176.324 202.322 176.356C202.531 176.382 202.706 176.418 202.85 176.464L202.547 178.915L201.15 178.837C200.727 178.817 200.379 178.896 200.105 179.071C199.839 179.247 199.607 179.498 199.412 179.823V185.175L200.828 185.468V187.069H195.34ZM208.084 187.265C207.146 187.265 206.417 187.004 205.896 186.483C205.382 185.956 205.125 185.123 205.125 183.983V178.388H203.631V176.503H205.125V173.925H207.771V176.503H209.793V178.388H207.771V183.983C207.771 184.413 207.863 184.722 208.045 184.911C208.227 185.1 208.471 185.194 208.777 185.194C208.947 185.194 209.132 185.181 209.334 185.155C209.536 185.129 209.705 185.103 209.842 185.077L210.096 186.962C209.803 187.047 209.477 187.118 209.119 187.177C208.768 187.235 208.423 187.265 208.084 187.265ZM211.297 187.069V185.468L212.713 185.175V178.407L211.189 178.114V176.503H215.174L215.301 178.026C215.652 177.486 216.089 177.066 216.609 176.767C217.137 176.461 217.732 176.308 218.396 176.308C219.458 176.308 220.288 176.643 220.887 177.313C221.492 177.978 221.795 179.022 221.795 180.448V185.175L223.211 185.468V187.069H217.83V185.468L219.129 185.175V180.468C219.129 179.713 218.979 179.179 218.68 178.866C218.38 178.547 217.934 178.388 217.342 178.388C216.899 178.388 216.512 178.485 216.18 178.681C215.854 178.869 215.584 179.14 215.369 179.491V185.175L216.619 185.468V187.069H211.297ZM229.129 187.274C228.126 187.274 227.251 187.053 226.502 186.61C225.76 186.161 225.184 185.546 224.773 184.765C224.363 183.977 224.158 183.078 224.158 182.069V181.669C224.158 180.634 224.354 179.713 224.744 178.905C225.141 178.098 225.695 177.463 226.404 177.001C227.114 176.539 227.934 176.308 228.865 176.308C229.822 176.308 230.626 176.5 231.277 176.884C231.928 177.261 232.42 177.805 232.752 178.515C233.084 179.224 233.25 180.077 233.25 181.073V182.548H226.912L226.893 182.606C226.919 183.114 227.033 183.567 227.234 183.964C227.436 184.354 227.719 184.664 228.084 184.892C228.449 185.119 228.891 185.233 229.412 185.233C229.965 185.233 230.47 185.162 230.926 185.019C231.388 184.875 231.827 184.664 232.244 184.384L233.006 186.034C232.583 186.386 232.046 186.682 231.395 186.923C230.743 187.157 229.988 187.274 229.129 187.274ZM226.941 180.741H230.75V180.487C230.75 180.045 230.685 179.66 230.555 179.335C230.424 179.003 230.223 178.746 229.949 178.563C229.682 178.381 229.334 178.29 228.904 178.29C228.514 178.29 228.178 178.397 227.898 178.612C227.618 178.821 227.397 179.107 227.234 179.472C227.072 179.83 226.964 180.237 226.912 180.692L226.941 180.741ZM234.773 187.069V185.468L236.189 185.175V178.407L234.666 178.114V176.503H238.65L238.768 177.821L238.787 178.046C239.054 177.479 239.386 177.05 239.783 176.757C240.18 176.457 240.649 176.308 241.189 176.308C241.365 176.308 241.554 176.324 241.756 176.356C241.964 176.382 242.14 176.418 242.283 176.464L241.98 178.915L240.584 178.837C240.161 178.817 239.812 178.896 239.539 179.071C239.272 179.247 239.041 179.498 238.846 179.823V185.175L240.262 185.468V187.069H234.773Z" fill="#3D1D0B"/>
<path d="M33.7969 206.694H35.2578L38.9844 215.968L42.7031 206.694H44.1719L39.5469 218.069H38.4062L33.7969 206.694ZM33.3203 206.694H34.6094L34.8203 213.632V218.069H33.3203V206.694ZM43.3516 206.694H44.6406V218.069H43.1406V213.632L43.3516 206.694ZM50.5781 218.226C49.9896 218.226 49.4557 218.127 48.9766 217.929C48.5026 217.726 48.0938 217.442 47.75 217.077C47.4115 216.713 47.151 216.28 46.9688 215.78C46.7865 215.28 46.6953 214.733 46.6953 214.14V213.812C46.6953 213.124 46.7969 212.512 47 211.976C47.2031 211.434 47.4792 210.976 47.8281 210.601C48.1771 210.226 48.5729 209.942 49.0156 209.749C49.4583 209.556 49.9167 209.46 50.3906 209.46C50.9948 209.46 51.5156 209.564 51.9531 209.772C52.3958 209.981 52.7578 210.272 53.0391 210.647C53.3203 211.017 53.5286 211.455 53.6641 211.96C53.7995 212.46 53.8672 213.007 53.8672 213.601V214.249H47.5547V213.069H52.4219V212.96C52.401 212.585 52.3229 212.22 52.1875 211.866C52.0573 211.512 51.849 211.22 51.5625 210.991C51.276 210.762 50.8854 210.647 50.3906 210.647C50.0625 210.647 49.7604 210.718 49.4844 210.858C49.2083 210.994 48.9714 211.197 48.7734 211.468C48.5755 211.739 48.4219 212.069 48.3125 212.46C48.2031 212.851 48.1484 213.301 48.1484 213.812V214.14C48.1484 214.541 48.2031 214.918 48.3125 215.272C48.4271 215.621 48.5911 215.929 48.8047 216.194C49.0234 216.46 49.2865 216.668 49.5938 216.819C49.9062 216.97 50.2604 217.046 50.6562 217.046C51.1667 217.046 51.599 216.942 51.9531 216.733C52.3073 216.525 52.6172 216.246 52.8828 215.897L53.7578 216.593C53.5755 216.869 53.3438 217.132 53.0625 217.382C52.7812 217.632 52.4349 217.835 52.0234 217.991C51.6172 218.147 51.1354 218.226 50.5781 218.226ZM57 211.421V218.069H55.5547V209.616H56.9219L57 211.421ZM56.6562 213.522L56.0547 213.499C56.0599 212.921 56.1458 212.387 56.3125 211.897C56.4792 211.403 56.7135 210.973 57.0156 210.608C57.3177 210.244 57.6771 209.963 58.0938 209.765C58.5156 209.562 58.9818 209.46 59.4922 209.46C59.9089 209.46 60.2839 209.517 60.6172 209.632C60.9505 209.741 61.2344 209.918 61.4688 210.163C61.7083 210.408 61.8906 210.726 62.0156 211.116C62.1406 211.502 62.2031 211.973 62.2031 212.53V218.069H60.75V212.515C60.75 212.072 60.6849 211.718 60.5547 211.452C60.4245 211.181 60.2344 210.986 59.9844 210.866C59.7344 210.741 59.4271 210.679 59.0625 210.679C58.7031 210.679 58.375 210.754 58.0781 210.905C57.7865 211.056 57.5339 211.265 57.3203 211.53C57.112 211.796 56.9479 212.101 56.8281 212.444C56.7135 212.783 56.6562 213.142 56.6562 213.522ZM67.9375 209.616V210.726H63.3672V209.616H67.9375ZM64.9141 207.562H66.3594V215.976C66.3594 216.262 66.4036 216.478 66.4922 216.624C66.5807 216.77 66.6953 216.866 66.8359 216.913C66.9766 216.96 67.1276 216.983 67.2891 216.983C67.4089 216.983 67.5339 216.973 67.6641 216.952C67.7995 216.926 67.901 216.905 67.9688 216.89L67.9766 218.069C67.862 218.106 67.7109 218.14 67.5234 218.171C67.3411 218.207 67.1198 218.226 66.8594 218.226C66.5052 218.226 66.1797 218.155 65.8828 218.015C65.5859 217.874 65.349 217.64 65.1719 217.312C65 216.978 64.9141 216.53 64.9141 215.968V207.562ZM69.0938 213.937V213.757C69.0938 213.147 69.1823 212.582 69.3594 212.062C69.5365 211.535 69.7917 211.08 70.125 210.694C70.4583 210.304 70.862 210.002 71.3359 209.788C71.8099 209.569 72.3411 209.46 72.9297 209.46C73.5234 209.46 74.0573 209.569 74.5312 209.788C75.0104 210.002 75.4167 210.304 75.75 210.694C76.0885 211.08 76.3464 211.535 76.5234 212.062C76.7005 212.582 76.7891 213.147 76.7891 213.757V213.937C76.7891 214.546 76.7005 215.111 76.5234 215.632C76.3464 216.153 76.0885 216.608 75.75 216.999C75.4167 217.384 75.013 217.687 74.5391 217.905C74.0703 218.119 73.5391 218.226 72.9453 218.226C72.3516 218.226 71.8177 218.119 71.3438 217.905C70.8698 217.687 70.4635 217.384 70.125 216.999C69.7917 216.608 69.5365 216.153 69.3594 215.632C69.1823 215.111 69.0938 214.546 69.0938 213.937ZM70.5391 213.757V213.937C70.5391 214.358 70.5885 214.757 70.6875 215.132C70.7865 215.502 70.9349 215.83 71.1328 216.116C71.3359 216.403 71.5885 216.629 71.8906 216.796C72.1927 216.957 72.5443 217.038 72.9453 217.038C73.3411 217.038 73.6875 216.957 73.9844 216.796C74.2865 216.629 74.5365 216.403 74.7344 216.116C74.9323 215.83 75.0807 215.502 75.1797 215.132C75.2839 214.757 75.3359 214.358 75.3359 213.937V213.757C75.3359 213.34 75.2839 212.947 75.1797 212.577C75.0807 212.202 74.9297 211.871 74.7266 211.585C74.5286 211.293 74.2786 211.064 73.9766 210.897C73.6797 210.731 73.3307 210.647 72.9297 210.647C72.5339 210.647 72.1849 210.731 71.8828 210.897C71.5859 211.064 71.3359 211.293 71.1328 211.585C70.9349 211.871 70.7865 212.202 70.6875 212.577C70.5885 212.947 70.5391 213.34 70.5391 213.757ZM80.0469 210.944V218.069H78.6016V209.616H80.0078L80.0469 210.944ZM82.6875 209.569L82.6797 210.913C82.5599 210.887 82.4453 210.871 82.3359 210.866C82.2318 210.856 82.112 210.851 81.9766 210.851C81.6432 210.851 81.349 210.903 81.0938 211.007C80.8385 211.111 80.6224 211.257 80.4453 211.444C80.2682 211.632 80.1276 211.856 80.0234 212.116C79.9245 212.371 79.8594 212.653 79.8281 212.96L79.4219 213.194C79.4219 212.684 79.4714 212.205 79.5703 211.757C79.6745 211.309 79.8333 210.913 80.0469 210.569C80.2604 210.22 80.5312 209.95 80.8594 209.757C81.1927 209.559 81.5885 209.46 82.0469 209.46C82.151 209.46 82.2708 209.473 82.4062 209.499C82.5417 209.52 82.6354 209.543 82.6875 209.569ZM88.9453 215.827C88.9453 215.619 88.8984 215.426 88.8047 215.249C88.7161 215.067 88.5312 214.903 88.25 214.757C87.974 214.606 87.5573 214.476 87 214.366C86.5312 214.267 86.1068 214.15 85.7266 214.015C85.3516 213.879 85.0312 213.715 84.7656 213.522C84.5052 213.33 84.3047 213.103 84.1641 212.843C84.0234 212.582 83.9531 212.278 83.9531 211.929C83.9531 211.595 84.026 211.28 84.1719 210.983C84.3229 210.687 84.5339 210.424 84.8047 210.194C85.0807 209.965 85.4115 209.785 85.7969 209.655C86.1823 209.525 86.612 209.46 87.0859 209.46C87.763 209.46 88.3411 209.58 88.8203 209.819C89.2995 210.059 89.6667 210.379 89.9219 210.78C90.1771 211.176 90.3047 211.616 90.3047 212.101H88.8594C88.8594 211.866 88.7891 211.64 88.6484 211.421C88.513 211.197 88.3125 211.012 88.0469 210.866C87.7865 210.72 87.4661 210.647 87.0859 210.647C86.6849 210.647 86.3594 210.71 86.1094 210.835C85.8646 210.955 85.6849 211.108 85.5703 211.296C85.4609 211.483 85.4062 211.681 85.4062 211.89C85.4062 212.046 85.4323 212.187 85.4844 212.312C85.5417 212.431 85.6406 212.543 85.7812 212.647C85.9219 212.746 86.1198 212.84 86.375 212.929C86.6302 213.017 86.9557 213.106 87.3516 213.194C88.0443 213.351 88.6146 213.538 89.0625 213.757C89.5104 213.976 89.8438 214.244 90.0625 214.562C90.2812 214.879 90.3906 215.265 90.3906 215.718C90.3906 216.088 90.3125 216.426 90.1562 216.733C90.0052 217.041 89.7839 217.306 89.4922 217.53C89.2057 217.749 88.862 217.921 88.4609 218.046C88.0651 218.166 87.6198 218.226 87.125 218.226C86.3802 218.226 85.75 218.093 85.2344 217.827C84.7188 217.562 84.3281 217.218 84.0625 216.796C83.7969 216.374 83.6641 215.929 83.6641 215.46H85.1172C85.138 215.856 85.2526 216.171 85.4609 216.405C85.6693 216.634 85.9245 216.799 86.2266 216.897C86.5286 216.991 86.8281 217.038 87.125 217.038C87.5208 217.038 87.8516 216.986 88.1172 216.882C88.388 216.778 88.5938 216.634 88.7344 216.452C88.875 216.27 88.9453 216.062 88.9453 215.827ZM101.242 216.624V212.272C101.242 211.939 101.174 211.65 101.039 211.405C100.909 211.155 100.711 210.963 100.445 210.827C100.18 210.692 99.8516 210.624 99.4609 210.624C99.0964 210.624 98.776 210.687 98.5 210.812C98.2292 210.937 98.0156 211.101 97.8594 211.304C97.7083 211.507 97.6328 211.726 97.6328 211.96H96.1875C96.1875 211.658 96.2656 211.358 96.4219 211.062C96.5781 210.765 96.8021 210.496 97.0938 210.257C97.3906 210.012 97.7448 209.819 98.1562 209.679C98.5729 209.533 99.0365 209.46 99.5469 209.46C100.161 209.46 100.703 209.564 101.172 209.772C101.646 209.981 102.016 210.296 102.281 210.718C102.552 211.134 102.688 211.658 102.688 212.288V216.226C102.688 216.507 102.711 216.806 102.758 217.124C102.81 217.442 102.885 217.715 102.984 217.944V218.069H101.477C101.404 217.903 101.346 217.681 101.305 217.405C101.263 217.124 101.242 216.864 101.242 216.624ZM101.492 212.944L101.508 213.96H100.047C99.6354 213.96 99.2682 213.994 98.9453 214.062C98.6224 214.124 98.3516 214.22 98.1328 214.351C97.9141 214.481 97.7474 214.645 97.6328 214.843C97.5182 215.035 97.4609 215.262 97.4609 215.522C97.4609 215.788 97.5208 216.03 97.6406 216.249C97.7604 216.468 97.9401 216.642 98.1797 216.772C98.4245 216.897 98.724 216.96 99.0781 216.96C99.5208 216.96 99.9115 216.866 100.25 216.679C100.589 216.491 100.857 216.262 101.055 215.991C101.258 215.72 101.367 215.457 101.383 215.202L102 215.897C101.964 216.116 101.865 216.358 101.703 216.624C101.542 216.89 101.326 217.145 101.055 217.39C100.789 217.629 100.471 217.83 100.102 217.991C99.737 218.147 99.3255 218.226 98.8672 218.226C98.2943 218.226 97.7917 218.114 97.3594 217.89C96.9323 217.666 96.599 217.366 96.3594 216.991C96.125 216.611 96.0078 216.187 96.0078 215.718C96.0078 215.265 96.0964 214.866 96.2734 214.522C96.4505 214.174 96.7057 213.884 97.0391 213.655C97.3724 213.421 97.7734 213.244 98.2422 213.124C98.7109 213.004 99.2344 212.944 99.8125 212.944H101.492ZM106.406 211.421V218.069H104.961V209.616H106.328L106.406 211.421ZM106.062 213.522L105.461 213.499C105.466 212.921 105.552 212.387 105.719 211.897C105.885 211.403 106.12 210.973 106.422 210.608C106.724 210.244 107.083 209.963 107.5 209.765C107.922 209.562 108.388 209.46 108.898 209.46C109.315 209.46 109.69 209.517 110.023 209.632C110.357 209.741 110.641 209.918 110.875 210.163C111.115 210.408 111.297 210.726 111.422 211.116C111.547 211.502 111.609 211.973 111.609 212.53V218.069H110.156V212.515C110.156 212.072 110.091 211.718 109.961 211.452C109.831 211.181 109.641 210.986 109.391 210.866C109.141 210.741 108.833 210.679 108.469 210.679C108.109 210.679 107.781 210.754 107.484 210.905C107.193 211.056 106.94 211.265 106.727 211.53C106.518 211.796 106.354 212.101 106.234 212.444C106.12 212.783 106.062 213.142 106.062 213.522ZM119.133 216.429V206.069H120.586V218.069H119.258L119.133 216.429ZM113.445 213.937V213.772C113.445 213.127 113.523 212.541 113.68 212.015C113.841 211.483 114.068 211.028 114.359 210.647C114.656 210.267 115.008 209.976 115.414 209.772C115.826 209.564 116.284 209.46 116.789 209.46C117.32 209.46 117.784 209.554 118.18 209.741C118.581 209.924 118.919 210.192 119.195 210.546C119.477 210.895 119.698 211.317 119.859 211.812C120.021 212.306 120.133 212.866 120.195 213.491V214.21C120.138 214.83 120.026 215.387 119.859 215.882C119.698 216.377 119.477 216.799 119.195 217.147C118.919 217.496 118.581 217.765 118.18 217.952C117.779 218.134 117.31 218.226 116.773 218.226C116.279 218.226 115.826 218.119 115.414 217.905C115.008 217.692 114.656 217.392 114.359 217.007C114.068 216.621 113.841 216.168 113.68 215.647C113.523 215.121 113.445 214.551 113.445 213.937ZM114.898 213.772V213.937C114.898 214.358 114.94 214.754 115.023 215.124C115.112 215.494 115.247 215.819 115.43 216.101C115.612 216.382 115.844 216.603 116.125 216.765C116.406 216.921 116.742 216.999 117.133 216.999C117.612 216.999 118.005 216.897 118.312 216.694C118.625 216.491 118.875 216.223 119.062 215.89C119.25 215.556 119.396 215.194 119.5 214.804V212.921C119.438 212.634 119.346 212.358 119.227 212.093C119.112 211.822 118.961 211.582 118.773 211.374C118.591 211.16 118.365 210.991 118.094 210.866C117.828 210.741 117.513 210.679 117.148 210.679C116.753 210.679 116.411 210.762 116.125 210.929C115.844 211.09 115.612 211.314 115.43 211.601C115.247 211.882 115.112 212.21 115.023 212.585C114.94 212.955 114.898 213.351 114.898 213.772ZM128.25 211.241V221.319H126.797V209.616H128.125L128.25 211.241ZM133.945 213.772V213.937C133.945 214.551 133.872 215.121 133.727 215.647C133.581 216.168 133.367 216.621 133.086 217.007C132.81 217.392 132.469 217.692 132.062 217.905C131.656 218.119 131.19 218.226 130.664 218.226C130.128 218.226 129.654 218.137 129.242 217.96C128.831 217.783 128.482 217.525 128.195 217.187C127.909 216.848 127.68 216.442 127.508 215.968C127.341 215.494 127.227 214.96 127.164 214.366V213.491C127.227 212.866 127.344 212.306 127.516 211.812C127.688 211.317 127.914 210.895 128.195 210.546C128.482 210.192 128.828 209.924 129.234 209.741C129.641 209.554 130.109 209.46 130.641 209.46C131.172 209.46 131.643 209.564 132.055 209.772C132.466 209.976 132.812 210.267 133.094 210.647C133.375 211.028 133.586 211.483 133.727 212.015C133.872 212.541 133.945 213.127 133.945 213.772ZM132.492 213.937V213.772C132.492 213.351 132.448 212.955 132.359 212.585C132.271 212.21 132.133 211.882 131.945 211.601C131.763 211.314 131.529 211.09 131.242 210.929C130.956 210.762 130.615 210.679 130.219 210.679C129.854 210.679 129.536 210.741 129.266 210.866C129 210.991 128.773 211.16 128.586 211.374C128.398 211.582 128.245 211.822 128.125 212.093C128.01 212.358 127.924 212.634 127.867 212.921V214.944C127.971 215.309 128.117 215.653 128.305 215.976C128.492 216.293 128.742 216.551 129.055 216.749C129.367 216.942 129.76 217.038 130.234 217.038C130.625 217.038 130.961 216.957 131.242 216.796C131.529 216.629 131.763 216.403 131.945 216.116C132.133 215.83 132.271 215.502 132.359 215.132C132.448 214.757 132.492 214.358 132.492 213.937ZM140.773 216.624V212.272C140.773 211.939 140.706 211.65 140.57 211.405C140.44 211.155 140.242 210.963 139.977 210.827C139.711 210.692 139.383 210.624 138.992 210.624C138.628 210.624 138.307 210.687 138.031 210.812C137.76 210.937 137.547 211.101 137.391 211.304C137.24 211.507 137.164 211.726 137.164 211.96H135.719C135.719 211.658 135.797 211.358 135.953 211.062C136.109 210.765 136.333 210.496 136.625 210.257C136.922 210.012 137.276 209.819 137.688 209.679C138.104 209.533 138.568 209.46 139.078 209.46C139.693 209.46 140.234 209.564 140.703 209.772C141.177 209.981 141.547 210.296 141.812 210.718C142.083 211.134 142.219 211.658 142.219 212.288V216.226C142.219 216.507 142.242 216.806 142.289 217.124C142.341 217.442 142.417 217.715 142.516 217.944V218.069H141.008C140.935 217.903 140.878 217.681 140.836 217.405C140.794 217.124 140.773 216.864 140.773 216.624ZM141.023 212.944L141.039 213.96H139.578C139.167 213.96 138.799 213.994 138.477 214.062C138.154 214.124 137.883 214.22 137.664 214.351C137.445 214.481 137.279 214.645 137.164 214.843C137.049 215.035 136.992 215.262 136.992 215.522C136.992 215.788 137.052 216.03 137.172 216.249C137.292 216.468 137.471 216.642 137.711 216.772C137.956 216.897 138.255 216.96 138.609 216.96C139.052 216.96 139.443 216.866 139.781 216.679C140.12 216.491 140.388 216.262 140.586 215.991C140.789 215.72 140.898 215.457 140.914 215.202L141.531 215.897C141.495 216.116 141.396 216.358 141.234 216.624C141.073 216.89 140.857 217.145 140.586 217.39C140.32 217.629 140.003 217.83 139.633 217.991C139.268 218.147 138.857 218.226 138.398 218.226C137.826 218.226 137.323 218.114 136.891 217.89C136.464 217.666 136.13 217.366 135.891 216.991C135.656 216.611 135.539 216.187 135.539 215.718C135.539 215.265 135.628 214.866 135.805 214.522C135.982 214.174 136.237 213.884 136.57 213.655C136.904 213.421 137.305 213.244 137.773 213.124C138.242 213.004 138.766 212.944 139.344 212.944H141.023ZM145.938 210.944V218.069H144.492V209.616H145.898L145.938 210.944ZM148.578 209.569L148.57 210.913C148.451 210.887 148.336 210.871 148.227 210.866C148.122 210.856 148.003 210.851 147.867 210.851C147.534 210.851 147.24 210.903 146.984 211.007C146.729 211.111 146.513 211.257 146.336 211.444C146.159 211.632 146.018 211.856 145.914 212.116C145.815 212.371 145.75 212.653 145.719 212.96L145.312 213.194C145.312 212.684 145.362 212.205 145.461 211.757C145.565 211.309 145.724 210.913 145.938 210.569C146.151 210.22 146.422 209.95 146.75 209.757C147.083 209.559 147.479 209.46 147.938 209.46C148.042 209.46 148.161 209.473 148.297 209.499C148.432 209.52 148.526 209.543 148.578 209.569ZM153.844 209.616V210.726H149.273V209.616H153.844ZM150.82 207.562H152.266V215.976C152.266 216.262 152.31 216.478 152.398 216.624C152.487 216.77 152.602 216.866 152.742 216.913C152.883 216.96 153.034 216.983 153.195 216.983C153.315 216.983 153.44 216.973 153.57 216.952C153.706 216.926 153.807 216.905 153.875 216.89L153.883 218.069C153.768 218.106 153.617 218.14 153.43 218.171C153.247 218.207 153.026 218.226 152.766 218.226C152.411 218.226 152.086 218.155 151.789 218.015C151.492 217.874 151.255 217.64 151.078 217.312C150.906 216.978 150.82 216.53 150.82 215.968V207.562ZM156.984 211.421V218.069H155.539V209.616H156.906L156.984 211.421ZM156.641 213.522L156.039 213.499C156.044 212.921 156.13 212.387 156.297 211.897C156.464 211.403 156.698 210.973 157 210.608C157.302 210.244 157.661 209.963 158.078 209.765C158.5 209.562 158.966 209.46 159.477 209.46C159.893 209.46 160.268 209.517 160.602 209.632C160.935 209.741 161.219 209.918 161.453 210.163C161.693 210.408 161.875 210.726 162 211.116C162.125 211.502 162.188 211.973 162.188 212.53V218.069H160.734V212.515C160.734 212.072 160.669 211.718 160.539 211.452C160.409 211.181 160.219 210.986 159.969 210.866C159.719 210.741 159.411 210.679 159.047 210.679C158.688 210.679 158.359 210.754 158.062 210.905C157.771 211.056 157.518 211.265 157.305 211.53C157.096 211.796 156.932 212.101 156.812 212.444C156.698 212.783 156.641 213.142 156.641 213.522ZM167.891 218.226C167.302 218.226 166.768 218.127 166.289 217.929C165.815 217.726 165.406 217.442 165.062 217.077C164.724 216.713 164.464 216.28 164.281 215.78C164.099 215.28 164.008 214.733 164.008 214.14V213.812C164.008 213.124 164.109 212.512 164.312 211.976C164.516 211.434 164.792 210.976 165.141 210.601C165.49 210.226 165.885 209.942 166.328 209.749C166.771 209.556 167.229 209.46 167.703 209.46C168.307 209.46 168.828 209.564 169.266 209.772C169.708 209.981 170.07 210.272 170.352 210.647C170.633 211.017 170.841 211.455 170.977 211.96C171.112 212.46 171.18 213.007 171.18 213.601V214.249H164.867V213.069H169.734V212.96C169.714 212.585 169.635 212.22 169.5 211.866C169.37 211.512 169.161 211.22 168.875 210.991C168.589 210.762 168.198 210.647 167.703 210.647C167.375 210.647 167.073 210.718 166.797 210.858C166.521 210.994 166.284 211.197 166.086 211.468C165.888 211.739 165.734 212.069 165.625 212.46C165.516 212.851 165.461 213.301 165.461 213.812V214.14C165.461 214.541 165.516 214.918 165.625 215.272C165.74 215.621 165.904 215.929 166.117 216.194C166.336 216.46 166.599 216.668 166.906 216.819C167.219 216.97 167.573 217.046 167.969 217.046C168.479 217.046 168.911 216.942 169.266 216.733C169.62 216.525 169.93 216.246 170.195 215.897L171.07 216.593C170.888 216.869 170.656 217.132 170.375 217.382C170.094 217.632 169.747 217.835 169.336 217.991C168.93 218.147 168.448 218.226 167.891 218.226ZM174.312 210.944V218.069H172.867V209.616H174.273L174.312 210.944ZM176.953 209.569L176.945 210.913C176.826 210.887 176.711 210.871 176.602 210.866C176.497 210.856 176.378 210.851 176.242 210.851C175.909 210.851 175.615 210.903 175.359 211.007C175.104 211.111 174.888 211.257 174.711 211.444C174.534 211.632 174.393 211.856 174.289 212.116C174.19 212.371 174.125 212.653 174.094 212.96L173.688 213.194C173.688 212.684 173.737 212.205 173.836 211.757C173.94 211.309 174.099 210.913 174.312 210.569C174.526 210.22 174.797 209.95 175.125 209.757C175.458 209.559 175.854 209.46 176.312 209.46C176.417 209.46 176.536 209.473 176.672 209.499C176.807 209.52 176.901 209.543 176.953 209.569ZM183.211 215.827C183.211 215.619 183.164 215.426 183.07 215.249C182.982 215.067 182.797 214.903 182.516 214.757C182.24 214.606 181.823 214.476 181.266 214.366C180.797 214.267 180.372 214.15 179.992 214.015C179.617 213.879 179.297 213.715 179.031 213.522C178.771 213.33 178.57 213.103 178.43 212.843C178.289 212.582 178.219 212.278 178.219 211.929C178.219 211.595 178.292 211.28 178.438 210.983C178.589 210.687 178.799 210.424 179.07 210.194C179.346 209.965 179.677 209.785 180.062 209.655C180.448 209.525 180.878 209.46 181.352 209.46C182.029 209.46 182.607 209.58 183.086 209.819C183.565 210.059 183.932 210.379 184.188 210.78C184.443 211.176 184.57 211.616 184.57 212.101H183.125C183.125 211.866 183.055 211.64 182.914 211.421C182.779 211.197 182.578 211.012 182.312 210.866C182.052 210.72 181.732 210.647 181.352 210.647C180.951 210.647 180.625 210.71 180.375 210.835C180.13 210.955 179.951 211.108 179.836 211.296C179.727 211.483 179.672 211.681 179.672 211.89C179.672 212.046 179.698 212.187 179.75 212.312C179.807 212.431 179.906 212.543 180.047 212.647C180.188 212.746 180.385 212.84 180.641 212.929C180.896 213.017 181.221 213.106 181.617 213.194C182.31 213.351 182.88 213.538 183.328 213.757C183.776 213.976 184.109 214.244 184.328 214.562C184.547 214.879 184.656 215.265 184.656 215.718C184.656 216.088 184.578 216.426 184.422 216.733C184.271 217.041 184.049 217.306 183.758 217.53C183.471 217.749 183.128 217.921 182.727 218.046C182.331 218.166 181.885 218.226 181.391 218.226C180.646 218.226 180.016 218.093 179.5 217.827C178.984 217.562 178.594 217.218 178.328 216.796C178.062 216.374 177.93 215.929 177.93 215.46H179.383C179.404 215.856 179.518 216.171 179.727 216.405C179.935 216.634 180.19 216.799 180.492 216.897C180.794 216.991 181.094 217.038 181.391 217.038C181.786 217.038 182.117 216.986 182.383 216.882C182.654 216.778 182.859 216.634 183 216.452C183.141 216.27 183.211 216.062 183.211 215.827ZM195.508 216.624V212.272C195.508 211.939 195.44 211.65 195.305 211.405C195.174 211.155 194.977 210.963 194.711 210.827C194.445 210.692 194.117 210.624 193.727 210.624C193.362 210.624 193.042 210.687 192.766 210.812C192.495 210.937 192.281 211.101 192.125 211.304C191.974 211.507 191.898 211.726 191.898 211.96H190.453C190.453 211.658 190.531 211.358 190.688 211.062C190.844 210.765 191.068 210.496 191.359 210.257C191.656 210.012 192.01 209.819 192.422 209.679C192.839 209.533 193.302 209.46 193.812 209.46C194.427 209.46 194.969 209.564 195.438 209.772C195.911 209.981 196.281 210.296 196.547 210.718C196.818 211.134 196.953 211.658 196.953 212.288V216.226C196.953 216.507 196.977 216.806 197.023 217.124C197.076 217.442 197.151 217.715 197.25 217.944V218.069H195.742C195.669 217.903 195.612 217.681 195.57 217.405C195.529 217.124 195.508 216.864 195.508 216.624ZM195.758 212.944L195.773 213.96H194.312C193.901 213.96 193.534 213.994 193.211 214.062C192.888 214.124 192.617 214.22 192.398 214.351C192.18 214.481 192.013 214.645 191.898 214.843C191.784 215.035 191.727 215.262 191.727 215.522C191.727 215.788 191.786 216.03 191.906 216.249C192.026 216.468 192.206 216.642 192.445 216.772C192.69 216.897 192.99 216.96 193.344 216.96C193.786 216.96 194.177 216.866 194.516 216.679C194.854 216.491 195.122 216.262 195.32 215.991C195.523 215.72 195.633 215.457 195.648 215.202L196.266 215.897C196.229 216.116 196.13 216.358 195.969 216.624C195.807 216.89 195.591 217.145 195.32 217.39C195.055 217.629 194.737 217.83 194.367 217.991C194.003 218.147 193.591 218.226 193.133 218.226C192.56 218.226 192.057 218.114 191.625 217.89C191.198 217.666 190.865 217.366 190.625 216.991C190.391 216.611 190.273 216.187 190.273 215.718C190.273 215.265 190.362 214.866 190.539 214.522C190.716 214.174 190.971 213.884 191.305 213.655C191.638 213.421 192.039 213.244 192.508 213.124C192.977 213.004 193.5 212.944 194.078 212.944H195.758ZM200.672 210.944V218.069H199.227V209.616H200.633L200.672 210.944ZM203.312 209.569L203.305 210.913C203.185 210.887 203.07 210.871 202.961 210.866C202.857 210.856 202.737 210.851 202.602 210.851C202.268 210.851 201.974 210.903 201.719 211.007C201.464 211.111 201.247 211.257 201.07 211.444C200.893 211.632 200.753 211.856 200.648 212.116C200.549 212.371 200.484 212.653 200.453 212.96L200.047 213.194C200.047 212.684 200.096 212.205 200.195 211.757C200.299 211.309 200.458 210.913 200.672 210.569C200.885 210.22 201.156 209.95 201.484 209.757C201.818 209.559 202.214 209.46 202.672 209.46C202.776 209.46 202.896 209.473 203.031 209.499C203.167 209.52 203.26 209.543 203.312 209.569ZM208 218.226C207.411 218.226 206.878 218.127 206.398 217.929C205.924 217.726 205.516 217.442 205.172 217.077C204.833 216.713 204.573 216.28 204.391 215.78C204.208 215.28 204.117 214.733 204.117 214.14V213.812C204.117 213.124 204.219 212.512 204.422 211.976C204.625 211.434 204.901 210.976 205.25 210.601C205.599 210.226 205.995 209.942 206.438 209.749C206.88 209.556 207.339 209.46 207.812 209.46C208.417 209.46 208.938 209.564 209.375 209.772C209.818 209.981 210.18 210.272 210.461 210.647C210.742 211.017 210.951 211.455 211.086 211.96C211.221 212.46 211.289 213.007 211.289 213.601V214.249H204.977V213.069H209.844V212.96C209.823 212.585 209.745 212.22 209.609 211.866C209.479 211.512 209.271 211.22 208.984 210.991C208.698 210.762 208.307 210.647 207.812 210.647C207.484 210.647 207.182 210.718 206.906 210.858C206.63 210.994 206.393 211.197 206.195 211.468C205.997 211.739 205.844 212.069 205.734 212.46C205.625 212.851 205.57 213.301 205.57 213.812V214.14C205.57 214.541 205.625 214.918 205.734 215.272C205.849 215.621 206.013 215.929 206.227 216.194C206.445 216.46 206.708 216.668 207.016 216.819C207.328 216.97 207.682 217.046 208.078 217.046C208.589 217.046 209.021 216.942 209.375 216.733C209.729 216.525 210.039 216.246 210.305 215.897L211.18 216.593C210.997 216.869 210.766 217.132 210.484 217.382C210.203 217.632 209.857 217.835 209.445 217.991C209.039 218.147 208.557 218.226 208 218.226ZM220.453 218.226C219.865 218.226 219.331 218.127 218.852 217.929C218.378 217.726 217.969 217.442 217.625 217.077C217.286 216.713 217.026 216.28 216.844 215.78C216.661 215.28 216.57 214.733 216.57 214.14V213.812C216.57 213.124 216.672 212.512 216.875 211.976C217.078 211.434 217.354 210.976 217.703 210.601C218.052 210.226 218.448 209.942 218.891 209.749C219.333 209.556 219.792 209.46 220.266 209.46C220.87 209.46 221.391 209.564 221.828 209.772C222.271 209.981 222.633 210.272 222.914 210.647C223.195 211.017 223.404 211.455 223.539 211.96C223.674 212.46 223.742 213.007 223.742 213.601V214.249H217.43V213.069H222.297V212.96C222.276 212.585 222.198 212.22 222.062 211.866C221.932 211.512 221.724 211.22 221.438 210.991C221.151 210.762 220.76 210.647 220.266 210.647C219.938 210.647 219.635 210.718 219.359 210.858C219.083 210.994 218.846 211.197 218.648 211.468C218.451 211.739 218.297 212.069 218.188 212.46C218.078 212.851 218.023 213.301 218.023 213.812V214.14C218.023 214.541 218.078 214.918 218.188 215.272C218.302 215.621 218.466 215.929 218.68 216.194C218.898 216.46 219.161 216.668 219.469 216.819C219.781 216.97 220.135 217.046 220.531 217.046C221.042 217.046 221.474 216.942 221.828 216.733C222.182 216.525 222.492 216.246 222.758 215.897L223.633 216.593C223.451 216.869 223.219 217.132 222.938 217.382C222.656 217.632 222.31 217.835 221.898 217.991C221.492 218.147 221.01 218.226 220.453 218.226ZM226.406 209.616L228.258 212.694L230.133 209.616H231.828L229.062 213.788L231.914 218.069H230.242L228.289 214.897L226.336 218.069H224.656L227.5 213.788L224.742 209.616H226.406ZM234.812 211.241V221.319H233.359V209.616H234.688L234.812 211.241ZM240.508 213.772V213.937C240.508 214.551 240.435 215.121 240.289 215.647C240.143 216.168 239.93 216.621 239.648 217.007C239.372 217.392 239.031 217.692 238.625 217.905C238.219 218.119 237.753 218.226 237.227 218.226C236.69 218.226 236.216 218.137 235.805 217.96C235.393 217.783 235.044 217.525 234.758 217.187C234.471 216.848 234.242 216.442 234.07 215.968C233.904 215.494 233.789 214.96 233.727 214.366V213.491C233.789 212.866 233.906 212.306 234.078 211.812C234.25 211.317 234.477 210.895 234.758 210.546C235.044 210.192 235.391 209.924 235.797 209.741C236.203 209.554 236.672 209.46 237.203 209.46C237.734 209.46 238.206 209.564 238.617 209.772C239.029 209.976 239.375 210.267 239.656 210.647C239.938 211.028 240.148 211.483 240.289 212.015C240.435 212.541 240.508 213.127 240.508 213.772ZM239.055 213.937V213.772C239.055 213.351 239.01 212.955 238.922 212.585C238.833 212.21 238.695 211.882 238.508 211.601C238.326 211.314 238.091 211.09 237.805 210.929C237.518 210.762 237.177 210.679 236.781 210.679C236.417 210.679 236.099 210.741 235.828 210.866C235.562 210.991 235.336 211.16 235.148 211.374C234.961 211.582 234.807 211.822 234.688 212.093C234.573 212.358 234.487 212.634 234.43 212.921V214.944C234.534 215.309 234.68 215.653 234.867 215.976C235.055 216.293 235.305 216.551 235.617 216.749C235.93 216.942 236.323 217.038 236.797 217.038C237.188 217.038 237.523 216.957 237.805 216.796C238.091 216.629 238.326 216.403 238.508 216.116C238.695 215.83 238.833 215.502 238.922 215.132C239.01 214.757 239.055 214.358 239.055 213.937ZM245.859 218.226C245.271 218.226 244.737 218.127 244.258 217.929C243.784 217.726 243.375 217.442 243.031 217.077C242.693 216.713 242.432 216.28 242.25 215.78C242.068 215.28 241.977 214.733 241.977 214.14V213.812C241.977 213.124 242.078 212.512 242.281 211.976C242.484 211.434 242.76 210.976 243.109 210.601C243.458 210.226 243.854 209.942 244.297 209.749C244.74 209.556 245.198 209.46 245.672 209.46C246.276 209.46 246.797 209.564 247.234 209.772C247.677 209.981 248.039 210.272 248.32 210.647C248.602 211.017 248.81 211.455 248.945 211.96C249.081 212.46 249.148 213.007 249.148 213.601V214.249H242.836V213.069H247.703V212.96C247.682 212.585 247.604 212.22 247.469 211.866C247.339 211.512 247.13 211.22 246.844 210.991C246.557 210.762 246.167 210.647 245.672 210.647C245.344 210.647 245.042 210.718 244.766 210.858C244.49 210.994 244.253 211.197 244.055 211.468C243.857 211.739 243.703 212.069 243.594 212.46C243.484 212.851 243.43 213.301 243.43 213.812V214.14C243.43 214.541 243.484 214.918 243.594 215.272C243.708 215.621 243.872 215.929 244.086 216.194C244.305 216.46 244.568 216.668 244.875 216.819C245.188 216.97 245.542 217.046 245.938 217.046C246.448 217.046 246.88 216.942 247.234 216.733C247.589 216.525 247.898 216.246 248.164 215.897L249.039 216.593C248.857 216.869 248.625 217.132 248.344 217.382C248.062 217.632 247.716 217.835 247.305 217.991C246.898 218.147 246.417 218.226 245.859 218.226ZM252.281 210.944V218.069H250.836V209.616H252.242L252.281 210.944ZM254.922 209.569L254.914 210.913C254.794 210.887 254.68 210.871 254.57 210.866C254.466 210.856 254.346 210.851 254.211 210.851C253.878 210.851 253.583 210.903 253.328 211.007C253.073 211.111 252.857 211.257 252.68 211.444C252.503 211.632 252.362 211.856 252.258 212.116C252.159 212.371 252.094 212.653 252.062 212.96L251.656 213.194C251.656 212.684 251.706 212.205 251.805 211.757C251.909 211.309 252.068 210.913 252.281 210.569C252.495 210.22 252.766 209.95 253.094 209.757C253.427 209.559 253.823 209.46 254.281 209.46C254.385 209.46 254.505 209.473 254.641 209.499C254.776 209.52 254.87 209.543 254.922 209.569ZM260.188 209.616V210.726H255.617V209.616H260.188ZM257.164 207.562H258.609V215.976C258.609 216.262 258.654 216.478 258.742 216.624C258.831 216.77 258.945 216.866 259.086 216.913C259.227 216.96 259.378 216.983 259.539 216.983C259.659 216.983 259.784 216.973 259.914 216.952C260.049 216.926 260.151 216.905 260.219 216.89L260.227 218.069C260.112 218.106 259.961 218.14 259.773 218.171C259.591 218.207 259.37 218.226 259.109 218.226C258.755 218.226 258.43 218.155 258.133 218.015C257.836 217.874 257.599 217.64 257.422 217.312C257.25 216.978 257.164 216.53 257.164 215.968V207.562ZM266.805 215.827C266.805 215.619 266.758 215.426 266.664 215.249C266.576 215.067 266.391 214.903 266.109 214.757C265.833 214.606 265.417 214.476 264.859 214.366C264.391 214.267 263.966 214.15 263.586 214.015C263.211 213.879 262.891 213.715 262.625 213.522C262.365 213.33 262.164 213.103 262.023 212.843C261.883 212.582 261.812 212.278 261.812 211.929C261.812 211.595 261.885 211.28 262.031 210.983C262.182 210.687 262.393 210.424 262.664 210.194C262.94 209.965 263.271 209.785 263.656 209.655C264.042 209.525 264.471 209.46 264.945 209.46C265.622 209.46 266.201 209.58 266.68 209.819C267.159 210.059 267.526 210.379 267.781 210.78C268.036 211.176 268.164 211.616 268.164 212.101H266.719C266.719 211.866 266.648 211.64 266.508 211.421C266.372 211.197 266.172 211.012 265.906 210.866C265.646 210.72 265.326 210.647 264.945 210.647C264.544 210.647 264.219 210.71 263.969 210.835C263.724 210.955 263.544 211.108 263.43 211.296C263.32 211.483 263.266 211.681 263.266 211.89C263.266 212.046 263.292 212.187 263.344 212.312C263.401 212.431 263.5 212.543 263.641 212.647C263.781 212.746 263.979 212.84 264.234 212.929C264.49 213.017 264.815 213.106 265.211 213.194C265.904 213.351 266.474 213.538 266.922 213.757C267.37 213.976 267.703 214.244 267.922 214.562C268.141 214.879 268.25 215.265 268.25 215.718C268.25 216.088 268.172 216.426 268.016 216.733C267.865 217.041 267.643 217.306 267.352 217.53C267.065 217.749 266.721 217.921 266.32 218.046C265.924 218.166 265.479 218.226 264.984 218.226C264.24 218.226 263.609 218.093 263.094 217.827C262.578 217.562 262.188 217.218 261.922 216.796C261.656 216.374 261.523 215.929 261.523 215.46H262.977C262.997 215.856 263.112 216.171 263.32 216.405C263.529 216.634 263.784 216.799 264.086 216.897C264.388 216.991 264.688 217.038 264.984 217.038C265.38 217.038 265.711 216.986 265.977 216.882C266.247 216.778 266.453 216.634 266.594 216.452C266.734 216.27 266.805 216.062 266.805 215.827ZM276.258 216.569L278.43 209.616H279.383L279.195 210.999L276.984 218.069H276.055L276.258 216.569ZM274.797 209.616L276.648 216.647L276.781 218.069H275.805L273.352 209.616H274.797ZM281.461 216.593L283.227 209.616H284.664L282.211 218.069H281.242L281.461 216.593ZM279.594 209.616L281.719 216.452L281.961 218.069H281.039L278.766 210.983L278.578 209.616H279.594ZM287.594 206.069V218.069H286.148V206.069H287.594ZM287.25 213.522L286.648 213.499C286.654 212.921 286.74 212.387 286.906 211.897C287.073 211.403 287.307 210.973 287.609 210.608C287.911 210.244 288.271 209.963 288.688 209.765C289.109 209.562 289.576 209.46 290.086 209.46C290.503 209.46 290.878 209.517 291.211 209.632C291.544 209.741 291.828 209.918 292.062 210.163C292.302 210.408 292.484 210.726 292.609 211.116C292.734 211.502 292.797 211.973 292.797 212.53V218.069H291.344V212.515C291.344 212.072 291.279 211.718 291.148 211.452C291.018 211.181 290.828 210.986 290.578 210.866C290.328 210.741 290.021 210.679 289.656 210.679C289.297 210.679 288.969 210.754 288.672 210.905C288.38 211.056 288.128 211.265 287.914 211.53C287.706 211.796 287.542 212.101 287.422 212.444C287.307 212.783 287.25 213.142 287.25 213.522ZM294.578 213.937V213.757C294.578 213.147 294.667 212.582 294.844 212.062C295.021 211.535 295.276 211.08 295.609 210.694C295.943 210.304 296.346 210.002 296.82 209.788C297.294 209.569 297.826 209.46 298.414 209.46C299.008 209.46 299.542 209.569 300.016 209.788C300.495 210.002 300.901 210.304 301.234 210.694C301.573 211.08 301.831 211.535 302.008 212.062C302.185 212.582 302.273 213.147 302.273 213.757V213.937C302.273 214.546 302.185 215.111 302.008 215.632C301.831 216.153 301.573 216.608 301.234 216.999C300.901 217.384 300.497 217.687 300.023 217.905C299.555 218.119 299.023 218.226 298.43 218.226C297.836 218.226 297.302 218.119 296.828 217.905C296.354 217.687 295.948 217.384 295.609 216.999C295.276 216.608 295.021 216.153 294.844 215.632C294.667 215.111 294.578 214.546 294.578 213.937ZM296.023 213.757V213.937C296.023 214.358 296.073 214.757 296.172 215.132C296.271 215.502 296.419 215.83 296.617 216.116C296.82 216.403 297.073 216.629 297.375 216.796C297.677 216.957 298.029 217.038 298.43 217.038C298.826 217.038 299.172 216.957 299.469 216.796C299.771 216.629 300.021 216.403 300.219 216.116C300.417 215.83 300.565 215.502 300.664 215.132C300.768 214.757 300.82 214.358 300.82 213.937V213.757C300.82 213.34 300.768 212.947 300.664 212.577C300.565 212.202 300.414 211.871 300.211 211.585C300.013 211.293 299.763 211.064 299.461 210.897C299.164 210.731 298.815 210.647 298.414 210.647C298.018 210.647 297.669 210.731 297.367 210.897C297.07 211.064 296.82 211.293 296.617 211.585C296.419 211.871 296.271 212.202 296.172 212.577C296.073 212.947 296.023 213.34 296.023 213.757ZM38.5781 234.616H39.8906V242.89C39.8906 243.634 39.7396 244.27 39.4375 244.796C39.1354 245.322 38.7135 245.72 38.1719 245.991C37.6354 246.267 37.0156 246.405 36.3125 246.405C36.0208 246.405 35.6771 246.358 35.2812 246.265C34.8906 246.176 34.5052 246.022 34.125 245.804C33.75 245.59 33.4349 245.301 33.1797 244.937L33.9375 244.077C34.2917 244.504 34.6615 244.801 35.0469 244.968C35.4375 245.134 35.8229 245.218 36.2031 245.218C36.6615 245.218 37.0573 245.132 37.3906 244.96C37.724 244.788 37.9818 244.533 38.1641 244.194C38.3516 243.861 38.4453 243.45 38.4453 242.96V236.476L38.5781 234.616ZM32.7578 238.937V238.772C32.7578 238.127 32.8333 237.541 32.9844 237.015C33.1406 236.483 33.362 236.028 33.6484 235.647C33.9401 235.267 34.2917 234.976 34.7031 234.772C35.1146 234.564 35.5781 234.46 36.0938 234.46C36.625 234.46 37.0885 234.554 37.4844 234.741C37.8854 234.924 38.224 235.192 38.5 235.546C38.7812 235.895 39.0026 236.317 39.1641 236.812C39.3255 237.306 39.4375 237.866 39.5 238.491V239.21C39.4427 239.83 39.3307 240.387 39.1641 240.882C39.0026 241.377 38.7812 241.799 38.5 242.147C38.224 242.496 37.8854 242.765 37.4844 242.952C37.0833 243.134 36.6146 243.226 36.0781 243.226C35.5729 243.226 35.1146 243.119 34.7031 242.905C34.2969 242.692 33.9479 242.392 33.6562 242.007C33.3646 241.621 33.1406 241.168 32.9844 240.647C32.8333 240.121 32.7578 239.551 32.7578 238.937ZM34.2031 238.772V238.937C34.2031 239.358 34.2448 239.754 34.3281 240.124C34.4167 240.494 34.5495 240.819 34.7266 241.101C34.9089 241.382 35.1406 241.603 35.4219 241.765C35.7031 241.921 36.0391 241.999 36.4297 241.999C36.9089 241.999 37.3047 241.897 37.6172 241.694C37.9297 241.491 38.1771 241.223 38.3594 240.89C38.5469 240.556 38.6927 240.194 38.7969 239.804V237.921C38.7396 237.634 38.651 237.358 38.5312 237.093C38.4167 236.822 38.2656 236.582 38.0781 236.374C37.8958 236.16 37.6693 235.991 37.3984 235.866C37.1276 235.741 36.8099 235.679 36.4453 235.679C36.0495 235.679 35.7083 235.762 35.4219 235.929C35.1406 236.09 34.9089 236.314 34.7266 236.601C34.5495 236.882 34.4167 237.21 34.3281 237.585C34.2448 237.955 34.2031 238.351 34.2031 238.772ZM47.2578 241.116V234.616H48.7109V243.069H47.3281L47.2578 241.116ZM47.5312 239.335L48.1328 239.319C48.1328 239.882 48.0729 240.403 47.9531 240.882C47.8385 241.356 47.651 241.767 47.3906 242.116C47.1302 242.465 46.7891 242.739 46.3672 242.937C45.9453 243.129 45.4323 243.226 44.8281 243.226C44.4167 243.226 44.0391 243.166 43.6953 243.046C43.3568 242.926 43.0651 242.741 42.8203 242.491C42.5755 242.241 42.3854 241.916 42.25 241.515C42.1198 241.114 42.0547 240.632 42.0547 240.069V234.616H43.5V240.085C43.5 240.465 43.5417 240.78 43.625 241.03C43.7135 241.275 43.8307 241.47 43.9766 241.616C44.1276 241.757 44.2943 241.856 44.4766 241.913C44.6641 241.97 44.8568 241.999 45.0547 241.999C45.6693 241.999 46.1562 241.882 46.5156 241.647C46.875 241.408 47.1328 241.088 47.2891 240.687C47.4505 240.28 47.5312 239.83 47.5312 239.335ZM52.4844 234.616V243.069H51.0312V234.616H52.4844ZM50.9219 232.374C50.9219 232.14 50.9922 231.942 51.1328 231.78C51.2786 231.619 51.4922 231.538 51.7734 231.538C52.0495 231.538 52.2604 231.619 52.4062 231.78C52.5573 231.942 52.6328 232.14 52.6328 232.374C52.6328 232.598 52.5573 232.791 52.4062 232.952C52.2604 233.108 52.0495 233.187 51.7734 233.187C51.4922 233.187 51.2786 233.108 51.1328 232.952C50.9922 232.791 50.9219 232.598 50.9219 232.374ZM60.1328 241.429V231.069H61.5859V243.069H60.2578L60.1328 241.429ZM54.4453 238.937V238.772C54.4453 238.127 54.5234 237.541 54.6797 237.015C54.8411 236.483 55.0677 236.028 55.3594 235.647C55.6562 235.267 56.0078 234.976 56.4141 234.772C56.8255 234.564 57.2839 234.46 57.7891 234.46C58.3203 234.46 58.7839 234.554 59.1797 234.741C59.5807 234.924 59.9193 235.192 60.1953 235.546C60.4766 235.895 60.6979 236.317 60.8594 236.812C61.0208 237.306 61.1328 237.866 61.1953 238.491V239.21C61.138 239.83 61.026 240.387 60.8594 240.882C60.6979 241.377 60.4766 241.799 60.1953 242.147C59.9193 242.496 59.5807 242.765 59.1797 242.952C58.7786 243.134 58.3099 243.226 57.7734 243.226C57.2786 243.226 56.8255 243.119 56.4141 242.905C56.0078 242.692 55.6562 242.392 55.3594 242.007C55.0677 241.621 54.8411 241.168 54.6797 240.647C54.5234 240.121 54.4453 239.551 54.4453 238.937ZM55.8984 238.772V238.937C55.8984 239.358 55.9401 239.754 56.0234 240.124C56.112 240.494 56.2474 240.819 56.4297 241.101C56.612 241.382 56.8438 241.603 57.125 241.765C57.4062 241.921 57.7422 241.999 58.1328 241.999C58.612 241.999 59.0052 241.897 59.3125 241.694C59.625 241.491 59.875 241.223 60.0625 240.89C60.25 240.556 60.3958 240.194 60.5 239.804V237.921C60.4375 237.634 60.3464 237.358 60.2266 237.093C60.112 236.822 59.9609 236.582 59.7734 236.374C59.5911 236.16 59.3646 235.991 59.0938 235.866C58.8281 235.741 58.513 235.679 58.1484 235.679C57.7526 235.679 57.4115 235.762 57.125 235.929C56.8438 236.09 56.612 236.314 56.4297 236.601C56.2474 236.882 56.112 237.21 56.0234 237.585C55.9401 237.955 55.8984 238.351 55.8984 238.772ZM67.3438 243.226C66.7552 243.226 66.2214 243.127 65.7422 242.929C65.2682 242.726 64.8594 242.442 64.5156 242.077C64.1771 241.713 63.9167 241.28 63.7344 240.78C63.5521 240.28 63.4609 239.733 63.4609 239.14V238.812C63.4609 238.124 63.5625 237.512 63.7656 236.976C63.9688 236.434 64.2448 235.976 64.5938 235.601C64.9427 235.226 65.3385 234.942 65.7812 234.749C66.224 234.556 66.6823 234.46 67.1562 234.46C67.7604 234.46 68.2812 234.564 68.7188 234.772C69.1615 234.981 69.5234 235.272 69.8047 235.647C70.0859 236.017 70.2943 236.455 70.4297 236.96C70.5651 237.46 70.6328 238.007 70.6328 238.601V239.249H64.3203V238.069H69.1875V237.96C69.1667 237.585 69.0885 237.22 68.9531 236.866C68.8229 236.512 68.6146 236.22 68.3281 235.991C68.0417 235.762 67.651 235.647 67.1562 235.647C66.8281 235.647 66.526 235.718 66.25 235.858C65.974 235.994 65.737 236.197 65.5391 236.468C65.3411 236.739 65.1875 237.069 65.0781 237.46C64.9688 237.851 64.9141 238.301 64.9141 238.812V239.14C64.9141 239.541 64.9688 239.918 65.0781 240.272C65.1927 240.621 65.3568 240.929 65.5703 241.194C65.7891 241.46 66.0521 241.668 66.3594 241.819C66.6719 241.97 67.026 242.046 67.4219 242.046C67.9323 242.046 68.3646 241.942 68.7188 241.733C69.0729 241.525 69.3828 241.246 69.6484 240.897L70.5234 241.593C70.3411 241.869 70.1094 242.132 69.8281 242.382C69.5469 242.632 69.2005 242.835 68.7891 242.991C68.3828 243.147 67.901 243.226 67.3438 243.226ZM75.9062 238.937V238.757C75.9062 238.147 75.9948 237.582 76.1719 237.062C76.349 236.535 76.6042 236.08 76.9375 235.694C77.2708 235.304 77.6745 235.002 78.1484 234.788C78.6224 234.569 79.1536 234.46 79.7422 234.46C80.3359 234.46 80.8698 234.569 81.3438 234.788C81.8229 235.002 82.2292 235.304 82.5625 235.694C82.901 236.08 83.1589 236.535 83.3359 237.062C83.513 237.582 83.6016 238.147 83.6016 238.757V238.937C83.6016 239.546 83.513 240.111 83.3359 240.632C83.1589 241.153 82.901 241.608 82.5625 241.999C82.2292 242.384 81.8255 242.687 81.3516 242.905C80.8828 243.119 80.3516 243.226 79.7578 243.226C79.1641 243.226 78.6302 243.119 78.1562 242.905C77.6823 242.687 77.276 242.384 76.9375 241.999C76.6042 241.608 76.349 241.153 76.1719 240.632C75.9948 240.111 75.9062 239.546 75.9062 238.937ZM77.3516 238.757V238.937C77.3516 239.358 77.401 239.757 77.5 240.132C77.599 240.502 77.7474 240.83 77.9453 241.116C78.1484 241.403 78.401 241.629 78.7031 241.796C79.0052 241.957 79.3568 242.038 79.7578 242.038C80.1536 242.038 80.5 241.957 80.7969 241.796C81.099 241.629 81.349 241.403 81.5469 241.116C81.7448 240.83 81.8932 240.502 81.9922 240.132C82.0964 239.757 82.1484 239.358 82.1484 238.937V238.757C82.1484 238.34 82.0964 237.947 81.9922 237.577C81.8932 237.202 81.7422 236.871 81.5391 236.585C81.3411 236.293 81.0911 236.064 80.7891 235.897C80.4922 235.731 80.1432 235.647 79.7422 235.647C79.3464 235.647 78.9974 235.731 78.6953 235.897C78.3984 236.064 78.1484 236.293 77.9453 236.585C77.7474 236.871 77.599 237.202 77.5 237.577C77.401 237.947 77.3516 238.34 77.3516 238.757ZM86.8594 235.944V243.069H85.4141V234.616H86.8203L86.8594 235.944ZM89.5 234.569L89.4922 235.913C89.3724 235.887 89.2578 235.871 89.1484 235.866C89.0443 235.856 88.9245 235.851 88.7891 235.851C88.4557 235.851 88.1615 235.903 87.9062 236.007C87.651 236.111 87.4349 236.257 87.2578 236.444C87.0807 236.632 86.9401 236.856 86.8359 237.116C86.737 237.371 86.6719 237.653 86.6406 237.96L86.2344 238.194C86.2344 237.684 86.2839 237.205 86.3828 236.757C86.487 236.309 86.6458 235.913 86.8594 235.569C87.0729 235.22 87.3438 234.95 87.6719 234.757C88.0052 234.559 88.401 234.46 88.8594 234.46C88.9635 234.46 89.0833 234.473 89.2188 234.499C89.3542 234.52 89.4479 234.543 89.5 234.569ZM96.9609 243.069H95.5156V233.726C95.5156 233.116 95.625 232.603 95.8438 232.187C96.0677 231.765 96.388 231.447 96.8047 231.233C97.2214 231.015 97.7161 230.905 98.2891 230.905C98.4557 230.905 98.6224 230.916 98.7891 230.937C98.9609 230.957 99.1276 230.989 99.2891 231.03L99.2109 232.21C99.1016 232.184 98.9766 232.166 98.8359 232.155C98.7005 232.145 98.5651 232.14 98.4297 232.14C98.1224 232.14 97.8568 232.202 97.6328 232.327C97.4141 232.447 97.2474 232.624 97.1328 232.858C97.0182 233.093 96.9609 233.382 96.9609 233.726V243.069ZM98.7578 234.616V235.726H94.1797V234.616H98.7578ZM105.539 241.116V234.616H106.992V243.069H105.609L105.539 241.116ZM105.812 239.335L106.414 239.319C106.414 239.882 106.354 240.403 106.234 240.882C106.12 241.356 105.932 241.767 105.672 242.116C105.411 242.465 105.07 242.739 104.648 242.937C104.227 243.129 103.714 243.226 103.109 243.226C102.698 243.226 102.32 243.166 101.977 243.046C101.638 242.926 101.346 242.741 101.102 242.491C100.857 242.241 100.667 241.916 100.531 241.515C100.401 241.114 100.336 240.632 100.336 240.069V234.616H101.781V240.085C101.781 240.465 101.823 240.78 101.906 241.03C101.995 241.275 102.112 241.47 102.258 241.616C102.409 241.757 102.576 241.856 102.758 241.913C102.945 241.97 103.138 241.999 103.336 241.999C103.951 241.999 104.438 241.882 104.797 241.647C105.156 241.408 105.414 241.088 105.57 240.687C105.732 240.28 105.812 239.83 105.812 239.335ZM110.641 236.421V243.069H109.195V234.616H110.562L110.641 236.421ZM110.297 238.522L109.695 238.499C109.701 237.921 109.786 237.387 109.953 236.897C110.12 236.403 110.354 235.973 110.656 235.608C110.958 235.244 111.318 234.963 111.734 234.765C112.156 234.562 112.622 234.46 113.133 234.46C113.549 234.46 113.924 234.517 114.258 234.632C114.591 234.741 114.875 234.918 115.109 235.163C115.349 235.408 115.531 235.726 115.656 236.116C115.781 236.502 115.844 236.973 115.844 237.53V243.069H114.391V237.515C114.391 237.072 114.326 236.718 114.195 236.452C114.065 236.181 113.875 235.986 113.625 235.866C113.375 235.741 113.068 235.679 112.703 235.679C112.344 235.679 112.016 235.754 111.719 235.905C111.427 236.056 111.174 236.265 110.961 236.53C110.753 236.796 110.589 237.101 110.469 237.444C110.354 237.783 110.297 238.142 110.297 238.522ZM123.367 241.429V231.069H124.82V243.069H123.492L123.367 241.429ZM117.68 238.937V238.772C117.68 238.127 117.758 237.541 117.914 237.015C118.076 236.483 118.302 236.028 118.594 235.647C118.891 235.267 119.242 234.976 119.648 234.772C120.06 234.564 120.518 234.46 121.023 234.46C121.555 234.46 122.018 234.554 122.414 234.741C122.815 234.924 123.154 235.192 123.43 235.546C123.711 235.895 123.932 236.317 124.094 236.812C124.255 237.306 124.367 237.866 124.43 238.491V239.21C124.372 239.83 124.26 240.387 124.094 240.882C123.932 241.377 123.711 241.799 123.43 242.147C123.154 242.496 122.815 242.765 122.414 242.952C122.013 243.134 121.544 243.226 121.008 243.226C120.513 243.226 120.06 243.119 119.648 242.905C119.242 242.692 118.891 242.392 118.594 242.007C118.302 241.621 118.076 241.168 117.914 240.647C117.758 240.121 117.68 239.551 117.68 238.937ZM119.133 238.772V238.937C119.133 239.358 119.174 239.754 119.258 240.124C119.346 240.494 119.482 240.819 119.664 241.101C119.846 241.382 120.078 241.603 120.359 241.765C120.641 241.921 120.977 241.999 121.367 241.999C121.846 241.999 122.24 241.897 122.547 241.694C122.859 241.491 123.109 241.223 123.297 240.89C123.484 240.556 123.63 240.194 123.734 239.804V237.921C123.672 237.634 123.581 237.358 123.461 237.093C123.346 236.822 123.195 236.582 123.008 236.374C122.826 236.16 122.599 235.991 122.328 235.866C122.062 235.741 121.747 235.679 121.383 235.679C120.987 235.679 120.646 235.762 120.359 235.929C120.078 236.09 119.846 236.314 119.664 236.601C119.482 236.882 119.346 237.21 119.258 237.585C119.174 237.955 119.133 238.351 119.133 238.772ZM132.609 234.616V243.069H131.156V234.616H132.609ZM131.047 232.374C131.047 232.14 131.117 231.942 131.258 231.78C131.404 231.619 131.617 231.538 131.898 231.538C132.174 231.538 132.385 231.619 132.531 231.78C132.682 231.942 132.758 232.14 132.758 232.374C132.758 232.598 132.682 232.791 132.531 232.952C132.385 233.108 132.174 233.187 131.898 233.187C131.617 233.187 131.404 233.108 131.258 232.952C131.117 232.791 131.047 232.598 131.047 232.374ZM136.375 236.421V243.069H134.93V234.616H136.297L136.375 236.421ZM136.031 238.522L135.43 238.499C135.435 237.921 135.521 237.387 135.688 236.897C135.854 236.403 136.089 235.973 136.391 235.608C136.693 235.244 137.052 234.963 137.469 234.765C137.891 234.562 138.357 234.46 138.867 234.46C139.284 234.46 139.659 234.517 139.992 234.632C140.326 234.741 140.609 234.918 140.844 235.163C141.083 235.408 141.266 235.726 141.391 236.116C141.516 236.502 141.578 236.973 141.578 237.53V243.069H140.125V237.515C140.125 237.072 140.06 236.718 139.93 236.452C139.799 236.181 139.609 235.986 139.359 235.866C139.109 235.741 138.802 235.679 138.438 235.679C138.078 235.679 137.75 235.754 137.453 235.905C137.161 236.056 136.909 236.265 136.695 236.53C136.487 236.796 136.323 237.101 136.203 237.444C136.089 237.783 136.031 238.142 136.031 238.522ZM145.219 236.421V243.069H143.773V234.616H145.141L145.219 236.421ZM144.875 238.522L144.273 238.499C144.279 237.921 144.365 237.387 144.531 236.897C144.698 236.403 144.932 235.973 145.234 235.608C145.536 235.244 145.896 234.963 146.312 234.765C146.734 234.562 147.201 234.46 147.711 234.46C148.128 234.46 148.503 234.517 148.836 234.632C149.169 234.741 149.453 234.918 149.688 235.163C149.927 235.408 150.109 235.726 150.234 236.116C150.359 236.502 150.422 236.973 150.422 237.53V243.069H148.969V237.515C148.969 237.072 148.904 236.718 148.773 236.452C148.643 236.181 148.453 235.986 148.203 235.866C147.953 235.741 147.646 235.679 147.281 235.679C146.922 235.679 146.594 235.754 146.297 235.905C146.005 236.056 145.753 236.265 145.539 236.53C145.331 236.796 145.167 237.101 145.047 237.444C144.932 237.783 144.875 238.142 144.875 238.522ZM152.234 238.937V238.757C152.234 238.147 152.323 237.582 152.5 237.062C152.677 236.535 152.932 236.08 153.266 235.694C153.599 235.304 154.003 235.002 154.477 234.788C154.951 234.569 155.482 234.46 156.07 234.46C156.664 234.46 157.198 234.569 157.672 234.788C158.151 235.002 158.557 235.304 158.891 235.694C159.229 236.08 159.487 236.535 159.664 237.062C159.841 237.582 159.93 238.147 159.93 238.757V238.937C159.93 239.546 159.841 240.111 159.664 240.632C159.487 241.153 159.229 241.608 158.891 241.999C158.557 242.384 158.154 242.687 157.68 242.905C157.211 243.119 156.68 243.226 156.086 243.226C155.492 243.226 154.958 243.119 154.484 242.905C154.01 242.687 153.604 242.384 153.266 241.999C152.932 241.608 152.677 241.153 152.5 240.632C152.323 240.111 152.234 239.546 152.234 238.937ZM153.68 238.757V238.937C153.68 239.358 153.729 239.757 153.828 240.132C153.927 240.502 154.076 240.83 154.273 241.116C154.477 241.403 154.729 241.629 155.031 241.796C155.333 241.957 155.685 242.038 156.086 242.038C156.482 242.038 156.828 241.957 157.125 241.796C157.427 241.629 157.677 241.403 157.875 241.116C158.073 240.83 158.221 240.502 158.32 240.132C158.424 239.757 158.477 239.358 158.477 238.937V238.757C158.477 238.34 158.424 237.947 158.32 237.577C158.221 237.202 158.07 236.871 157.867 236.585C157.669 236.293 157.419 236.064 157.117 235.897C156.82 235.731 156.471 235.647 156.07 235.647C155.674 235.647 155.326 235.731 155.023 235.897C154.727 236.064 154.477 236.293 154.273 236.585C154.076 236.871 153.927 237.202 153.828 237.577C153.729 237.947 153.68 238.34 153.68 238.757ZM164.188 241.765L166.5 234.616H167.977L164.938 243.069H163.969L164.188 241.765ZM162.258 234.616L164.641 241.804L164.805 243.069H163.836L160.773 234.616H162.258ZM174.227 241.624V237.272C174.227 236.939 174.159 236.65 174.023 236.405C173.893 236.155 173.695 235.963 173.43 235.827C173.164 235.692 172.836 235.624 172.445 235.624C172.081 235.624 171.76 235.687 171.484 235.812C171.214 235.937 171 236.101 170.844 236.304C170.693 236.507 170.617 236.726 170.617 236.96H169.172C169.172 236.658 169.25 236.358 169.406 236.062C169.562 235.765 169.786 235.496 170.078 235.257C170.375 235.012 170.729 234.819 171.141 234.679C171.557 234.533 172.021 234.46 172.531 234.46C173.146 234.46 173.688 234.564 174.156 234.772C174.63 234.981 175 235.296 175.266 235.718C175.536 236.134 175.672 236.658 175.672 237.288V241.226C175.672 241.507 175.695 241.806 175.742 242.124C175.794 242.442 175.87 242.715 175.969 242.944V243.069H174.461C174.388 242.903 174.331 242.681 174.289 242.405C174.247 242.124 174.227 241.864 174.227 241.624ZM174.477 237.944L174.492 238.96H173.031C172.62 238.96 172.253 238.994 171.93 239.062C171.607 239.124 171.336 239.22 171.117 239.351C170.898 239.481 170.732 239.645 170.617 239.843C170.503 240.035 170.445 240.262 170.445 240.522C170.445 240.788 170.505 241.03 170.625 241.249C170.745 241.468 170.924 241.642 171.164 241.772C171.409 241.897 171.708 241.96 172.062 241.96C172.505 241.96 172.896 241.866 173.234 241.679C173.573 241.491 173.841 241.262 174.039 240.991C174.242 240.72 174.352 240.457 174.367 240.202L174.984 240.897C174.948 241.116 174.849 241.358 174.688 241.624C174.526 241.89 174.31 242.145 174.039 242.39C173.773 242.629 173.456 242.83 173.086 242.991C172.721 243.147 172.31 243.226 171.852 243.226C171.279 243.226 170.776 243.114 170.344 242.89C169.917 242.666 169.583 242.366 169.344 241.991C169.109 241.611 168.992 241.187 168.992 240.718C168.992 240.265 169.081 239.866 169.258 239.522C169.435 239.174 169.69 238.884 170.023 238.655C170.357 238.421 170.758 238.244 171.227 238.124C171.695 238.004 172.219 237.944 172.797 237.944H174.477ZM181.484 234.616V235.726H176.914V234.616H181.484ZM178.461 232.562H179.906V240.976C179.906 241.262 179.951 241.478 180.039 241.624C180.128 241.77 180.242 241.866 180.383 241.913C180.523 241.96 180.674 241.983 180.836 241.983C180.956 241.983 181.081 241.973 181.211 241.952C181.346 241.926 181.448 241.905 181.516 241.89L181.523 243.069C181.409 243.106 181.258 243.14 181.07 243.171C180.888 243.207 180.667 243.226 180.406 243.226C180.052 243.226 179.727 243.155 179.43 243.015C179.133 242.874 178.896 242.64 178.719 242.312C178.547 241.978 178.461 241.53 178.461 240.968V232.562ZM182.641 238.937V238.757C182.641 238.147 182.729 237.582 182.906 237.062C183.083 236.535 183.339 236.08 183.672 235.694C184.005 235.304 184.409 235.002 184.883 234.788C185.357 234.569 185.888 234.46 186.477 234.46C187.07 234.46 187.604 234.569 188.078 234.788C188.557 235.002 188.964 235.304 189.297 235.694C189.635 236.08 189.893 236.535 190.07 237.062C190.247 237.582 190.336 238.147 190.336 238.757V238.937C190.336 239.546 190.247 240.111 190.07 240.632C189.893 241.153 189.635 241.608 189.297 241.999C188.964 242.384 188.56 242.687 188.086 242.905C187.617 243.119 187.086 243.226 186.492 243.226C185.898 243.226 185.365 243.119 184.891 242.905C184.417 242.687 184.01 242.384 183.672 241.999C183.339 241.608 183.083 241.153 182.906 240.632C182.729 240.111 182.641 239.546 182.641 238.937ZM184.086 238.757V238.937C184.086 239.358 184.135 239.757 184.234 240.132C184.333 240.502 184.482 240.83 184.68 241.116C184.883 241.403 185.135 241.629 185.438 241.796C185.74 241.957 186.091 242.038 186.492 242.038C186.888 242.038 187.234 241.957 187.531 241.796C187.833 241.629 188.083 241.403 188.281 241.116C188.479 240.83 188.628 240.502 188.727 240.132C188.831 239.757 188.883 239.358 188.883 238.937V238.757C188.883 238.34 188.831 237.947 188.727 237.577C188.628 237.202 188.477 236.871 188.273 236.585C188.076 236.293 187.826 236.064 187.523 235.897C187.227 235.731 186.878 235.647 186.477 235.647C186.081 235.647 185.732 235.731 185.43 235.897C185.133 236.064 184.883 236.293 184.68 236.585C184.482 236.871 184.333 237.202 184.234 237.577C184.135 237.947 184.086 238.34 184.086 238.757ZM193.594 235.944V243.069H192.148V234.616H193.555L193.594 235.944ZM196.234 234.569L196.227 235.913C196.107 235.887 195.992 235.871 195.883 235.866C195.779 235.856 195.659 235.851 195.523 235.851C195.19 235.851 194.896 235.903 194.641 236.007C194.385 236.111 194.169 236.257 193.992 236.444C193.815 236.632 193.674 236.856 193.57 237.116C193.471 237.371 193.406 237.653 193.375 237.96L192.969 238.194C192.969 237.684 193.018 237.205 193.117 236.757C193.221 236.309 193.38 235.913 193.594 235.569C193.807 235.22 194.078 234.95 194.406 234.757C194.74 234.559 195.135 234.46 195.594 234.46C195.698 234.46 195.818 234.473 195.953 234.499C196.089 234.52 196.182 234.543 196.234 234.569ZM202.492 240.827C202.492 240.619 202.445 240.426 202.352 240.249C202.263 240.067 202.078 239.903 201.797 239.757C201.521 239.606 201.104 239.476 200.547 239.366C200.078 239.267 199.654 239.15 199.273 239.015C198.898 238.879 198.578 238.715 198.312 238.522C198.052 238.33 197.852 238.103 197.711 237.843C197.57 237.582 197.5 237.278 197.5 236.929C197.5 236.595 197.573 236.28 197.719 235.983C197.87 235.687 198.081 235.424 198.352 235.194C198.628 234.965 198.958 234.785 199.344 234.655C199.729 234.525 200.159 234.46 200.633 234.46C201.31 234.46 201.888 234.58 202.367 234.819C202.846 235.059 203.214 235.379 203.469 235.78C203.724 236.176 203.852 236.616 203.852 237.101H202.406C202.406 236.866 202.336 236.64 202.195 236.421C202.06 236.197 201.859 236.012 201.594 235.866C201.333 235.72 201.013 235.647 200.633 235.647C200.232 235.647 199.906 235.71 199.656 235.835C199.411 235.955 199.232 236.108 199.117 236.296C199.008 236.483 198.953 236.681 198.953 236.89C198.953 237.046 198.979 237.187 199.031 237.312C199.089 237.431 199.188 237.543 199.328 237.647C199.469 237.746 199.667 237.84 199.922 237.929C200.177 238.017 200.503 238.106 200.898 238.194C201.591 238.351 202.161 238.538 202.609 238.757C203.057 238.976 203.391 239.244 203.609 239.562C203.828 239.879 203.938 240.265 203.938 240.718C203.938 241.088 203.859 241.426 203.703 241.733C203.552 242.041 203.331 242.306 203.039 242.53C202.753 242.749 202.409 242.921 202.008 243.046C201.612 243.166 201.167 243.226 200.672 243.226C199.927 243.226 199.297 243.093 198.781 242.827C198.266 242.562 197.875 242.218 197.609 241.796C197.344 241.374 197.211 240.929 197.211 240.46H198.664C198.685 240.856 198.799 241.171 199.008 241.405C199.216 241.634 199.471 241.799 199.773 241.897C200.076 241.991 200.375 242.038 200.672 242.038C201.068 242.038 201.398 241.986 201.664 241.882C201.935 241.778 202.141 241.634 202.281 241.452C202.422 241.27 202.492 241.062 202.492 240.827ZM205.859 242.304C205.859 242.059 205.935 241.853 206.086 241.687C206.242 241.515 206.466 241.429 206.758 241.429C207.049 241.429 207.271 241.515 207.422 241.687C207.578 241.853 207.656 242.059 207.656 242.304C207.656 242.543 207.578 242.746 207.422 242.913C207.271 243.08 207.049 243.163 206.758 243.163C206.466 243.163 206.242 243.08 206.086 242.913C205.935 242.746 205.859 242.543 205.859 242.304Z" fill="#666362"/>
</svg>
