<svg width="1192" height="376" viewBox="0 0 1192 376" fill="none" xmlns="http://www.w3.org/2000/svg">
<g clip-path="url(#clip0_10639_6570)">
<rect x="-80" width="326" height="376" rx="20" fill="#F9F9F9"/>
<path d="M43.8574 88.2871C41.9434 88.2871 40.2982 87.8724 38.9219 87.043C37.5456 86.2044 36.4883 85.0469 35.75 83.5703C35.0117 82.0846 34.6426 80.3665 34.6426 78.416V77.8828C34.6426 75.8867 35.0072 74.1367 35.7363 72.6328C36.4746 71.1198 37.5046 69.9395 38.8262 69.0918C40.1478 68.235 41.6882 67.8066 43.4473 67.8066C44.9238 67.8066 46.2546 67.998 47.4395 68.3809C48.6243 68.7546 49.6452 69.2923 50.502 69.9941V74.2461H47.8633L47.4258 71.4844C47.0247 71.1836 46.5143 70.9466 45.8945 70.7734C45.2747 70.6003 44.5547 70.5137 43.7344 70.5137C42.6133 70.5137 41.6243 70.8236 40.7676 71.4434C39.9199 72.054 39.2591 72.9108 38.7852 74.0137C38.3203 75.1074 38.0879 76.388 38.0879 77.8555V78.416C38.0879 79.8652 38.3112 81.1276 38.7578 82.2031C39.2135 83.2786 39.8743 84.1126 40.7402 84.7051C41.6152 85.2975 42.6771 85.5938 43.9258 85.5938C44.7188 85.5938 45.416 85.5208 46.0176 85.375C46.6283 85.2292 47.1478 85.0469 47.5762 84.8281V80.9043L44.3223 80.7129V78.2656H51.0215V86.168C50.265 86.7604 49.2988 87.2617 48.123 87.6719C46.9564 88.082 45.5345 88.2871 43.8574 88.2871ZM53.5098 88V85.8945L55.5605 85.4844V75.7363L53.4004 75.3262V73.207H58.7324L58.9102 75.0664L58.9375 75.3672C59.3294 74.5833 59.8079 73.9818 60.373 73.5625C60.9473 73.1432 61.6172 72.9336 62.3828 72.9336C62.638 72.9336 62.9069 72.9564 63.1895 73.002C63.4811 73.0475 63.7181 73.0977 63.9004 73.1523L63.5039 76.3379L61.5762 76.2285C60.9473 76.1921 60.4277 76.3151 60.0176 76.5977C59.6165 76.8802 59.2793 77.2721 59.0059 77.7734V85.4844L61.0566 85.8945V88H53.5098ZM71.9258 88.2871C70.5039 88.2871 69.2826 87.9681 68.2617 87.3301C67.2409 86.6921 66.457 85.8079 65.9102 84.6777C65.3633 83.5384 65.0898 82.2305 65.0898 80.7539V80.4668C65.0898 78.9993 65.3633 77.7005 65.9102 76.5703C66.457 75.4401 67.2409 74.5514 68.2617 73.9043C69.2826 73.2572 70.4948 72.9336 71.8984 72.9336C73.3203 72.9336 74.5417 73.2572 75.5625 73.9043C76.5833 74.5423 77.3672 75.4264 77.9141 76.5566C78.4609 77.6868 78.7344 78.9902 78.7344 80.4668V80.7539C78.7344 82.2305 78.4609 83.5384 77.9141 84.6777C77.3672 85.8079 76.5833 86.6921 75.5625 87.3301C74.5508 87.9681 73.3385 88.2871 71.9258 88.2871ZM71.9258 85.6348C72.6914 85.6348 73.3203 85.4297 73.8125 85.0195C74.3138 84.6003 74.6875 84.026 74.9336 83.2969C75.1797 82.5586 75.3027 81.7109 75.3027 80.7539V80.4668C75.3027 79.5189 75.1797 78.6803 74.9336 77.9512C74.6875 77.222 74.3138 76.6478 73.8125 76.2285C73.3112 75.8092 72.6732 75.5996 71.8984 75.5996C71.1419 75.5996 70.513 75.8092 70.0117 76.2285C69.5104 76.6478 69.1367 77.222 68.8906 77.9512C68.6536 78.6803 68.5352 79.5189 68.5352 80.4668V80.7539C68.5352 81.7109 68.6536 82.5586 68.8906 83.2969C69.1367 84.026 69.5104 84.6003 70.0117 85.0195C70.5221 85.4297 71.1602 85.6348 71.9258 85.6348ZM85.1875 88L81.5508 75.5996L79.8145 75.3262V73.207H86.5273V75.3262L84.8594 75.627L86.5137 82.0527L86.8555 83.4473H86.9375L87.416 82.0527L90.5195 73.207H93.0215L96.0156 82.1074L96.5215 83.6797H96.6035L97.082 82.1074L98.873 75.627L97.0957 75.3262V73.207H103.672V75.3262L101.977 75.6133L98.1895 88H95.168L92.3379 80.0156L91.7637 78.0742H91.6816L91.1074 80.0156L88.209 88H85.1875ZM110.768 88.2598C109.51 88.2598 108.53 87.9089 107.828 87.207C107.126 86.4961 106.775 85.3659 106.775 83.8164V75.668H104.615V73.207H106.775V69.6113H110.207V73.207H113.133V75.668H110.207V83.8164C110.207 84.4453 110.335 84.9056 110.59 85.1973C110.854 85.4798 111.21 85.6211 111.656 85.6211C111.911 85.6211 112.194 85.5983 112.504 85.5527C112.823 85.5072 113.078 85.4616 113.27 85.416L113.625 87.8359C113.224 87.9544 112.764 88.0547 112.244 88.1367C111.734 88.2188 111.242 88.2598 110.768 88.2598ZM114.965 88V85.8945L117.016 85.4844V69.2012L114.842 68.791V66.6719H120.447V75.1211C120.93 74.4284 121.527 73.8906 122.238 73.5078C122.949 73.125 123.751 72.9336 124.645 72.9336C126.167 72.9336 127.361 73.4212 128.227 74.3965C129.102 75.3626 129.539 76.8574 129.539 78.8809V85.4844L131.59 85.8945V88H124.166V85.8945L126.107 85.4844V78.8535C126.107 77.7233 125.88 76.9076 125.424 76.4062C124.968 75.9049 124.298 75.6543 123.414 75.6543C122.785 75.6543 122.215 75.7956 121.705 76.0781C121.204 76.3516 120.785 76.7389 120.447 77.2402V85.4844L122.389 85.8945V88H114.965Z" fill="#101010"/>
<path d="M-56 236C-56 227.163 -48.8366 220 -40 220H206C214.837 220 222 227.163 222 236V376H-56V236Z" fill="#164F38"/>
<path d="M94.6667 286.333L69 312" stroke="#C0B561" stroke-width="1.5" stroke-linecap="round"/>
<path d="M80.668 284.307C80.668 284.307 93.8128 283.199 95.8078 285.194C97.8026 287.188 96.6942 300.333 96.6942 300.333" stroke="#C0B561" stroke-width="1.5" stroke-linecap="round" stroke-linejoin="round"/>
<rect x="262" width="326" height="376" rx="20" fill="#F9F9F9"/>
<path d="M353.113 88V85.8945L355.287 85.4844V70.623L353.113 70.2129V68.0938H360.893V70.2129L358.732 70.623V85.4844L360.893 85.8945V88H353.113ZM362.643 88V85.8945L364.693 85.4844V75.7363L362.533 75.3262V73.207H367.865L368.043 75.3535C368.535 74.5879 369.146 73.9954 369.875 73.5762C370.613 73.1478 371.447 72.9336 372.377 72.9336C373.899 72.9336 375.084 73.403 375.932 74.3418C376.779 75.2715 377.203 76.7298 377.203 78.7168V85.4844L379.254 85.8945V88H371.83V85.8945L373.758 85.4844V78.7441C373.758 77.623 373.535 76.8301 373.088 76.3652C372.641 75.8913 371.976 75.6543 371.092 75.6543C370.426 75.6543 369.843 75.8047 369.342 76.1055C368.85 76.3971 368.449 76.8073 368.139 77.3359V85.4844L370.012 85.8945V88H362.643ZM380.717 88V85.8945L382.768 85.4844V75.7363L380.607 75.3262V73.207H385.939L386.117 75.3535C386.609 74.5879 387.22 73.9954 387.949 73.5762C388.688 73.1478 389.521 72.9336 390.451 72.9336C391.973 72.9336 393.158 73.403 394.006 74.3418C394.854 75.2715 395.277 76.7298 395.277 78.7168V85.4844L397.328 85.8945V88H389.904V85.8945L391.832 85.4844V78.7441C391.832 77.623 391.609 76.8301 391.162 76.3652C390.715 75.8913 390.05 75.6543 389.166 75.6543C388.501 75.6543 387.917 75.8047 387.416 76.1055C386.924 76.3971 386.523 76.8073 386.213 77.3359V85.4844L388.086 85.8945V88H380.717ZM405.586 88.2871C404.164 88.2871 402.943 87.9681 401.922 87.3301C400.901 86.6921 400.117 85.8079 399.57 84.6777C399.023 83.5384 398.75 82.2305 398.75 80.7539V80.4668C398.75 78.9993 399.023 77.7005 399.57 76.5703C400.117 75.4401 400.901 74.5514 401.922 73.9043C402.943 73.2572 404.155 72.9336 405.559 72.9336C406.98 72.9336 408.202 73.2572 409.223 73.9043C410.243 74.5423 411.027 75.4264 411.574 76.5566C412.121 77.6868 412.395 78.9902 412.395 80.4668V80.7539C412.395 82.2305 412.121 83.5384 411.574 84.6777C411.027 85.8079 410.243 86.6921 409.223 87.3301C408.211 87.9681 406.999 88.2871 405.586 88.2871ZM405.586 85.6348C406.352 85.6348 406.98 85.4297 407.473 85.0195C407.974 84.6003 408.348 84.026 408.594 83.2969C408.84 82.5586 408.963 81.7109 408.963 80.7539V80.4668C408.963 79.5189 408.84 78.6803 408.594 77.9512C408.348 77.222 407.974 76.6478 407.473 76.2285C406.971 75.8092 406.333 75.5996 405.559 75.5996C404.802 75.5996 404.173 75.8092 403.672 76.2285C403.171 76.6478 402.797 77.222 402.551 77.9512C402.314 78.6803 402.195 79.5189 402.195 80.4668V80.7539C402.195 81.7109 402.314 82.5586 402.551 83.2969C402.797 84.026 403.171 84.6003 403.672 85.0195C404.182 85.4297 404.82 85.6348 405.586 85.6348ZM419.613 88L414.814 75.5586L413.242 75.3262V73.207H420.01V75.3262L418.301 75.5996L420.967 83.0234L421.322 84.1992H421.404L421.814 83.0234L424.508 75.5996L422.635 75.3262V73.207H429.389V75.3262L427.775 75.5723L422.963 88H419.613ZM435.322 88.2871C433.818 88.2871 432.647 87.8997 431.809 87.125C430.97 86.3503 430.551 85.2839 430.551 83.9258C430.551 82.5312 431.12 81.401 432.26 80.5352C433.399 79.6693 435.026 79.2363 437.141 79.2363H439.396V77.9922C439.396 77.2083 439.16 76.584 438.686 76.1191C438.221 75.6543 437.542 75.4219 436.648 75.4219C436.138 75.4219 435.687 75.4857 435.295 75.6133C434.903 75.7318 434.552 75.9049 434.242 76.1328L433.928 78.1289H431.398L431.371 74.4785C432.1 74.0046 432.911 73.6309 433.805 73.3574C434.698 73.0749 435.691 72.9336 436.785 72.9336C438.663 72.9336 440.139 73.3757 441.215 74.2598C442.299 75.1348 442.842 76.3926 442.842 78.0332V84.5547C442.842 84.7552 442.842 84.9512 442.842 85.1426C442.851 85.334 442.865 85.5208 442.883 85.7031L444.387 85.8945V88H439.889C439.798 87.681 439.711 87.3711 439.629 87.0703C439.556 86.7695 439.501 86.4688 439.465 86.168C438.973 86.7878 438.376 87.2982 437.674 87.6992C436.981 88.0911 436.197 88.2871 435.322 88.2871ZM436.102 85.6211C436.794 85.6211 437.441 85.4616 438.043 85.1426C438.645 84.8145 439.096 84.4043 439.396 83.9121V81.4375H437.1C436.07 81.4375 435.29 81.679 434.762 82.1621C434.242 82.6361 433.982 83.1921 433.982 83.8301C433.982 84.4043 434.165 84.8464 434.529 85.1562C434.894 85.4661 435.418 85.6211 436.102 85.6211ZM451.373 88.2598C450.115 88.2598 449.135 87.9089 448.434 87.207C447.732 86.4961 447.381 85.3659 447.381 83.8164V75.668H445.221V73.207H447.381V69.6113H450.812V73.207H453.738V75.668H450.812V83.8164C450.812 84.4453 450.94 84.9056 451.195 85.1973C451.46 85.4798 451.815 85.6211 452.262 85.6211C452.517 85.6211 452.799 85.5983 453.109 85.5527C453.428 85.5072 453.684 85.4616 453.875 85.416L454.23 87.8359C453.829 87.9544 453.369 88.0547 452.85 88.1367C452.339 88.2188 451.847 88.2598 451.373 88.2598ZM455.926 88V85.8945L457.977 85.4844V75.7363L455.803 75.3262V73.207H461.422V85.4844L463.459 85.8945V88H455.926ZM457.84 69.8574V66.6719H461.422V69.8574H457.84ZM471.922 88.2871C470.5 88.2871 469.279 87.9681 468.258 87.3301C467.237 86.6921 466.453 85.8079 465.906 84.6777C465.359 83.5384 465.086 82.2305 465.086 80.7539V80.4668C465.086 78.9993 465.359 77.7005 465.906 76.5703C466.453 75.4401 467.237 74.5514 468.258 73.9043C469.279 73.2572 470.491 72.9336 471.895 72.9336C473.316 72.9336 474.538 73.2572 475.559 73.9043C476.579 74.5423 477.363 75.4264 477.91 76.5566C478.457 77.6868 478.73 78.9902 478.73 80.4668V80.7539C478.73 82.2305 478.457 83.5384 477.91 84.6777C477.363 85.8079 476.579 86.6921 475.559 87.3301C474.547 87.9681 473.335 88.2871 471.922 88.2871ZM471.922 85.6348C472.688 85.6348 473.316 85.4297 473.809 85.0195C474.31 84.6003 474.684 84.026 474.93 83.2969C475.176 82.5586 475.299 81.7109 475.299 80.7539V80.4668C475.299 79.5189 475.176 78.6803 474.93 77.9512C474.684 77.222 474.31 76.6478 473.809 76.2285C473.307 75.8092 472.669 75.5996 471.895 75.5996C471.138 75.5996 470.509 75.8092 470.008 76.2285C469.507 76.6478 469.133 77.222 468.887 77.9512C468.65 78.6803 468.531 79.5189 468.531 80.4668V80.7539C468.531 81.7109 468.65 82.5586 468.887 83.2969C469.133 84.026 469.507 84.6003 470.008 85.0195C470.518 85.4297 471.156 85.6348 471.922 85.6348ZM480.549 88V85.8945L482.6 85.4844V75.7363L480.439 75.3262V73.207H485.771L485.949 75.3535C486.441 74.5879 487.052 73.9954 487.781 73.5762C488.52 73.1478 489.354 72.9336 490.283 72.9336C491.805 72.9336 492.99 73.403 493.838 74.3418C494.686 75.2715 495.109 76.7298 495.109 78.7168V85.4844L497.16 85.8945V88H489.736V85.8945L491.664 85.4844V78.7441C491.664 77.623 491.441 76.8301 490.994 76.3652C490.548 75.8913 489.882 75.6543 488.998 75.6543C488.333 75.6543 487.749 75.8047 487.248 76.1055C486.756 76.3971 486.355 76.8073 486.045 77.3359V85.4844L487.918 85.8945V88H480.549Z" fill="#101010"/>
<path d="M286 236C286 227.163 293.163 220 302 220H548C556.837 220 564 227.163 564 236V376H286V236Z" fill="#164F38"/>
<path d="M425 312V299.75M425 299.75C426.209 299.75 427.381 299.597 428.5 299.309M425 299.75C423.791 299.75 422.619 299.597 421.5 299.309M430.25 316.759C428.549 317.081 426.794 317.25 425 317.25C423.206 317.25 421.451 317.081 419.75 316.759M428.5 322.318C427.35 322.438 426.182 322.5 425 322.5C423.818 322.5 422.65 322.438 421.5 322.318M430.25 312V311.553C430.25 309.259 431.786 307.298 433.77 306.147C438.99 303.119 442.5 297.469 442.5 291C442.5 281.335 434.665 273.5 425 273.5C415.335 273.5 407.5 281.335 407.5 291C407.5 297.469 411.01 303.119 416.23 306.147C418.214 307.298 419.75 309.259 419.75 311.553V312" stroke="#C0B561" stroke-width="1.5" stroke-linecap="round" stroke-linejoin="round"/>
<rect x="604" width="326" height="376" rx="20" fill="#F9F9F9"/>
<path d="M687.84 88.2871C685.88 88.2871 684.203 87.8724 682.809 87.043C681.423 86.2044 680.361 85.0378 679.623 83.543C678.894 82.0391 678.529 80.2936 678.529 78.3066V77.8008C678.529 75.8594 678.894 74.1413 679.623 72.6465C680.352 71.1426 681.396 69.9622 682.754 69.1055C684.112 68.2396 685.734 67.8066 687.621 67.8066C688.943 67.8066 690.169 68.0026 691.299 68.3945C692.429 68.7865 693.413 69.3379 694.252 70.0488V74.6426H691.627L691.271 71.5664C690.971 71.3477 690.638 71.1608 690.273 71.0059C689.909 70.8509 689.508 70.7324 689.07 70.6504C688.642 70.5684 688.173 70.5273 687.662 70.5273C686.468 70.5273 685.443 70.8281 684.586 71.4297C683.738 72.0312 683.091 72.8743 682.645 73.959C682.198 75.0436 681.975 76.3151 681.975 77.7734V78.3066C681.975 79.8197 682.212 81.123 682.686 82.2168C683.16 83.3014 683.839 84.1354 684.723 84.7188C685.616 85.3021 686.682 85.5938 687.922 85.5938C688.523 85.5938 689.116 85.5254 689.699 85.3887C690.292 85.2428 690.811 85.056 691.258 84.8281L691.627 82.0391H694.225V86.6055C693.459 87.1068 692.52 87.5124 691.408 87.8223C690.305 88.1322 689.116 88.2871 687.84 88.2871ZM703.357 88.2871C701.936 88.2871 700.714 87.9681 699.693 87.3301C698.673 86.6921 697.889 85.8079 697.342 84.6777C696.795 83.5384 696.521 82.2305 696.521 80.7539V80.4668C696.521 78.9993 696.795 77.7005 697.342 76.5703C697.889 75.4401 698.673 74.5514 699.693 73.9043C700.714 73.2572 701.926 72.9336 703.33 72.9336C704.752 72.9336 705.973 73.2572 706.994 73.9043C708.015 74.5423 708.799 75.4264 709.346 76.5566C709.893 77.6868 710.166 78.9902 710.166 80.4668V80.7539C710.166 82.2305 709.893 83.5384 709.346 84.6777C708.799 85.8079 708.015 86.6921 706.994 87.3301C705.982 87.9681 704.77 88.2871 703.357 88.2871ZM703.357 85.6348C704.123 85.6348 704.752 85.4297 705.244 85.0195C705.745 84.6003 706.119 84.026 706.365 83.2969C706.611 82.5586 706.734 81.7109 706.734 80.7539V80.4668C706.734 79.5189 706.611 78.6803 706.365 77.9512C706.119 77.222 705.745 76.6478 705.244 76.2285C704.743 75.8092 704.105 75.5996 703.33 75.5996C702.574 75.5996 701.945 75.8092 701.443 76.2285C700.942 76.6478 700.568 77.222 700.322 77.9512C700.085 78.6803 699.967 79.5189 699.967 80.4668V80.7539C699.967 81.7109 700.085 82.5586 700.322 83.2969C700.568 84.026 700.942 84.6003 701.443 85.0195C701.954 85.4297 702.592 85.6348 703.357 85.6348ZM711.615 88V85.8945L713.68 85.4844V69.2012L711.492 68.791V66.6719H717.111V85.4844L719.176 85.8945V88H711.615ZM720.557 88V85.8945L722.621 85.4844V69.2012L720.434 68.791V66.6719H726.053V85.4844L728.117 85.8945V88H720.557ZM734.57 88.2871C733.066 88.2871 731.895 87.8997 731.057 87.125C730.218 86.3503 729.799 85.2839 729.799 83.9258C729.799 82.5312 730.368 81.401 731.508 80.5352C732.647 79.6693 734.274 79.2363 736.389 79.2363H738.645V77.9922C738.645 77.2083 738.408 76.584 737.934 76.1191C737.469 75.6543 736.79 75.4219 735.896 75.4219C735.386 75.4219 734.935 75.4857 734.543 75.6133C734.151 75.7318 733.8 75.9049 733.49 76.1328L733.176 78.1289H730.646L730.619 74.4785C731.348 74.0046 732.16 73.6309 733.053 73.3574C733.946 73.0749 734.939 72.9336 736.033 72.9336C737.911 72.9336 739.387 73.3757 740.463 74.2598C741.548 75.1348 742.09 76.3926 742.09 78.0332V84.5547C742.09 84.7552 742.09 84.9512 742.09 85.1426C742.099 85.334 742.113 85.5208 742.131 85.7031L743.635 85.8945V88H739.137C739.046 87.681 738.959 87.3711 738.877 87.0703C738.804 86.7695 738.749 86.4688 738.713 86.168C738.221 86.7878 737.624 87.2982 736.922 87.6992C736.229 88.0911 735.445 88.2871 734.57 88.2871ZM735.35 85.6211C736.042 85.6211 736.689 85.4616 737.291 85.1426C737.893 84.8145 738.344 84.4043 738.645 83.9121V81.4375H736.348C735.318 81.4375 734.538 81.679 734.01 82.1621C733.49 82.6361 733.23 83.1921 733.23 83.8301C733.23 84.4043 733.413 84.8464 733.777 85.1562C734.142 85.4661 734.666 85.6211 735.35 85.6211ZM753.643 88.2871C752.713 88.2871 751.911 88.1048 751.236 87.7402C750.562 87.3757 749.997 86.847 749.541 86.1543L749.268 88H746.301V69.2012L744.127 68.791V66.6719H749.732V74.8613C750.179 74.2324 750.726 73.7539 751.373 73.4258C752.029 73.0977 752.79 72.9336 753.656 72.9336C754.868 72.9336 755.894 73.2617 756.732 73.918C757.58 74.5651 758.227 75.4766 758.674 76.6523C759.12 77.8281 759.344 79.209 759.344 80.7949V81.082C759.344 82.5221 759.12 83.7845 758.674 84.8691C758.227 85.9538 757.58 86.7969 756.732 87.3984C755.885 87.9909 754.855 88.2871 753.643 88.2871ZM752.658 85.5664C753.788 85.5664 754.609 85.1699 755.119 84.377C755.639 83.5749 755.898 82.4766 755.898 81.082V80.7949C755.898 79.7559 755.785 78.8535 755.557 78.0879C755.329 77.3132 754.978 76.7161 754.504 76.2969C754.03 75.8685 753.419 75.6543 752.672 75.6543C751.979 75.6543 751.387 75.8229 750.895 76.1602C750.411 76.4883 750.024 76.9349 749.732 77.5V83.8164C750.033 84.3724 750.425 84.8053 750.908 85.1152C751.4 85.416 751.984 85.5664 752.658 85.5664ZM768.49 88.2871C767.068 88.2871 765.847 87.9681 764.826 87.3301C763.805 86.6921 763.021 85.8079 762.475 84.6777C761.928 83.5384 761.654 82.2305 761.654 80.7539V80.4668C761.654 78.9993 761.928 77.7005 762.475 76.5703C763.021 75.4401 763.805 74.5514 764.826 73.9043C765.847 73.2572 767.059 72.9336 768.463 72.9336C769.885 72.9336 771.106 73.2572 772.127 73.9043C773.148 74.5423 773.932 75.4264 774.479 76.5566C775.025 77.6868 775.299 78.9902 775.299 80.4668V80.7539C775.299 82.2305 775.025 83.5384 774.479 84.6777C773.932 85.8079 773.148 86.6921 772.127 87.3301C771.115 87.9681 769.903 88.2871 768.49 88.2871ZM768.49 85.6348C769.256 85.6348 769.885 85.4297 770.377 85.0195C770.878 84.6003 771.252 84.026 771.498 83.2969C771.744 82.5586 771.867 81.7109 771.867 80.7539V80.4668C771.867 79.5189 771.744 78.6803 771.498 77.9512C771.252 77.222 770.878 76.6478 770.377 76.2285C769.876 75.8092 769.238 75.5996 768.463 75.5996C767.706 75.5996 767.077 75.8092 766.576 76.2285C766.075 76.6478 765.701 77.222 765.455 77.9512C765.218 78.6803 765.1 79.5189 765.1 80.4668V80.7539C765.1 81.7109 765.218 82.5586 765.455 83.2969C765.701 84.026 766.075 84.6003 766.576 85.0195C767.087 85.4297 767.725 85.6348 768.49 85.6348ZM777.363 88V85.8945L779.414 85.4844V75.7363L777.254 75.3262V73.207H782.586L782.764 75.0664L782.791 75.3672C783.183 74.5833 783.661 73.9818 784.227 73.5625C784.801 73.1432 785.471 72.9336 786.236 72.9336C786.492 72.9336 786.76 72.9564 787.043 73.002C787.335 73.0475 787.572 73.0977 787.754 73.1523L787.357 76.3379L785.43 76.2285C784.801 76.1921 784.281 76.3151 783.871 76.5977C783.47 76.8802 783.133 77.2721 782.859 77.7734V85.4844L784.91 85.8945V88H777.363ZM793.879 88.2871C792.375 88.2871 791.204 87.8997 790.365 87.125C789.527 86.3503 789.107 85.2839 789.107 83.9258C789.107 82.5312 789.677 81.401 790.816 80.5352C791.956 79.6693 793.583 79.2363 795.697 79.2363H797.953V77.9922C797.953 77.2083 797.716 76.584 797.242 76.1191C796.777 75.6543 796.098 75.4219 795.205 75.4219C794.695 75.4219 794.243 75.4857 793.852 75.6133C793.46 75.7318 793.109 75.9049 792.799 76.1328L792.484 78.1289H789.955L789.928 74.4785C790.657 74.0046 791.468 73.6309 792.361 73.3574C793.255 73.0749 794.248 72.9336 795.342 72.9336C797.219 72.9336 798.696 73.3757 799.771 74.2598C800.856 75.1348 801.398 76.3926 801.398 78.0332V84.5547C801.398 84.7552 801.398 84.9512 801.398 85.1426C801.408 85.334 801.421 85.5208 801.439 85.7031L802.943 85.8945V88H798.445C798.354 87.681 798.268 87.3711 798.186 87.0703C798.113 86.7695 798.058 86.4688 798.021 86.168C797.529 86.7878 796.932 87.2982 796.23 87.6992C795.538 88.0911 794.754 88.2871 793.879 88.2871ZM794.658 85.6211C795.351 85.6211 795.998 85.4616 796.6 85.1426C797.201 84.8145 797.652 84.4043 797.953 83.9121V81.4375H795.656C794.626 81.4375 793.847 81.679 793.318 82.1621C792.799 82.6361 792.539 83.1921 792.539 83.8301C792.539 84.4043 792.721 84.8464 793.086 85.1562C793.451 85.4661 793.975 85.6211 794.658 85.6211ZM809.93 88.2598C808.672 88.2598 807.692 87.9089 806.99 87.207C806.288 86.4961 805.938 85.3659 805.938 83.8164V75.668H803.777V73.207H805.938V69.6113H809.369V73.207H812.295V75.668H809.369V83.8164C809.369 84.4453 809.497 84.9056 809.752 85.1973C810.016 85.4798 810.372 85.6211 810.818 85.6211C811.074 85.6211 811.356 85.5983 811.666 85.5527C811.985 85.5072 812.24 85.4616 812.432 85.416L812.787 87.8359C812.386 87.9544 811.926 88.0547 811.406 88.1367C810.896 88.2188 810.404 88.2598 809.93 88.2598ZM814.482 88V85.8945L816.533 85.4844V75.7363L814.359 75.3262V73.207H819.979V85.4844L822.016 85.8945V88H814.482ZM816.396 69.8574V66.6719H819.979V69.8574H816.396ZM830.479 88.2871C829.057 88.2871 827.835 87.9681 826.814 87.3301C825.794 86.6921 825.01 85.8079 824.463 84.6777C823.916 83.5384 823.643 82.2305 823.643 80.7539V80.4668C823.643 78.9993 823.916 77.7005 824.463 76.5703C825.01 75.4401 825.794 74.5514 826.814 73.9043C827.835 73.2572 829.048 72.9336 830.451 72.9336C831.873 72.9336 833.094 73.2572 834.115 73.9043C835.136 74.5423 835.92 75.4264 836.467 76.5566C837.014 77.6868 837.287 78.9902 837.287 80.4668V80.7539C837.287 82.2305 837.014 83.5384 836.467 84.6777C835.92 85.8079 835.136 86.6921 834.115 87.3301C833.104 87.9681 831.891 88.2871 830.479 88.2871ZM830.479 85.6348C831.244 85.6348 831.873 85.4297 832.365 85.0195C832.867 84.6003 833.24 84.026 833.486 83.2969C833.732 82.5586 833.855 81.7109 833.855 80.7539V80.4668C833.855 79.5189 833.732 78.6803 833.486 77.9512C833.24 77.222 832.867 76.6478 832.365 76.2285C831.864 75.8092 831.226 75.5996 830.451 75.5996C829.695 75.5996 829.066 75.8092 828.564 76.2285C828.063 76.6478 827.689 77.222 827.443 77.9512C827.206 78.6803 827.088 79.5189 827.088 80.4668V80.7539C827.088 81.7109 827.206 82.5586 827.443 83.2969C827.689 84.026 828.063 84.6003 828.564 85.0195C829.075 85.4297 829.713 85.6348 830.479 85.6348ZM839.105 88V85.8945L841.156 85.4844V75.7363L838.996 75.3262V73.207H844.328L844.506 75.3535C844.998 74.5879 845.609 73.9954 846.338 73.5762C847.076 73.1478 847.91 72.9336 848.84 72.9336C850.362 72.9336 851.547 73.403 852.395 74.3418C853.242 75.2715 853.666 76.7298 853.666 78.7168V85.4844L855.717 85.8945V88H848.293V85.8945L850.221 85.4844V78.7441C850.221 77.623 849.997 76.8301 849.551 76.3652C849.104 75.8913 848.439 75.6543 847.555 75.6543C846.889 75.6543 846.306 75.8047 845.805 76.1055C845.312 76.3971 844.911 76.8073 844.602 77.3359V85.4844L846.475 85.8945V88H839.105Z" fill="#101010"/>
<path d="M628 236C628 227.163 635.163 220 644 220H890C898.837 220 906 227.163 906 236V376H628V236Z" fill="#164F38"/>
<path d="M780.998 313.678C781.576 313.726 782.16 313.75 782.75 313.75C785.196 313.75 787.544 313.332 789.727 312.563C789.742 312.377 789.75 312.189 789.75 312C789.75 308.134 786.616 305 782.75 305C781.285 305 779.926 305.45 778.802 306.219M780.998 313.678C780.998 313.702 780.998 313.726 780.998 313.75C780.998 314.275 780.969 314.793 780.913 315.303C776.814 317.655 772.063 319 766.998 319C761.933 319 757.183 317.655 753.083 315.303C753.027 314.793 752.998 314.275 752.998 313.75C752.998 313.726 752.998 313.702 752.998 313.678M780.998 313.678C780.984 310.933 780.18 308.374 778.802 306.219M778.802 306.219C776.315 302.329 771.958 299.75 766.998 299.75C762.039 299.75 757.683 302.328 755.196 306.217M755.196 306.217C754.072 305.449 752.714 305 751.25 305C747.384 305 744.25 308.134 744.25 312C744.25 312.189 744.258 312.377 744.272 312.563C746.455 313.332 748.804 313.75 751.25 313.75C751.839 313.75 752.422 313.726 752.998 313.678M755.196 306.217C753.817 308.373 753.012 310.932 752.998 313.678M773.998 285.75C773.998 289.616 770.864 292.75 766.998 292.75C763.132 292.75 759.998 289.616 759.998 285.75C759.998 281.884 763.132 278.75 766.998 278.75C770.864 278.75 773.998 281.884 773.998 285.75ZM787.998 292.75C787.998 295.649 785.648 298 782.748 298C779.849 298 777.498 295.649 777.498 292.75C777.498 289.851 779.849 287.5 782.748 287.5C785.648 287.5 787.998 289.851 787.998 292.75ZM756.498 292.75C756.498 295.649 754.148 298 751.248 298C748.349 298 745.998 295.649 745.998 292.75C745.998 289.851 748.349 287.5 751.248 287.5C754.148 287.5 756.498 289.851 756.498 292.75Z" stroke="#C0B561" stroke-width="1.5" stroke-linecap="round" stroke-linejoin="round"/>
<rect x="946" width="326" height="376" rx="20" fill="#F9F9F9"/>
<path d="M1024.47 88.2871C1023.11 88.2871 1021.85 88.1185 1020.68 87.7812C1019.51 87.444 1018.38 86.8835 1017.28 86.0996V81.5195H1019.94L1020.38 84.4863C1020.86 84.8327 1021.45 85.1107 1022.16 85.3203C1022.87 85.5299 1023.64 85.6348 1024.47 85.6348C1025.28 85.6348 1025.96 85.5208 1026.5 85.293C1027.06 85.056 1027.48 84.7279 1027.78 84.3086C1028.07 83.8893 1028.21 83.3926 1028.21 82.8184C1028.21 82.2897 1028.09 81.8203 1027.83 81.4102C1027.57 81 1027.15 80.6354 1026.56 80.3164C1025.97 79.9883 1025.16 79.6875 1024.15 79.4141C1022.67 79.013 1021.42 78.5391 1020.42 77.9922C1019.43 77.4453 1018.67 76.7891 1018.16 76.0234C1017.66 75.2578 1017.41 74.3555 1017.41 73.3164C1017.41 72.25 1017.7 71.3066 1018.27 70.4863C1018.86 69.666 1019.66 69.0189 1020.69 68.5449C1021.72 68.071 1022.91 67.8294 1024.26 67.8203C1025.74 67.8021 1027.04 67.9935 1028.17 68.3945C1029.31 68.7956 1030.27 69.3197 1031.06 69.9668V74.2461H1028.45L1027.95 71.457C1027.58 71.1927 1027.09 70.9694 1026.49 70.7871C1025.9 70.5957 1025.2 70.5 1024.38 70.5C1023.69 70.5 1023.08 70.6139 1022.55 70.8418C1022.02 71.0697 1021.61 71.3932 1021.31 71.8125C1021.01 72.2227 1020.86 72.7148 1020.86 73.2891C1020.86 73.7904 1020.99 74.2279 1021.25 74.6016C1021.52 74.9753 1021.96 75.3171 1022.58 75.627C1023.2 75.9277 1024.04 76.2331 1025.1 76.543C1027.26 77.1172 1028.89 77.9102 1030 78.9219C1031.12 79.9336 1031.67 81.2233 1031.67 82.791C1031.67 83.8939 1031.37 84.86 1030.77 85.6895C1030.18 86.5098 1029.34 87.1478 1028.25 87.6035C1027.18 88.0592 1025.92 88.2871 1024.47 88.2871ZM1039.96 88.2871C1038.37 88.2871 1037.13 87.7858 1036.24 86.7832C1035.35 85.7715 1034.91 84.2038 1034.91 82.0801V75.7363L1033.24 75.3262V73.207H1034.91H1038.36V82.1074C1038.36 83.3835 1038.56 84.2812 1038.96 84.8008C1039.37 85.3112 1040 85.5664 1040.85 85.5664C1041.59 85.5664 1042.23 85.4206 1042.75 85.1289C1043.27 84.8281 1043.69 84.4043 1044 83.8574V75.7363L1042.14 75.3262V73.207H1044H1047.45V85.4844L1049.2 85.8945V88H1044.4L1044.17 85.9902C1043.7 86.7285 1043.11 87.2982 1042.39 87.6992C1041.68 88.0911 1040.87 88.2871 1039.96 88.2871ZM1057.03 88.2871C1055.98 88.2871 1054.99 88.1868 1054.07 87.9863C1053.15 87.7767 1052.24 87.4714 1051.32 87.0703L1051.28 83.1602H1053.75L1054.27 85.293C1054.66 85.4661 1055.06 85.6029 1055.47 85.7031C1055.89 85.7943 1056.36 85.8398 1056.87 85.8398C1057.85 85.8398 1058.55 85.6667 1058.95 85.3203C1059.36 84.974 1059.56 84.5456 1059.56 84.0352C1059.56 83.543 1059.35 83.1237 1058.92 82.7773C1058.5 82.4219 1057.69 82.1165 1056.5 81.8613C1054.73 81.4785 1053.43 80.9225 1052.59 80.1934C1051.76 79.4551 1051.35 78.498 1051.35 77.3223C1051.35 76.5111 1051.56 75.7773 1051.99 75.1211C1052.43 74.4648 1053.06 73.9408 1053.9 73.5488C1054.75 73.1478 1055.79 72.9473 1057.02 72.9473C1058.14 72.9473 1059.13 73.0658 1060 73.3027C1060.88 73.5306 1061.62 73.8359 1062.23 74.2188L1062.31 77.9785H1059.86L1059.44 76.0234C1059.16 75.8229 1058.83 75.668 1058.46 75.5586C1058.08 75.4492 1057.65 75.3945 1057.17 75.3945C1056.41 75.3945 1055.82 75.5632 1055.38 75.9004C1054.94 76.2285 1054.72 76.6432 1054.72 77.1445C1054.72 77.4362 1054.79 77.7005 1054.93 77.9375C1055.07 78.1745 1055.35 78.3932 1055.75 78.5938C1056.16 78.7852 1056.76 78.972 1057.54 79.1543C1059.46 79.6009 1060.84 80.1842 1061.67 80.9043C1062.5 81.6243 1062.91 82.5768 1062.91 83.7617C1062.91 85.0833 1062.43 86.168 1061.46 87.0156C1060.5 87.8633 1059.02 88.2871 1057.03 88.2871ZM1070.49 88.2598C1069.23 88.2598 1068.25 87.9089 1067.55 87.207C1066.85 86.4961 1066.49 85.3659 1066.49 83.8164V75.668H1064.33V73.207H1066.49V69.6113H1069.93V73.207H1072.85V75.668H1069.93V83.8164C1069.93 84.4453 1070.05 84.9056 1070.31 85.1973C1070.57 85.4798 1070.93 85.6211 1071.38 85.6211C1071.63 85.6211 1071.91 85.5983 1072.22 85.5527C1072.54 85.5072 1072.8 85.4616 1072.99 85.416L1073.34 87.8359C1072.94 87.9544 1072.48 88.0547 1071.96 88.1367C1071.45 88.2188 1070.96 88.2598 1070.49 88.2598ZM1079.84 88.2871C1078.33 88.2871 1077.16 87.8997 1076.32 87.125C1075.49 86.3503 1075.07 85.2839 1075.07 83.9258C1075.07 82.5312 1075.64 81.401 1076.78 80.5352C1077.91 79.6693 1079.54 79.2363 1081.66 79.2363H1083.91V77.9922C1083.91 77.2083 1083.68 76.584 1083.2 76.1191C1082.74 75.6543 1082.06 75.4219 1081.16 75.4219C1080.65 75.4219 1080.2 75.4857 1079.81 75.6133C1079.42 75.7318 1079.07 75.9049 1078.76 76.1328L1078.44 78.1289H1075.91L1075.89 74.4785C1076.62 74.0046 1077.43 73.6309 1078.32 73.3574C1079.21 73.0749 1080.21 72.9336 1081.3 72.9336C1083.18 72.9336 1084.65 73.3757 1085.73 74.2598C1086.82 75.1348 1087.36 76.3926 1087.36 78.0332V84.5547C1087.36 84.7552 1087.36 84.9512 1087.36 85.1426C1087.37 85.334 1087.38 85.5208 1087.4 85.7031L1088.9 85.8945V88H1084.4C1084.31 87.681 1084.23 87.3711 1084.14 87.0703C1084.07 86.7695 1084.02 86.4688 1083.98 86.168C1083.49 86.7878 1082.89 87.2982 1082.19 87.6992C1081.5 88.0911 1080.71 88.2871 1079.84 88.2871ZM1080.62 85.6211C1081.31 85.6211 1081.96 85.4616 1082.56 85.1426C1083.16 84.8145 1083.61 84.4043 1083.91 83.9121V81.4375H1081.62C1080.59 81.4375 1079.81 81.679 1079.28 82.1621C1078.76 82.6361 1078.5 83.1921 1078.5 83.8301C1078.5 84.4043 1078.68 84.8464 1079.04 85.1562C1079.41 85.4661 1079.93 85.6211 1080.62 85.6211ZM1090.49 88V85.8945L1092.54 85.4844V75.7363L1090.37 75.3262V73.207H1095.98V85.4844L1098.02 85.8945V88H1090.49ZM1092.4 69.8574V66.6719H1095.98V69.8574H1092.4ZM1099.5 88V85.8945L1101.55 85.4844V75.7363L1099.39 75.3262V73.207H1104.72L1104.9 75.3535C1105.39 74.5879 1106 73.9954 1106.73 73.5762C1107.47 73.1478 1108.3 72.9336 1109.23 72.9336C1110.75 72.9336 1111.94 73.403 1112.79 74.3418C1113.63 75.2715 1114.06 76.7298 1114.06 78.7168V85.4844L1116.11 85.8945V88H1108.69V85.8945L1110.61 85.4844V78.7441C1110.61 77.623 1110.39 76.8301 1109.94 76.3652C1109.5 75.8913 1108.83 75.6543 1107.95 75.6543C1107.28 75.6543 1106.7 75.8047 1106.2 76.1055C1105.71 76.3971 1105.3 76.8073 1104.99 77.3359V85.4844L1106.87 85.8945V88H1099.5ZM1122.55 88.2871C1121.04 88.2871 1119.87 87.8997 1119.04 87.125C1118.2 86.3503 1117.78 85.2839 1117.78 83.9258C1117.78 82.5312 1118.35 81.401 1119.49 80.5352C1120.63 79.6693 1122.25 79.2363 1124.37 79.2363H1126.62V77.9922C1126.62 77.2083 1126.39 76.584 1125.91 76.1191C1125.45 75.6543 1124.77 75.4219 1123.88 75.4219C1123.36 75.4219 1122.91 75.4857 1122.52 75.6133C1122.13 75.7318 1121.78 75.9049 1121.47 76.1328L1121.15 78.1289H1118.62L1118.6 74.4785C1119.33 74.0046 1120.14 73.6309 1121.03 73.3574C1121.92 73.0749 1122.92 72.9336 1124.01 72.9336C1125.89 72.9336 1127.37 73.3757 1128.44 74.2598C1129.53 75.1348 1130.07 76.3926 1130.07 78.0332V84.5547C1130.07 84.7552 1130.07 84.9512 1130.07 85.1426C1130.08 85.334 1130.09 85.5208 1130.11 85.7031L1131.61 85.8945V88H1127.12C1127.02 87.681 1126.94 87.3711 1126.86 87.0703C1126.78 86.7695 1126.73 86.4688 1126.69 86.168C1126.2 86.7878 1125.6 87.2982 1124.9 87.6992C1124.21 88.0911 1123.42 88.2871 1122.55 88.2871ZM1123.33 85.6211C1124.02 85.6211 1124.67 85.4616 1125.27 85.1426C1125.87 84.8145 1126.32 84.4043 1126.62 83.9121V81.4375H1124.33C1123.3 81.4375 1122.52 81.679 1121.99 82.1621C1121.47 82.6361 1121.21 83.1921 1121.21 83.8301C1121.21 84.4043 1121.39 84.8464 1121.76 85.1562C1122.12 85.4661 1122.64 85.6211 1123.33 85.6211ZM1141.62 88.2871C1140.69 88.2871 1139.89 88.1048 1139.21 87.7402C1138.54 87.3757 1137.98 86.847 1137.52 86.1543L1137.25 88H1134.28V69.2012L1132.11 68.791V66.6719H1137.71V74.8613C1138.16 74.2324 1138.7 73.7539 1139.35 73.4258C1140.01 73.0977 1140.77 72.9336 1141.63 72.9336C1142.85 72.9336 1143.87 73.2617 1144.71 73.918C1145.56 74.5651 1146.21 75.4766 1146.65 76.6523C1147.1 77.8281 1147.32 79.209 1147.32 80.7949V81.082C1147.32 82.5221 1147.1 83.7845 1146.65 84.8691C1146.21 85.9538 1145.56 86.7969 1144.71 87.3984C1143.86 87.9909 1142.83 88.2871 1141.62 88.2871ZM1140.64 85.5664C1141.77 85.5664 1142.59 85.1699 1143.1 84.377C1143.62 83.5749 1143.88 82.4766 1143.88 81.082V80.7949C1143.88 79.7559 1143.76 78.8535 1143.54 78.0879C1143.31 77.3132 1142.96 76.7161 1142.48 76.2969C1142.01 75.8685 1141.4 75.6543 1140.65 75.6543C1139.96 75.6543 1139.37 75.8229 1138.87 76.1602C1138.39 76.4883 1138 76.9349 1137.71 77.5V83.8164C1138.01 84.3724 1138.4 84.8053 1138.89 85.1152C1139.38 85.416 1139.96 85.5664 1140.64 85.5664ZM1148.98 88V85.8945L1151.03 85.4844V75.7363L1148.85 75.3262V73.207H1154.47V85.4844L1156.51 85.8945V88H1148.98ZM1150.89 69.8574V66.6719H1154.47V69.8574H1150.89ZM1157.89 88V85.8945L1159.96 85.4844V69.2012L1157.77 68.791V66.6719H1163.39V85.4844L1165.45 85.8945V88H1157.89ZM1166.91 88V85.8945L1168.96 85.4844V75.7363L1166.79 75.3262V73.207H1172.41V85.4844L1174.45 85.8945V88H1166.91ZM1168.83 69.8574V66.6719H1172.41V69.8574H1168.83ZM1181.58 88.2598C1180.33 88.2598 1179.35 87.9089 1178.64 87.207C1177.94 86.4961 1177.59 85.3659 1177.59 83.8164V75.668H1175.43V73.207H1177.59V69.6113H1181.02V73.207H1183.95V75.668H1181.02V83.8164C1181.02 84.4453 1181.15 84.9056 1181.41 85.1973C1181.67 85.4798 1182.03 85.6211 1182.47 85.6211C1182.73 85.6211 1183.01 85.5983 1183.32 85.5527C1183.64 85.5072 1183.89 85.4616 1184.09 85.416L1184.44 87.8359C1184.04 87.9544 1183.58 88.0547 1183.06 88.1367C1182.55 88.2188 1182.06 88.2598 1181.58 88.2598ZM1189.77 93.9746C1189.49 93.9746 1189.16 93.9473 1188.79 93.8926C1188.42 93.8379 1188.11 93.7695 1187.83 93.6875L1188.21 91.1035C1188.38 91.1309 1188.57 91.1536 1188.8 91.1719C1189.04 91.1901 1189.23 91.1992 1189.36 91.1992C1189.94 91.1992 1190.42 91.0169 1190.81 90.6523C1191.2 90.2969 1191.52 89.8001 1191.77 89.1621L1192.22 87.9727L1187.16 75.5723L1185.44 75.3262V73.207H1192.6V75.3262L1190.79 75.5996L1193.36 82.4902L1193.81 83.7754H1193.89L1196.92 75.5859L1195.11 75.3262V73.207H1201.9V75.3262L1200.3 75.5586L1194.57 90.2285C1194.3 90.9212 1193.96 91.5501 1193.55 92.1152C1193.15 92.6895 1192.64 93.1406 1192.02 93.4688C1191.4 93.806 1190.66 93.9746 1189.77 93.9746Z" fill="#101010"/>
<path d="M970 236C970 227.163 977.163 220 986 220H1232C1240.84 220 1248 227.163 1248 236V376H970V236Z" fill="#164F38"/>
<path d="M1118.39 291.813H1130.04V291.808M1087.96 315.837V304.187M1087.96 304.187L1099.61 304.187M1087.96 304.187L1095.39 311.614C1097.7 313.93 1100.63 315.686 1104.02 316.594C1114.29 319.346 1124.84 313.251 1127.6 302.982M1090.41 293.018C1093.16 282.748 1103.71 276.654 1113.98 279.406C1117.37 280.313 1120.3 282.07 1122.62 284.386L1130.04 291.808M1130.04 280.163V291.808" stroke="#C0B561" stroke-width="1.5" stroke-linecap="round" stroke-linejoin="round"/>
</g>
<defs>
<clipPath id="clip0_10639_6570">
<rect width="1192" height="376" fill="white"/>
</clipPath>
</defs>
</svg>
