<svg width="344" height="283" viewBox="0 0 344 283" fill="none" xmlns="http://www.w3.org/2000/svg">
<rect x="0.25" y="0.915527" width="343.5" height="280.904" fill="#F9F9F9"/>
<rect x="0.25" y="0.915527" width="343.5" height="280.904" stroke="#D3DADD" stroke-width="0.5"/>
<path d="M300 49.1655C301.249 49.1655 302.311 48.7277 303.187 47.852C304.062 46.9764 304.5 45.9142 304.5 44.6655C304.5 43.4168 304.062 42.3546 303.187 41.479C302.311 40.6033 301.249 40.1655 300 40.1655C298.751 40.1655 297.689 40.6033 296.813 41.479C295.938 42.3546 295.5 43.4168 295.5 44.6655C295.5 45.9142 295.938 46.9764 296.813 47.852C297.689 48.7277 298.751 49.1655 300 49.1655ZM300.002 54.1655C298.688 54.1655 297.453 53.9161 296.297 53.4175C295.14 52.9188 294.135 52.2421 293.28 51.3872C292.424 50.5324 291.747 49.5271 291.248 48.3715C290.749 47.2159 290.5 45.9811 290.5 44.6672C290.5 43.3532 290.749 42.1182 291.248 40.9621C291.747 39.8059 292.423 38.8002 293.278 37.945C294.133 37.0898 295.138 36.4127 296.294 35.9139C297.45 35.415 298.684 35.1655 299.998 35.1655C301.312 35.1655 302.547 35.4149 303.703 35.9135C304.86 36.4122 305.865 37.0889 306.72 37.9438C307.576 38.7986 308.253 39.8039 308.752 40.9595C309.251 42.1151 309.5 43.3499 309.5 44.6638C309.5 45.9778 309.251 47.2128 308.752 48.3689C308.253 49.5251 307.577 50.5308 306.722 51.386C305.867 52.2412 304.862 52.9183 303.706 53.4172C302.55 53.916 301.316 54.1655 300.002 54.1655ZM300 52.6655C302.233 52.6655 304.125 51.8905 305.675 50.3405C307.225 48.7905 308 46.8988 308 44.6655C308 42.4322 307.225 40.5405 305.675 38.9905C304.125 37.4405 302.233 36.6655 300 36.6655C297.767 36.6655 295.875 37.4405 294.325 38.9905C292.775 40.5405 292 42.4322 292 44.6655C292 46.8988 292.775 48.7905 294.325 50.3405C295.875 51.8905 297.767 52.6655 300 52.6655Z" fill="#196345"/>
<path d="M118.197 111.683V95.8262L115.775 96.6469V111.683H118.197Z" fill="#647679"/>
<path d="M48.1376 127.708V105.678L74.8644 114.741C74.8646 114.741 74.8648 114.741 74.865 114.741C75.1466 114.839 75.4443 114.886 75.7379 114.886C76.031 114.886 76.3265 114.838 76.6078 114.742C76.6081 114.741 76.6083 114.741 76.6086 114.741L103.337 105.678V127.708H103.174L103.247 128.068L103.304 128.348C103.294 128.575 103.154 128.886 102.813 129.276C102.465 129.674 101.94 130.115 101.248 130.58C99.8632 131.51 97.8458 132.509 95.338 133.428C90.3245 135.266 83.3885 136.769 75.7215 136.769C68.0541 136.769 61.1097 135.266 56.0878 133.428C53.5758 132.509 51.5542 131.51 50.1668 130.58C49.4723 130.115 48.9465 129.673 48.5978 129.276C48.2555 128.886 48.1154 128.574 48.1053 128.347L48.1606 128.066L48.2312 127.708H48.1376Z" stroke="#565D60" stroke-width="0.6"/>
<path d="M32.937 95.3948L75.7362 80.9821L118.533 95.3948L118.099 95.542L115.678 96.3627L115.678 96.3627L103.539 100.48L75.7362 109.908L47.9322 100.48L47.9322 100.48L32.937 95.3948Z" stroke="#565D60" stroke-width="0.6"/>
<path d="M114.125 115.398V124.656C114.125 126.235 115.404 127.516 116.985 127.516C118.565 127.516 119.845 126.235 119.845 124.656V115.398C119.845 114.616 119.53 113.908 119.022 113.392H114.95C114.442 113.908 114.125 114.616 114.125 115.398Z" fill="#3D4447"/>
<path d="M114.584 111.683V113.392H114.949H119.021H119.384V111.683H118.195H115.774H114.584Z" fill="#565D60"/>
<path d="M32.6445 184.069V182.565L34.1973 182.272V171.657L32.6445 171.364V169.851H38.2012V171.364L36.6582 171.657V182.272L38.2012 182.565V184.069H32.6445ZM47.9473 184.274C46.873 184.274 46.0365 183.998 45.4375 183.444C44.8385 182.891 44.5391 182.129 44.5391 181.159C44.5391 180.163 44.946 179.356 45.7598 178.737C46.5736 178.119 47.7357 177.81 49.2461 177.81H50.8574V176.921C50.8574 176.361 50.6882 175.915 50.3496 175.583C50.0176 175.251 49.5326 175.085 48.8945 175.085C48.5299 175.085 48.2077 175.131 47.9277 175.222C47.6478 175.306 47.3971 175.43 47.1758 175.593L46.9512 177.019H45.1445L45.125 174.411C45.6458 174.073 46.2253 173.806 46.8633 173.61C47.5013 173.409 48.2109 173.308 48.9922 173.308C50.3333 173.308 51.388 173.623 52.1562 174.255C52.931 174.88 53.3184 175.778 53.3184 176.95V181.608C53.3184 181.752 53.3184 181.892 53.3184 182.028C53.3249 182.165 53.3346 182.299 53.3477 182.429L54.4219 182.565V184.069H51.209C51.1439 183.841 51.082 183.62 51.0234 183.405C50.9714 183.19 50.9323 182.976 50.9062 182.761C50.5547 183.203 50.1283 183.568 49.627 183.854C49.1322 184.134 48.5723 184.274 47.9473 184.274ZM48.5039 182.37C48.9987 182.37 49.4609 182.256 49.8906 182.028C50.3203 181.794 50.6426 181.501 50.8574 181.149V179.382H49.2168C48.4811 179.382 47.9245 179.554 47.5469 179.899C47.1758 180.238 46.9902 180.635 46.9902 181.091C46.9902 181.501 47.1204 181.817 47.3809 182.038C47.6413 182.259 48.0156 182.37 48.5039 182.37ZM55.5645 184.069V182.565L57.0391 182.272V175.31L55.4863 175.017V173.503H59.2949L59.4121 174.89C59.7572 174.388 60.1868 174.001 60.7012 173.728C61.222 173.448 61.8242 173.308 62.5078 173.308C63.1979 173.308 63.7871 173.464 64.2754 173.776C64.7702 174.082 65.1445 174.548 65.3984 175.173C65.724 174.593 66.1504 174.138 66.6777 173.806C67.2116 173.474 67.8366 173.308 68.5527 173.308C69.6139 173.308 70.4473 173.669 71.0527 174.392C71.6647 175.114 71.9707 176.208 71.9707 177.673V182.272L73.4453 182.565V184.069H68.123V182.565L69.5098 182.272V177.663C69.5098 176.771 69.36 176.146 69.0605 175.788C68.7611 175.43 68.3216 175.251 67.7422 175.251C67.2018 175.251 66.7559 175.424 66.4043 175.769C66.0592 176.114 65.8346 176.553 65.7305 177.087V182.272L67.0684 182.565V184.069H61.9414V182.565L63.2793 182.272V177.663C63.2793 176.804 63.1263 176.188 62.8203 175.817C62.5143 175.44 62.0716 175.251 61.4922 175.251C61.0104 175.251 60.6035 175.349 60.2715 175.544C59.946 175.739 59.6855 176.016 59.4902 176.374V182.272L60.8672 182.565V184.069H55.5645ZM83.0254 184.274C81.9512 184.274 81.1146 183.998 80.5156 183.444C79.9167 182.891 79.6172 182.129 79.6172 181.159C79.6172 180.163 80.0241 179.356 80.8379 178.737C81.6517 178.119 82.8138 177.81 84.3242 177.81H85.9355V176.921C85.9355 176.361 85.7663 175.915 85.4277 175.583C85.0957 175.251 84.6107 175.085 83.9727 175.085C83.6081 175.085 83.2858 175.131 83.0059 175.222C82.7259 175.306 82.4753 175.43 82.2539 175.593L82.0293 177.019H80.2227L80.2031 174.411C80.724 174.073 81.3034 173.806 81.9414 173.61C82.5794 173.409 83.2891 173.308 84.0703 173.308C85.4115 173.308 86.4661 173.623 87.2344 174.255C88.0091 174.88 88.3965 175.778 88.3965 176.95V181.608C88.3965 181.752 88.3965 181.892 88.3965 182.028C88.403 182.165 88.4128 182.299 88.4258 182.429L89.5 182.565V184.069H86.2871C86.222 183.841 86.1602 183.62 86.1016 183.405C86.0495 183.19 86.0104 182.976 85.9844 182.761C85.6328 183.203 85.2064 183.568 84.7051 183.854C84.2103 184.134 83.6504 184.274 83.0254 184.274ZM83.582 182.37C84.0768 182.37 84.5391 182.256 84.9688 182.028C85.3984 181.794 85.7207 181.501 85.9355 181.149V179.382H84.2949C83.5592 179.382 83.0026 179.554 82.625 179.899C82.2539 180.238 82.0684 180.635 82.0684 181.091C82.0684 181.501 82.1986 181.817 82.459 182.038C82.7194 182.259 83.0938 182.37 83.582 182.37ZM90.6426 184.069V182.565L92.1074 182.272V175.31L90.5645 175.017V173.503H94.373L94.5 175.036C94.8516 174.489 95.2878 174.066 95.8086 173.767C96.3359 173.461 96.9316 173.308 97.5957 173.308C98.6829 173.308 99.5293 173.643 100.135 174.313C100.74 174.978 101.043 176.019 101.043 177.438V182.272L102.508 182.565V184.069H97.2051V182.565L98.582 182.272V177.458C98.582 176.657 98.4225 176.091 98.1035 175.759C97.7845 175.42 97.3092 175.251 96.6777 175.251C96.2025 175.251 95.7858 175.358 95.4277 175.573C95.0762 175.782 94.7897 176.075 94.5684 176.452V182.272L95.9062 182.565V184.069H90.6426ZM108.484 184.069V182.565L109.949 182.272V175.31L108.396 175.017V173.503H112.41V182.272L113.865 182.565V184.069H108.484ZM109.852 171.11V168.835H112.41V171.11H109.852ZM114.92 184.069V182.565L116.385 182.272V175.31L114.842 175.017V173.503H118.65L118.777 175.036C119.129 174.489 119.565 174.066 120.086 173.767C120.613 173.461 121.209 173.308 121.873 173.308C122.96 173.308 123.807 173.643 124.412 174.313C125.018 174.978 125.32 176.019 125.32 177.438V182.272L126.785 182.565V184.069H121.482V182.565L122.859 182.272V177.458C122.859 176.657 122.7 176.091 122.381 175.759C122.062 175.42 121.587 175.251 120.955 175.251C120.48 175.251 120.063 175.358 119.705 175.573C119.354 175.782 119.067 176.075 118.846 176.452V182.272L120.184 182.565V184.069H114.92ZM127.83 184.069V182.565L129.295 182.272V175.31L127.752 175.017V173.503H131.561L131.688 175.036C132.039 174.489 132.475 174.066 132.996 173.767C133.523 173.461 134.119 173.308 134.783 173.308C135.87 173.308 136.717 173.643 137.322 174.313C137.928 174.978 138.23 176.019 138.23 177.438V182.272L139.695 182.565V184.069H134.393V182.565L135.77 182.272V177.458C135.77 176.657 135.61 176.091 135.291 175.759C134.972 175.42 134.497 175.251 133.865 175.251C133.39 175.251 132.973 175.358 132.615 175.573C132.264 175.782 131.977 176.075 131.756 176.452V182.272L133.094 182.565V184.069H127.83ZM145.594 184.274C144.578 184.274 143.706 184.047 142.977 183.591C142.247 183.135 141.688 182.504 141.297 181.696C140.906 180.882 140.711 179.948 140.711 178.894V178.688C140.711 177.64 140.906 176.713 141.297 175.905C141.688 175.098 142.247 174.463 142.977 174.001C143.706 173.539 144.572 173.308 145.574 173.308C146.59 173.308 147.462 173.539 148.191 174.001C148.921 174.457 149.48 175.088 149.871 175.896C150.262 176.703 150.457 177.634 150.457 178.688V178.894C150.457 179.948 150.262 180.882 149.871 181.696C149.48 182.504 148.921 183.135 148.191 183.591C147.469 184.047 146.603 184.274 145.594 184.274ZM145.594 182.38C146.141 182.38 146.59 182.233 146.941 181.94C147.299 181.641 147.566 181.231 147.742 180.71C147.918 180.183 148.006 179.577 148.006 178.894V178.688C148.006 178.011 147.918 177.412 147.742 176.892C147.566 176.371 147.299 175.961 146.941 175.661C146.583 175.362 146.128 175.212 145.574 175.212C145.034 175.212 144.585 175.362 144.227 175.661C143.868 175.961 143.602 176.371 143.426 176.892C143.257 177.412 143.172 178.011 143.172 178.688V178.894C143.172 179.577 143.257 180.183 143.426 180.71C143.602 181.231 143.868 181.641 144.227 181.94C144.591 182.233 145.047 182.38 145.594 182.38ZM155.613 184.069L152.186 175.183L151.062 175.017V173.503H155.896V175.017L154.676 175.212L156.58 180.515L156.834 181.354H156.893L157.186 180.515L159.109 175.212L157.771 175.017V173.503H162.596V175.017L161.443 175.192L158.006 184.069H155.613ZM166.834 184.274C165.76 184.274 164.923 183.998 164.324 183.444C163.725 182.891 163.426 182.129 163.426 181.159C163.426 180.163 163.833 179.356 164.646 178.737C165.46 178.119 166.622 177.81 168.133 177.81H169.744V176.921C169.744 176.361 169.575 175.915 169.236 175.583C168.904 175.251 168.419 175.085 167.781 175.085C167.417 175.085 167.094 175.131 166.814 175.222C166.535 175.306 166.284 175.43 166.062 175.593L165.838 177.019H164.031L164.012 174.411C164.533 174.073 165.112 173.806 165.75 173.61C166.388 173.409 167.098 173.308 167.879 173.308C169.22 173.308 170.275 173.623 171.043 174.255C171.818 174.88 172.205 175.778 172.205 176.95V181.608C172.205 181.752 172.205 181.892 172.205 182.028C172.212 182.165 172.221 182.299 172.234 182.429L173.309 182.565V184.069H170.096C170.031 183.841 169.969 183.62 169.91 183.405C169.858 183.19 169.819 182.976 169.793 182.761C169.441 183.203 169.015 183.568 168.514 183.854C168.019 184.134 167.459 184.274 166.834 184.274ZM167.391 182.37C167.885 182.37 168.348 182.256 168.777 182.028C169.207 181.794 169.529 181.501 169.744 181.149V179.382H168.104C167.368 179.382 166.811 179.554 166.434 179.899C166.062 180.238 165.877 180.635 165.877 181.091C165.877 181.501 166.007 181.817 166.268 182.038C166.528 182.259 166.902 182.37 167.391 182.37ZM178.299 184.255C177.4 184.255 176.701 184.004 176.199 183.503C175.698 182.995 175.447 182.188 175.447 181.081V175.261H173.904V173.503H175.447V170.935H177.898V173.503H179.988V175.261H177.898V181.081C177.898 181.53 177.99 181.859 178.172 182.067C178.361 182.269 178.615 182.37 178.934 182.37C179.116 182.37 179.318 182.354 179.539 182.321C179.767 182.289 179.949 182.256 180.086 182.224L180.34 183.952C180.053 184.037 179.725 184.108 179.354 184.167C178.989 184.226 178.637 184.255 178.299 184.255ZM186.199 184.274C185.184 184.274 184.311 184.047 183.582 183.591C182.853 183.135 182.293 182.504 181.902 181.696C181.512 180.882 181.316 179.948 181.316 178.894V178.688C181.316 177.64 181.512 176.713 181.902 175.905C182.293 175.098 182.853 174.463 183.582 174.001C184.311 173.539 185.177 173.308 186.18 173.308C187.195 173.308 188.068 173.539 188.797 174.001C189.526 174.457 190.086 175.088 190.477 175.896C190.867 176.703 191.062 177.634 191.062 178.688V178.894C191.062 179.948 190.867 180.882 190.477 181.696C190.086 182.504 189.526 183.135 188.797 183.591C188.074 184.047 187.208 184.274 186.199 184.274ZM186.199 182.38C186.746 182.38 187.195 182.233 187.547 181.94C187.905 181.641 188.172 181.231 188.348 180.71C188.523 180.183 188.611 179.577 188.611 178.894V178.688C188.611 178.011 188.523 177.412 188.348 176.892C188.172 176.371 187.905 175.961 187.547 175.661C187.189 175.362 186.733 175.212 186.18 175.212C185.639 175.212 185.19 175.362 184.832 175.661C184.474 175.961 184.207 176.371 184.031 176.892C183.862 177.412 183.777 178.011 183.777 178.688V178.894C183.777 179.577 183.862 180.183 184.031 180.71C184.207 181.231 184.474 181.641 184.832 181.94C185.197 182.233 185.652 182.38 186.199 182.38ZM192.537 184.069V182.565L194.002 182.272V175.31L192.459 175.017V173.503H196.268L196.395 174.831L196.414 175.046C196.694 174.486 197.036 174.056 197.439 173.757C197.85 173.457 198.328 173.308 198.875 173.308C199.057 173.308 199.249 173.324 199.451 173.356C199.66 173.389 199.829 173.425 199.959 173.464L199.676 175.739L198.299 175.661C197.85 175.635 197.479 175.723 197.186 175.925C196.899 176.127 196.658 176.407 196.463 176.765V182.272L197.928 182.565V184.069H192.537Z" fill="#101010"/>
<path d="M34.9375 206.694V218.069H33.4297V206.694H34.9375ZM38.9062 211.421V218.069H37.4609V209.616H38.8281L38.9062 211.421ZM38.5625 213.522L37.9609 213.499C37.9661 212.921 38.0521 212.387 38.2188 211.897C38.3854 211.403 38.6198 210.973 38.9219 210.608C39.224 210.244 39.5833 209.963 40 209.765C40.4219 209.562 40.888 209.46 41.3984 209.46C41.8151 209.46 42.1901 209.517 42.5234 209.632C42.8568 209.741 43.1406 209.918 43.375 210.163C43.6146 210.408 43.7969 210.726 43.9219 211.116C44.0469 211.502 44.1094 211.973 44.1094 212.53V218.069H42.6562V212.515C42.6562 212.072 42.5911 211.718 42.4609 211.452C42.3307 211.181 42.1406 210.986 41.8906 210.866C41.6406 210.741 41.3333 210.679 40.9688 210.679C40.6094 210.679 40.2812 210.754 39.9844 210.905C39.6927 211.056 39.4401 211.265 39.2266 211.53C39.0182 211.796 38.8542 212.101 38.7344 212.444C38.6198 212.783 38.5625 213.142 38.5625 213.522ZM47.75 211.421V218.069H46.3047V209.616H47.6719L47.75 211.421ZM47.4062 213.522L46.8047 213.499C46.8099 212.921 46.8958 212.387 47.0625 211.897C47.2292 211.403 47.4635 210.973 47.7656 210.608C48.0677 210.244 48.4271 209.963 48.8438 209.765C49.2656 209.562 49.7318 209.46 50.2422 209.46C50.6589 209.46 51.0339 209.517 51.3672 209.632C51.7005 209.741 51.9844 209.918 52.2188 210.163C52.4583 210.408 52.6406 210.726 52.7656 211.116C52.8906 211.502 52.9531 211.973 52.9531 212.53V218.069H51.5V212.515C51.5 212.072 51.4349 211.718 51.3047 211.452C51.1745 211.181 50.9844 210.986 50.7344 210.866C50.4844 210.741 50.1771 210.679 49.8125 210.679C49.4531 210.679 49.125 210.754 48.8281 210.905C48.5365 211.056 48.2839 211.265 48.0703 211.53C47.862 211.796 47.6979 212.101 47.5781 212.444C47.4635 212.783 47.4062 213.142 47.4062 213.522ZM54.7656 213.937V213.757C54.7656 213.147 54.8542 212.582 55.0312 212.062C55.2083 211.535 55.4635 211.08 55.7969 210.694C56.1302 210.304 56.5339 210.002 57.0078 209.788C57.4818 209.569 58.013 209.46 58.6016 209.46C59.1953 209.46 59.7292 209.569 60.2031 209.788C60.6823 210.002 61.0885 210.304 61.4219 210.694C61.7604 211.08 62.0182 211.535 62.1953 212.062C62.3724 212.582 62.4609 213.147 62.4609 213.757V213.937C62.4609 214.546 62.3724 215.111 62.1953 215.632C62.0182 216.153 61.7604 216.608 61.4219 216.999C61.0885 217.384 60.6849 217.687 60.2109 217.905C59.7422 218.119 59.2109 218.226 58.6172 218.226C58.0234 218.226 57.4896 218.119 57.0156 217.905C56.5417 217.687 56.1354 217.384 55.7969 216.999C55.4635 216.608 55.2083 216.153 55.0312 215.632C54.8542 215.111 54.7656 214.546 54.7656 213.937ZM56.2109 213.757V213.937C56.2109 214.358 56.2604 214.757 56.3594 215.132C56.4583 215.502 56.6068 215.83 56.8047 216.116C57.0078 216.403 57.2604 216.629 57.5625 216.796C57.8646 216.957 58.2161 217.038 58.6172 217.038C59.013 217.038 59.3594 216.957 59.6562 216.796C59.9583 216.629 60.2083 216.403 60.4062 216.116C60.6042 215.83 60.7526 215.502 60.8516 215.132C60.9557 214.757 61.0078 214.358 61.0078 213.937V213.757C61.0078 213.34 60.9557 212.947 60.8516 212.577C60.7526 212.202 60.6016 211.871 60.3984 211.585C60.2005 211.293 59.9505 211.064 59.6484 210.897C59.3516 210.731 59.0026 210.647 58.6016 210.647C58.2057 210.647 57.8568 210.731 57.5547 210.897C57.2578 211.064 57.0078 211.293 56.8047 211.585C56.6068 211.871 56.4583 212.202 56.3594 212.577C56.2604 212.947 56.2109 213.34 56.2109 213.757ZM66.7188 216.765L69.0312 209.616H70.5078L67.4688 218.069H66.5L66.7188 216.765ZM64.7891 209.616L67.1719 216.804L67.3359 218.069H66.3672L63.3047 209.616H64.7891ZM76.7578 216.624V212.272C76.7578 211.939 76.6901 211.65 76.5547 211.405C76.4245 211.155 76.2266 210.963 75.9609 210.827C75.6953 210.692 75.3672 210.624 74.9766 210.624C74.612 210.624 74.2917 210.687 74.0156 210.812C73.7448 210.937 73.5312 211.101 73.375 211.304C73.224 211.507 73.1484 211.726 73.1484 211.96H71.7031C71.7031 211.658 71.7812 211.358 71.9375 211.062C72.0938 210.765 72.3177 210.496 72.6094 210.257C72.9062 210.012 73.2604 209.819 73.6719 209.679C74.0885 209.533 74.5521 209.46 75.0625 209.46C75.6771 209.46 76.2188 209.564 76.6875 209.772C77.1615 209.981 77.5312 210.296 77.7969 210.718C78.0677 211.134 78.2031 211.658 78.2031 212.288V216.226C78.2031 216.507 78.2266 216.806 78.2734 217.124C78.3255 217.442 78.401 217.715 78.5 217.944V218.069H76.9922C76.9193 217.903 76.862 217.681 76.8203 217.405C76.7786 217.124 76.7578 216.864 76.7578 216.624ZM77.0078 212.944L77.0234 213.96H75.5625C75.151 213.96 74.7839 213.994 74.4609 214.062C74.138 214.124 73.8672 214.22 73.6484 214.351C73.4297 214.481 73.263 214.645 73.1484 214.843C73.0339 215.035 72.9766 215.262 72.9766 215.522C72.9766 215.788 73.0365 216.03 73.1562 216.249C73.276 216.468 73.4557 216.642 73.6953 216.772C73.9401 216.897 74.2396 216.96 74.5938 216.96C75.0365 216.96 75.4271 216.866 75.7656 216.679C76.1042 216.491 76.3724 216.262 76.5703 215.991C76.7734 215.72 76.8828 215.457 76.8984 215.202L77.5156 215.897C77.4792 216.116 77.3802 216.358 77.2188 216.624C77.0573 216.89 76.8411 217.145 76.5703 217.39C76.3047 217.629 75.987 217.83 75.6172 217.991C75.2526 218.147 74.8411 218.226 74.3828 218.226C73.8099 218.226 73.3073 218.114 72.875 217.89C72.4479 217.666 72.1146 217.366 71.875 216.991C71.6406 216.611 71.5234 216.187 71.5234 215.718C71.5234 215.265 71.612 214.866 71.7891 214.522C71.9661 214.174 72.2214 213.884 72.5547 213.655C72.888 213.421 73.2891 213.244 73.7578 213.124C74.2266 213.004 74.75 212.944 75.3281 212.944H77.0078ZM84.0156 209.616V210.726H79.4453V209.616H84.0156ZM80.9922 207.562H82.4375V215.976C82.4375 216.262 82.4818 216.478 82.5703 216.624C82.6589 216.77 82.7734 216.866 82.9141 216.913C83.0547 216.96 83.2057 216.983 83.3672 216.983C83.487 216.983 83.612 216.973 83.7422 216.952C83.8776 216.926 83.9792 216.905 84.0469 216.89L84.0547 218.069C83.9401 218.106 83.7891 218.14 83.6016 218.171C83.4193 218.207 83.1979 218.226 82.9375 218.226C82.5833 218.226 82.2578 218.155 81.9609 218.015C81.6641 217.874 81.4271 217.64 81.25 217.312C81.0781 216.978 80.9922 216.53 80.9922 215.968V207.562ZM85.1719 213.937V213.757C85.1719 213.147 85.2604 212.582 85.4375 212.062C85.6146 211.535 85.8698 211.08 86.2031 210.694C86.5365 210.304 86.9401 210.002 87.4141 209.788C87.888 209.569 88.4193 209.46 89.0078 209.46C89.6016 209.46 90.1354 209.569 90.6094 209.788C91.0885 210.002 91.4948 210.304 91.8281 210.694C92.1667 211.08 92.4245 211.535 92.6016 212.062C92.7786 212.582 92.8672 213.147 92.8672 213.757V213.937C92.8672 214.546 92.7786 215.111 92.6016 215.632C92.4245 216.153 92.1667 216.608 91.8281 216.999C91.4948 217.384 91.0911 217.687 90.6172 217.905C90.1484 218.119 89.6172 218.226 89.0234 218.226C88.4297 218.226 87.8958 218.119 87.4219 217.905C86.9479 217.687 86.5417 217.384 86.2031 216.999C85.8698 216.608 85.6146 216.153 85.4375 215.632C85.2604 215.111 85.1719 214.546 85.1719 213.937ZM86.6172 213.757V213.937C86.6172 214.358 86.6667 214.757 86.7656 215.132C86.8646 215.502 87.013 215.83 87.2109 216.116C87.4141 216.403 87.6667 216.629 87.9688 216.796C88.2708 216.957 88.6224 217.038 89.0234 217.038C89.4193 217.038 89.7656 216.957 90.0625 216.796C90.3646 216.629 90.6146 216.403 90.8125 216.116C91.0104 215.83 91.1589 215.502 91.2578 215.132C91.362 214.757 91.4141 214.358 91.4141 213.937V213.757C91.4141 213.34 91.362 212.947 91.2578 212.577C91.1589 212.202 91.0078 211.871 90.8047 211.585C90.6068 211.293 90.3568 211.064 90.0547 210.897C89.7578 210.731 89.4089 210.647 89.0078 210.647C88.612 210.647 88.263 210.731 87.9609 210.897C87.6641 211.064 87.4141 211.293 87.2109 211.585C87.013 211.871 86.8646 212.202 86.7656 212.577C86.6667 212.947 86.6172 213.34 86.6172 213.757ZM96.125 210.944V218.069H94.6797V209.616H96.0859L96.125 210.944ZM98.7656 209.569L98.7578 210.913C98.638 210.887 98.5234 210.871 98.4141 210.866C98.3099 210.856 98.1901 210.851 98.0547 210.851C97.7214 210.851 97.4271 210.903 97.1719 211.007C96.9167 211.111 96.7005 211.257 96.5234 211.444C96.3464 211.632 96.2057 211.856 96.1016 212.116C96.0026 212.371 95.9375 212.653 95.9062 212.96L95.5 213.194C95.5 212.684 95.5495 212.205 95.6484 211.757C95.7526 211.309 95.9115 210.913 96.125 210.569C96.3385 210.22 96.6094 209.95 96.9375 209.757C97.2708 209.559 97.6667 209.46 98.125 209.46C98.2292 209.46 98.349 209.473 98.4844 209.499C98.6198 209.52 98.7135 209.543 98.7656 209.569ZM105.023 215.827C105.023 215.619 104.977 215.426 104.883 215.249C104.794 215.067 104.609 214.903 104.328 214.757C104.052 214.606 103.635 214.476 103.078 214.366C102.609 214.267 102.185 214.15 101.805 214.015C101.43 213.879 101.109 213.715 100.844 213.522C100.583 213.33 100.383 213.103 100.242 212.843C100.102 212.582 100.031 212.278 100.031 211.929C100.031 211.595 100.104 211.28 100.25 210.983C100.401 210.687 100.612 210.424 100.883 210.194C101.159 209.965 101.49 209.785 101.875 209.655C102.26 209.525 102.69 209.46 103.164 209.46C103.841 209.46 104.419 209.58 104.898 209.819C105.378 210.059 105.745 210.379 106 210.78C106.255 211.176 106.383 211.616 106.383 212.101H104.938C104.938 211.866 104.867 211.64 104.727 211.421C104.591 211.197 104.391 211.012 104.125 210.866C103.865 210.72 103.544 210.647 103.164 210.647C102.763 210.647 102.438 210.71 102.188 210.835C101.943 210.955 101.763 211.108 101.648 211.296C101.539 211.483 101.484 211.681 101.484 211.89C101.484 212.046 101.51 212.187 101.562 212.312C101.62 212.431 101.719 212.543 101.859 212.647C102 212.746 102.198 212.84 102.453 212.929C102.708 213.017 103.034 213.106 103.43 213.194C104.122 213.351 104.693 213.538 105.141 213.757C105.589 213.976 105.922 214.244 106.141 214.562C106.359 214.879 106.469 215.265 106.469 215.718C106.469 216.088 106.391 216.426 106.234 216.733C106.083 217.041 105.862 217.306 105.57 217.53C105.284 217.749 104.94 217.921 104.539 218.046C104.143 218.166 103.698 218.226 103.203 218.226C102.458 218.226 101.828 218.093 101.312 217.827C100.797 217.562 100.406 217.218 100.141 216.796C99.875 216.374 99.7422 215.929 99.7422 215.46H101.195C101.216 215.856 101.331 216.171 101.539 216.405C101.747 216.634 102.003 216.799 102.305 216.897C102.607 216.991 102.906 217.038 103.203 217.038C103.599 217.038 103.93 216.986 104.195 216.882C104.466 216.778 104.672 216.634 104.812 216.452C104.953 216.27 105.023 216.062 105.023 215.827ZM117.32 216.624V212.272C117.32 211.939 117.253 211.65 117.117 211.405C116.987 211.155 116.789 210.963 116.523 210.827C116.258 210.692 115.93 210.624 115.539 210.624C115.174 210.624 114.854 210.687 114.578 210.812C114.307 210.937 114.094 211.101 113.938 211.304C113.786 211.507 113.711 211.726 113.711 211.96H112.266C112.266 211.658 112.344 211.358 112.5 211.062C112.656 210.765 112.88 210.496 113.172 210.257C113.469 210.012 113.823 209.819 114.234 209.679C114.651 209.533 115.115 209.46 115.625 209.46C116.24 209.46 116.781 209.564 117.25 209.772C117.724 209.981 118.094 210.296 118.359 210.718C118.63 211.134 118.766 211.658 118.766 212.288V216.226C118.766 216.507 118.789 216.806 118.836 217.124C118.888 217.442 118.964 217.715 119.062 217.944V218.069H117.555C117.482 217.903 117.424 217.681 117.383 217.405C117.341 217.124 117.32 216.864 117.32 216.624ZM117.57 212.944L117.586 213.96H116.125C115.714 213.96 115.346 213.994 115.023 214.062C114.701 214.124 114.43 214.22 114.211 214.351C113.992 214.481 113.826 214.645 113.711 214.843C113.596 215.035 113.539 215.262 113.539 215.522C113.539 215.788 113.599 216.03 113.719 216.249C113.839 216.468 114.018 216.642 114.258 216.772C114.503 216.897 114.802 216.96 115.156 216.96C115.599 216.96 115.99 216.866 116.328 216.679C116.667 216.491 116.935 216.262 117.133 215.991C117.336 215.72 117.445 215.457 117.461 215.202L118.078 215.897C118.042 216.116 117.943 216.358 117.781 216.624C117.62 216.89 117.404 217.145 117.133 217.39C116.867 217.629 116.549 217.83 116.18 217.991C115.815 218.147 115.404 218.226 114.945 218.226C114.372 218.226 113.87 218.114 113.438 217.89C113.01 217.666 112.677 217.366 112.438 216.991C112.203 216.611 112.086 216.187 112.086 215.718C112.086 215.265 112.174 214.866 112.352 214.522C112.529 214.174 112.784 213.884 113.117 213.655C113.451 213.421 113.852 213.244 114.32 213.124C114.789 213.004 115.312 212.944 115.891 212.944H117.57ZM122.484 210.944V218.069H121.039V209.616H122.445L122.484 210.944ZM125.125 209.569L125.117 210.913C124.997 210.887 124.883 210.871 124.773 210.866C124.669 210.856 124.549 210.851 124.414 210.851C124.081 210.851 123.786 210.903 123.531 211.007C123.276 211.111 123.06 211.257 122.883 211.444C122.706 211.632 122.565 211.856 122.461 212.116C122.362 212.371 122.297 212.653 122.266 212.96L121.859 213.194C121.859 212.684 121.909 212.205 122.008 211.757C122.112 211.309 122.271 210.913 122.484 210.569C122.698 210.22 122.969 209.95 123.297 209.757C123.63 209.559 124.026 209.46 124.484 209.46C124.589 209.46 124.708 209.473 124.844 209.499C124.979 209.52 125.073 209.543 125.125 209.569ZM129.812 218.226C129.224 218.226 128.69 218.127 128.211 217.929C127.737 217.726 127.328 217.442 126.984 217.077C126.646 216.713 126.385 216.28 126.203 215.78C126.021 215.28 125.93 214.733 125.93 214.14V213.812C125.93 213.124 126.031 212.512 126.234 211.976C126.438 211.434 126.714 210.976 127.062 210.601C127.411 210.226 127.807 209.942 128.25 209.749C128.693 209.556 129.151 209.46 129.625 209.46C130.229 209.46 130.75 209.564 131.188 209.772C131.63 209.981 131.992 210.272 132.273 210.647C132.555 211.017 132.763 211.455 132.898 211.96C133.034 212.46 133.102 213.007 133.102 213.601V214.249H126.789V213.069H131.656V212.96C131.635 212.585 131.557 212.22 131.422 211.866C131.292 211.512 131.083 211.22 130.797 210.991C130.51 210.762 130.12 210.647 129.625 210.647C129.297 210.647 128.995 210.718 128.719 210.858C128.443 210.994 128.206 211.197 128.008 211.468C127.81 211.739 127.656 212.069 127.547 212.46C127.438 212.851 127.383 213.301 127.383 213.812V214.14C127.383 214.541 127.438 214.918 127.547 215.272C127.661 215.621 127.826 215.929 128.039 216.194C128.258 216.46 128.521 216.668 128.828 216.819C129.141 216.97 129.495 217.046 129.891 217.046C130.401 217.046 130.833 216.942 131.188 216.733C131.542 216.525 131.852 216.246 132.117 215.897L132.992 216.593C132.81 216.869 132.578 217.132 132.297 217.382C132.016 217.632 131.669 217.835 131.258 217.991C130.852 218.147 130.37 218.226 129.812 218.226ZM140.195 211.296V218.069H138.742V209.616H140.117L140.195 211.296ZM139.898 213.522L139.227 213.499C139.232 212.921 139.307 212.387 139.453 211.897C139.599 211.403 139.815 210.973 140.102 210.608C140.388 210.244 140.745 209.963 141.172 209.765C141.599 209.562 142.094 209.46 142.656 209.46C143.052 209.46 143.417 209.517 143.75 209.632C144.083 209.741 144.372 209.916 144.617 210.155C144.862 210.395 145.052 210.702 145.188 211.077C145.323 211.452 145.391 211.905 145.391 212.437V218.069H143.945V212.507C143.945 212.064 143.87 211.71 143.719 211.444C143.573 211.179 143.365 210.986 143.094 210.866C142.823 210.741 142.505 210.679 142.141 210.679C141.714 210.679 141.357 210.754 141.07 210.905C140.784 211.056 140.555 211.265 140.383 211.53C140.211 211.796 140.086 212.101 140.008 212.444C139.935 212.783 139.898 213.142 139.898 213.522ZM145.375 212.726L144.406 213.022C144.411 212.559 144.487 212.114 144.633 211.687C144.784 211.259 145 210.879 145.281 210.546C145.568 210.213 145.919 209.95 146.336 209.757C146.753 209.559 147.229 209.46 147.766 209.46C148.219 209.46 148.62 209.52 148.969 209.64C149.323 209.759 149.62 209.944 149.859 210.194C150.104 210.439 150.289 210.754 150.414 211.14C150.539 211.525 150.602 211.983 150.602 212.515V218.069H149.148V212.499C149.148 212.025 149.073 211.658 148.922 211.397C148.776 211.132 148.568 210.947 148.297 210.843C148.031 210.733 147.714 210.679 147.344 210.679C147.026 210.679 146.745 210.733 146.5 210.843C146.255 210.952 146.049 211.103 145.883 211.296C145.716 211.483 145.589 211.7 145.5 211.944C145.417 212.189 145.375 212.45 145.375 212.726ZM152.406 213.937V213.757C152.406 213.147 152.495 212.582 152.672 212.062C152.849 211.535 153.104 211.08 153.438 210.694C153.771 210.304 154.174 210.002 154.648 209.788C155.122 209.569 155.654 209.46 156.242 209.46C156.836 209.46 157.37 209.569 157.844 209.788C158.323 210.002 158.729 210.304 159.062 210.694C159.401 211.08 159.659 211.535 159.836 212.062C160.013 212.582 160.102 213.147 160.102 213.757V213.937C160.102 214.546 160.013 215.111 159.836 215.632C159.659 216.153 159.401 216.608 159.062 216.999C158.729 217.384 158.326 217.687 157.852 217.905C157.383 218.119 156.852 218.226 156.258 218.226C155.664 218.226 155.13 218.119 154.656 217.905C154.182 217.687 153.776 217.384 153.438 216.999C153.104 216.608 152.849 216.153 152.672 215.632C152.495 215.111 152.406 214.546 152.406 213.937ZM153.852 213.757V213.937C153.852 214.358 153.901 214.757 154 215.132C154.099 215.502 154.247 215.83 154.445 216.116C154.648 216.403 154.901 216.629 155.203 216.796C155.505 216.957 155.857 217.038 156.258 217.038C156.654 217.038 157 216.957 157.297 216.796C157.599 216.629 157.849 216.403 158.047 216.116C158.245 215.83 158.393 215.502 158.492 215.132C158.596 214.757 158.648 214.358 158.648 213.937V213.757C158.648 213.34 158.596 212.947 158.492 212.577C158.393 212.202 158.242 211.871 158.039 211.585C157.841 211.293 157.591 211.064 157.289 210.897C156.992 210.731 156.643 210.647 156.242 210.647C155.846 210.647 155.497 210.731 155.195 210.897C154.898 211.064 154.648 211.293 154.445 211.585C154.247 211.871 154.099 212.202 154 212.577C153.901 212.947 153.852 213.34 153.852 213.757ZM166.836 215.827C166.836 215.619 166.789 215.426 166.695 215.249C166.607 215.067 166.422 214.903 166.141 214.757C165.865 214.606 165.448 214.476 164.891 214.366C164.422 214.267 163.997 214.15 163.617 214.015C163.242 213.879 162.922 213.715 162.656 213.522C162.396 213.33 162.195 213.103 162.055 212.843C161.914 212.582 161.844 212.278 161.844 211.929C161.844 211.595 161.917 211.28 162.062 210.983C162.214 210.687 162.424 210.424 162.695 210.194C162.971 209.965 163.302 209.785 163.688 209.655C164.073 209.525 164.503 209.46 164.977 209.46C165.654 209.46 166.232 209.58 166.711 209.819C167.19 210.059 167.557 210.379 167.812 210.78C168.068 211.176 168.195 211.616 168.195 212.101H166.75C166.75 211.866 166.68 211.64 166.539 211.421C166.404 211.197 166.203 211.012 165.938 210.866C165.677 210.72 165.357 210.647 164.977 210.647C164.576 210.647 164.25 210.71 164 210.835C163.755 210.955 163.576 211.108 163.461 211.296C163.352 211.483 163.297 211.681 163.297 211.89C163.297 212.046 163.323 212.187 163.375 212.312C163.432 212.431 163.531 212.543 163.672 212.647C163.812 212.746 164.01 212.84 164.266 212.929C164.521 213.017 164.846 213.106 165.242 213.194C165.935 213.351 166.505 213.538 166.953 213.757C167.401 213.976 167.734 214.244 167.953 214.562C168.172 214.879 168.281 215.265 168.281 215.718C168.281 216.088 168.203 216.426 168.047 216.733C167.896 217.041 167.674 217.306 167.383 217.53C167.096 217.749 166.753 217.921 166.352 218.046C165.956 218.166 165.51 218.226 165.016 218.226C164.271 218.226 163.641 218.093 163.125 217.827C162.609 217.562 162.219 217.218 161.953 216.796C161.688 216.374 161.555 215.929 161.555 215.46H163.008C163.029 215.856 163.143 216.171 163.352 216.405C163.56 216.634 163.815 216.799 164.117 216.897C164.419 216.991 164.719 217.038 165.016 217.038C165.411 217.038 165.742 216.986 166.008 216.882C166.279 216.778 166.484 216.634 166.625 216.452C166.766 216.27 166.836 216.062 166.836 215.827ZM173.719 209.616V210.726H169.148V209.616H173.719ZM170.695 207.562H172.141V215.976C172.141 216.262 172.185 216.478 172.273 216.624C172.362 216.77 172.477 216.866 172.617 216.913C172.758 216.96 172.909 216.983 173.07 216.983C173.19 216.983 173.315 216.973 173.445 216.952C173.581 216.926 173.682 216.905 173.75 216.89L173.758 218.069C173.643 218.106 173.492 218.14 173.305 218.171C173.122 218.207 172.901 218.226 172.641 218.226C172.286 218.226 171.961 218.155 171.664 218.015C171.367 217.874 171.13 217.64 170.953 217.312C170.781 216.978 170.695 216.53 170.695 215.968V207.562ZM176.984 206.069V218.069H175.531V206.069H176.984ZM181.68 217.194L184.031 209.616H185.578L182.188 219.374C182.109 219.582 182.005 219.806 181.875 220.046C181.75 220.291 181.589 220.522 181.391 220.741C181.193 220.96 180.953 221.137 180.672 221.272C180.396 221.413 180.065 221.483 179.68 221.483C179.565 221.483 179.419 221.468 179.242 221.437C179.065 221.405 178.94 221.379 178.867 221.358L178.859 220.187C178.901 220.192 178.966 220.197 179.055 220.202C179.148 220.213 179.214 220.218 179.25 220.218C179.578 220.218 179.857 220.174 180.086 220.085C180.315 220.002 180.508 219.858 180.664 219.655C180.826 219.457 180.964 219.184 181.078 218.835L181.68 217.194ZM179.953 209.616L182.148 216.179L182.523 217.702L181.484 218.233L178.375 209.616H179.953ZM195.773 215.827C195.773 215.619 195.727 215.426 195.633 215.249C195.544 215.067 195.359 214.903 195.078 214.757C194.802 214.606 194.385 214.476 193.828 214.366C193.359 214.267 192.935 214.15 192.555 214.015C192.18 213.879 191.859 213.715 191.594 213.522C191.333 213.33 191.133 213.103 190.992 212.843C190.852 212.582 190.781 212.278 190.781 211.929C190.781 211.595 190.854 211.28 191 210.983C191.151 210.687 191.362 210.424 191.633 210.194C191.909 209.965 192.24 209.785 192.625 209.655C193.01 209.525 193.44 209.46 193.914 209.46C194.591 209.46 195.169 209.58 195.648 209.819C196.128 210.059 196.495 210.379 196.75 210.78C197.005 211.176 197.133 211.616 197.133 212.101H195.688C195.688 211.866 195.617 211.64 195.477 211.421C195.341 211.197 195.141 211.012 194.875 210.866C194.615 210.72 194.294 210.647 193.914 210.647C193.513 210.647 193.188 210.71 192.938 210.835C192.693 210.955 192.513 211.108 192.398 211.296C192.289 211.483 192.234 211.681 192.234 211.89C192.234 212.046 192.26 212.187 192.312 212.312C192.37 212.431 192.469 212.543 192.609 212.647C192.75 212.746 192.948 212.84 193.203 212.929C193.458 213.017 193.784 213.106 194.18 213.194C194.872 213.351 195.443 213.538 195.891 213.757C196.339 213.976 196.672 214.244 196.891 214.562C197.109 214.879 197.219 215.265 197.219 215.718C197.219 216.088 197.141 216.426 196.984 216.733C196.833 217.041 196.612 217.306 196.32 217.53C196.034 217.749 195.69 217.921 195.289 218.046C194.893 218.166 194.448 218.226 193.953 218.226C193.208 218.226 192.578 218.093 192.062 217.827C191.547 217.562 191.156 217.218 190.891 216.796C190.625 216.374 190.492 215.929 190.492 215.46H191.945C191.966 215.856 192.081 216.171 192.289 216.405C192.497 216.634 192.753 216.799 193.055 216.897C193.357 216.991 193.656 217.038 193.953 217.038C194.349 217.038 194.68 216.986 194.945 216.882C195.216 216.778 195.422 216.634 195.562 216.452C195.703 216.27 195.773 216.062 195.773 215.827ZM202.656 209.616V210.726H198.086V209.616H202.656ZM199.633 207.562H201.078V215.976C201.078 216.262 201.122 216.478 201.211 216.624C201.299 216.77 201.414 216.866 201.555 216.913C201.695 216.96 201.846 216.983 202.008 216.983C202.128 216.983 202.253 216.973 202.383 216.952C202.518 216.926 202.62 216.905 202.688 216.89L202.695 218.069C202.581 218.106 202.43 218.14 202.242 218.171C202.06 218.207 201.839 218.226 201.578 218.226C201.224 218.226 200.898 218.155 200.602 218.015C200.305 217.874 200.068 217.64 199.891 217.312C199.719 216.978 199.633 216.53 199.633 215.968V207.562ZM209.523 216.116V209.616H210.977V218.069H209.594L209.523 216.116ZM209.797 214.335L210.398 214.319C210.398 214.882 210.339 215.403 210.219 215.882C210.104 216.356 209.917 216.767 209.656 217.116C209.396 217.465 209.055 217.739 208.633 217.937C208.211 218.129 207.698 218.226 207.094 218.226C206.682 218.226 206.305 218.166 205.961 218.046C205.622 217.926 205.331 217.741 205.086 217.491C204.841 217.241 204.651 216.916 204.516 216.515C204.385 216.114 204.32 215.632 204.32 215.069V209.616H205.766V215.085C205.766 215.465 205.807 215.78 205.891 216.03C205.979 216.275 206.096 216.47 206.242 216.616C206.393 216.757 206.56 216.856 206.742 216.913C206.93 216.97 207.122 216.999 207.32 216.999C207.935 216.999 208.422 216.882 208.781 216.647C209.141 216.408 209.398 216.088 209.555 215.687C209.716 215.28 209.797 214.83 209.797 214.335ZM218.508 216.429V206.069H219.961V218.069H218.633L218.508 216.429ZM212.82 213.937V213.772C212.82 213.127 212.898 212.541 213.055 212.015C213.216 211.483 213.443 211.028 213.734 210.647C214.031 210.267 214.383 209.976 214.789 209.772C215.201 209.564 215.659 209.46 216.164 209.46C216.695 209.46 217.159 209.554 217.555 209.741C217.956 209.924 218.294 210.192 218.57 210.546C218.852 210.895 219.073 211.317 219.234 211.812C219.396 212.306 219.508 212.866 219.57 213.491V214.21C219.513 214.83 219.401 215.387 219.234 215.882C219.073 216.377 218.852 216.799 218.57 217.147C218.294 217.496 217.956 217.765 217.555 217.952C217.154 218.134 216.685 218.226 216.148 218.226C215.654 218.226 215.201 218.119 214.789 217.905C214.383 217.692 214.031 217.392 213.734 217.007C213.443 216.621 213.216 216.168 213.055 215.647C212.898 215.121 212.82 214.551 212.82 213.937ZM214.273 213.772V213.937C214.273 214.358 214.315 214.754 214.398 215.124C214.487 215.494 214.622 215.819 214.805 216.101C214.987 216.382 215.219 216.603 215.5 216.765C215.781 216.921 216.117 216.999 216.508 216.999C216.987 216.999 217.38 216.897 217.688 216.694C218 216.491 218.25 216.223 218.438 215.89C218.625 215.556 218.771 215.194 218.875 214.804V212.921C218.812 212.634 218.721 212.358 218.602 212.093C218.487 211.822 218.336 211.582 218.148 211.374C217.966 211.16 217.74 210.991 217.469 210.866C217.203 210.741 216.888 210.679 216.523 210.679C216.128 210.679 215.786 210.762 215.5 210.929C215.219 211.09 214.987 211.314 214.805 211.601C214.622 211.882 214.487 212.21 214.398 212.585C214.315 212.955 214.273 213.351 214.273 213.772ZM225.719 218.226C225.13 218.226 224.596 218.127 224.117 217.929C223.643 217.726 223.234 217.442 222.891 217.077C222.552 216.713 222.292 216.28 222.109 215.78C221.927 215.28 221.836 214.733 221.836 214.14V213.812C221.836 213.124 221.938 212.512 222.141 211.976C222.344 211.434 222.62 210.976 222.969 210.601C223.318 210.226 223.714 209.942 224.156 209.749C224.599 209.556 225.057 209.46 225.531 209.46C226.135 209.46 226.656 209.564 227.094 209.772C227.536 209.981 227.898 210.272 228.18 210.647C228.461 211.017 228.669 211.455 228.805 211.96C228.94 212.46 229.008 213.007 229.008 213.601V214.249H222.695V213.069H227.562V212.96C227.542 212.585 227.464 212.22 227.328 211.866C227.198 211.512 226.99 211.22 226.703 210.991C226.417 210.762 226.026 210.647 225.531 210.647C225.203 210.647 224.901 210.718 224.625 210.858C224.349 210.994 224.112 211.197 223.914 211.468C223.716 211.739 223.562 212.069 223.453 212.46C223.344 212.851 223.289 213.301 223.289 213.812V214.14C223.289 214.541 223.344 214.918 223.453 215.272C223.568 215.621 223.732 215.929 223.945 216.194C224.164 216.46 224.427 216.668 224.734 216.819C225.047 216.97 225.401 217.046 225.797 217.046C226.307 217.046 226.74 216.942 227.094 216.733C227.448 216.525 227.758 216.246 228.023 215.897L228.898 216.593C228.716 216.869 228.484 217.132 228.203 217.382C227.922 217.632 227.576 217.835 227.164 217.991C226.758 218.147 226.276 218.226 225.719 218.226ZM232.141 211.421V218.069H230.695V209.616H232.062L232.141 211.421ZM231.797 213.522L231.195 213.499C231.201 212.921 231.286 212.387 231.453 211.897C231.62 211.403 231.854 210.973 232.156 210.608C232.458 210.244 232.818 209.963 233.234 209.765C233.656 209.562 234.122 209.46 234.633 209.46C235.049 209.46 235.424 209.517 235.758 209.632C236.091 209.741 236.375 209.918 236.609 210.163C236.849 210.408 237.031 210.726 237.156 211.116C237.281 211.502 237.344 211.973 237.344 212.53V218.069H235.891V212.515C235.891 212.072 235.826 211.718 235.695 211.452C235.565 211.181 235.375 210.986 235.125 210.866C234.875 210.741 234.568 210.679 234.203 210.679C233.844 210.679 233.516 210.754 233.219 210.905C232.927 211.056 232.674 211.265 232.461 211.53C232.253 211.796 232.089 212.101 231.969 212.444C231.854 212.783 231.797 213.142 231.797 213.522ZM243.078 209.616V210.726H238.508V209.616H243.078ZM240.055 207.562H241.5V215.976C241.5 216.262 241.544 216.478 241.633 216.624C241.721 216.77 241.836 216.866 241.977 216.913C242.117 216.96 242.268 216.983 242.43 216.983C242.549 216.983 242.674 216.973 242.805 216.952C242.94 216.926 243.042 216.905 243.109 216.89L243.117 218.069C243.003 218.106 242.852 218.14 242.664 218.171C242.482 218.207 242.26 218.226 242 218.226C241.646 218.226 241.32 218.155 241.023 218.015C240.727 217.874 240.49 217.64 240.312 217.312C240.141 216.978 240.055 216.53 240.055 215.968V207.562ZM249.695 215.827C249.695 215.619 249.648 215.426 249.555 215.249C249.466 215.067 249.281 214.903 249 214.757C248.724 214.606 248.307 214.476 247.75 214.366C247.281 214.267 246.857 214.15 246.477 214.015C246.102 213.879 245.781 213.715 245.516 213.522C245.255 213.33 245.055 213.103 244.914 212.843C244.773 212.582 244.703 212.278 244.703 211.929C244.703 211.595 244.776 211.28 244.922 210.983C245.073 210.687 245.284 210.424 245.555 210.194C245.831 209.965 246.161 209.785 246.547 209.655C246.932 209.525 247.362 209.46 247.836 209.46C248.513 209.46 249.091 209.58 249.57 209.819C250.049 210.059 250.417 210.379 250.672 210.78C250.927 211.176 251.055 211.616 251.055 212.101H249.609C249.609 211.866 249.539 211.64 249.398 211.421C249.263 211.197 249.062 211.012 248.797 210.866C248.536 210.72 248.216 210.647 247.836 210.647C247.435 210.647 247.109 210.71 246.859 210.835C246.615 210.955 246.435 211.108 246.32 211.296C246.211 211.483 246.156 211.681 246.156 211.89C246.156 212.046 246.182 212.187 246.234 212.312C246.292 212.431 246.391 212.543 246.531 212.647C246.672 212.746 246.87 212.84 247.125 212.929C247.38 213.017 247.706 213.106 248.102 213.194C248.794 213.351 249.365 213.538 249.812 213.757C250.26 213.976 250.594 214.244 250.812 214.562C251.031 214.879 251.141 215.265 251.141 215.718C251.141 216.088 251.062 216.426 250.906 216.733C250.755 217.041 250.534 217.306 250.242 217.53C249.956 217.749 249.612 217.921 249.211 218.046C248.815 218.166 248.37 218.226 247.875 218.226C247.13 218.226 246.5 218.093 245.984 217.827C245.469 217.562 245.078 217.218 244.812 216.796C244.547 216.374 244.414 215.929 244.414 215.46H245.867C245.888 215.856 246.003 216.171 246.211 216.405C246.419 216.634 246.674 216.799 246.977 216.897C247.279 216.991 247.578 217.038 247.875 217.038C248.271 217.038 248.602 216.986 248.867 216.882C249.138 216.778 249.344 216.634 249.484 216.452C249.625 216.27 249.695 216.062 249.695 215.827ZM261.992 216.624V212.272C261.992 211.939 261.924 211.65 261.789 211.405C261.659 211.155 261.461 210.963 261.195 210.827C260.93 210.692 260.602 210.624 260.211 210.624C259.846 210.624 259.526 210.687 259.25 210.812C258.979 210.937 258.766 211.101 258.609 211.304C258.458 211.507 258.383 211.726 258.383 211.96H256.938C256.938 211.658 257.016 211.358 257.172 211.062C257.328 210.765 257.552 210.496 257.844 210.257C258.141 210.012 258.495 209.819 258.906 209.679C259.323 209.533 259.786 209.46 260.297 209.46C260.911 209.46 261.453 209.564 261.922 209.772C262.396 209.981 262.766 210.296 263.031 210.718C263.302 211.134 263.438 211.658 263.438 212.288V216.226C263.438 216.507 263.461 216.806 263.508 217.124C263.56 217.442 263.635 217.715 263.734 217.944V218.069H262.227C262.154 217.903 262.096 217.681 262.055 217.405C262.013 217.124 261.992 216.864 261.992 216.624ZM262.242 212.944L262.258 213.96H260.797C260.385 213.96 260.018 213.994 259.695 214.062C259.372 214.124 259.102 214.22 258.883 214.351C258.664 214.481 258.497 214.645 258.383 214.843C258.268 215.035 258.211 215.262 258.211 215.522C258.211 215.788 258.271 216.03 258.391 216.249C258.51 216.468 258.69 216.642 258.93 216.772C259.174 216.897 259.474 216.96 259.828 216.96C260.271 216.96 260.661 216.866 261 216.679C261.339 216.491 261.607 216.262 261.805 215.991C262.008 215.72 262.117 215.457 262.133 215.202L262.75 215.897C262.714 216.116 262.615 216.358 262.453 216.624C262.292 216.89 262.076 217.145 261.805 217.39C261.539 217.629 261.221 217.83 260.852 217.991C260.487 218.147 260.076 218.226 259.617 218.226C259.044 218.226 258.542 218.114 258.109 217.89C257.682 217.666 257.349 217.366 257.109 216.991C256.875 216.611 256.758 216.187 256.758 215.718C256.758 215.265 256.846 214.866 257.023 214.522C257.201 214.174 257.456 213.884 257.789 213.655C258.122 213.421 258.523 213.244 258.992 213.124C259.461 213.004 259.984 212.944 260.562 212.944H262.242ZM267.156 211.421V218.069H265.711V209.616H267.078L267.156 211.421ZM266.812 213.522L266.211 213.499C266.216 212.921 266.302 212.387 266.469 211.897C266.635 211.403 266.87 210.973 267.172 210.608C267.474 210.244 267.833 209.963 268.25 209.765C268.672 209.562 269.138 209.46 269.648 209.46C270.065 209.46 270.44 209.517 270.773 209.632C271.107 209.741 271.391 209.918 271.625 210.163C271.865 210.408 272.047 210.726 272.172 211.116C272.297 211.502 272.359 211.973 272.359 212.53V218.069H270.906V212.515C270.906 212.072 270.841 211.718 270.711 211.452C270.581 211.181 270.391 210.986 270.141 210.866C269.891 210.741 269.583 210.679 269.219 210.679C268.859 210.679 268.531 210.754 268.234 210.905C267.943 211.056 267.69 211.265 267.477 211.53C267.268 211.796 267.104 212.101 266.984 212.444C266.87 212.783 266.812 213.142 266.812 213.522ZM279.883 216.429V206.069H281.336V218.069H280.008L279.883 216.429ZM274.195 213.937V213.772C274.195 213.127 274.273 212.541 274.43 212.015C274.591 211.483 274.818 211.028 275.109 210.647C275.406 210.267 275.758 209.976 276.164 209.772C276.576 209.564 277.034 209.46 277.539 209.46C278.07 209.46 278.534 209.554 278.93 209.741C279.331 209.924 279.669 210.192 279.945 210.546C280.227 210.895 280.448 211.317 280.609 211.812C280.771 212.306 280.883 212.866 280.945 213.491V214.21C280.888 214.83 280.776 215.387 280.609 215.882C280.448 216.377 280.227 216.799 279.945 217.147C279.669 217.496 279.331 217.765 278.93 217.952C278.529 218.134 278.06 218.226 277.523 218.226C277.029 218.226 276.576 218.119 276.164 217.905C275.758 217.692 275.406 217.392 275.109 217.007C274.818 216.621 274.591 216.168 274.43 215.647C274.273 215.121 274.195 214.551 274.195 213.937ZM275.648 213.772V213.937C275.648 214.358 275.69 214.754 275.773 215.124C275.862 215.494 275.997 215.819 276.18 216.101C276.362 216.382 276.594 216.603 276.875 216.765C277.156 216.921 277.492 216.999 277.883 216.999C278.362 216.999 278.755 216.897 279.062 216.694C279.375 216.491 279.625 216.223 279.812 215.89C280 215.556 280.146 215.194 280.25 214.804V212.921C280.188 212.634 280.096 212.358 279.977 212.093C279.862 211.822 279.711 211.582 279.523 211.374C279.341 211.16 279.115 210.991 278.844 210.866C278.578 210.741 278.263 210.679 277.898 210.679C277.503 210.679 277.161 210.762 276.875 210.929C276.594 211.09 276.362 211.314 276.18 211.601C275.997 211.882 275.862 212.21 275.773 212.585C275.69 212.955 275.648 213.351 275.648 213.772ZM38.0859 241.624V237.272C38.0859 236.939 38.0182 236.65 37.8828 236.405C37.7526 236.155 37.5547 235.963 37.2891 235.827C37.0234 235.692 36.6953 235.624 36.3047 235.624C35.9401 235.624 35.6198 235.687 35.3438 235.812C35.0729 235.937 34.8594 236.101 34.7031 236.304C34.5521 236.507 34.4766 236.726 34.4766 236.96H33.0312C33.0312 236.658 33.1094 236.358 33.2656 236.062C33.4219 235.765 33.6458 235.496 33.9375 235.257C34.2344 235.012 34.5885 234.819 35 234.679C35.4167 234.533 35.8802 234.46 36.3906 234.46C37.0052 234.46 37.5469 234.564 38.0156 234.772C38.4896 234.981 38.8594 235.296 39.125 235.718C39.3958 236.134 39.5312 236.658 39.5312 237.288V241.226C39.5312 241.507 39.5547 241.806 39.6016 242.124C39.6536 242.442 39.7292 242.715 39.8281 242.944V243.069H38.3203C38.2474 242.903 38.1901 242.681 38.1484 242.405C38.1068 242.124 38.0859 241.864 38.0859 241.624ZM38.3359 237.944L38.3516 238.96H36.8906C36.4792 238.96 36.112 238.994 35.7891 239.062C35.4661 239.124 35.1953 239.22 34.9766 239.351C34.7578 239.481 34.5911 239.645 34.4766 239.843C34.362 240.035 34.3047 240.262 34.3047 240.522C34.3047 240.788 34.3646 241.03 34.4844 241.249C34.6042 241.468 34.7839 241.642 35.0234 241.772C35.2682 241.897 35.5677 241.96 35.9219 241.96C36.3646 241.96 36.7552 241.866 37.0938 241.679C37.4323 241.491 37.7005 241.262 37.8984 240.991C38.1016 240.72 38.2109 240.457 38.2266 240.202L38.8438 240.897C38.8073 241.116 38.7083 241.358 38.5469 241.624C38.3854 241.89 38.1693 242.145 37.8984 242.39C37.6328 242.629 37.3151 242.83 36.9453 242.991C36.5807 243.147 36.1693 243.226 35.7109 243.226C35.138 243.226 34.6354 243.114 34.2031 242.89C33.776 242.666 33.4427 242.366 33.2031 241.991C32.9688 241.611 32.8516 241.187 32.8516 240.718C32.8516 240.265 32.9401 239.866 33.1172 239.522C33.2943 239.174 33.5495 238.884 33.8828 238.655C34.2161 238.421 34.6172 238.244 35.0859 238.124C35.5547 238.004 36.0781 237.944 36.6562 237.944H38.3359ZM43.375 231.069V243.069H41.9219V231.069H43.375ZM50.8672 241.116V234.616H52.3203V243.069H50.9375L50.8672 241.116ZM51.1406 239.335L51.7422 239.319C51.7422 239.882 51.6823 240.403 51.5625 240.882C51.4479 241.356 51.2604 241.767 51 242.116C50.7396 242.465 50.3984 242.739 49.9766 242.937C49.5547 243.129 49.0417 243.226 48.4375 243.226C48.026 243.226 47.6484 243.166 47.3047 243.046C46.9661 242.926 46.6745 242.741 46.4297 242.491C46.1849 242.241 45.9948 241.916 45.8594 241.515C45.7292 241.114 45.6641 240.632 45.6641 240.069V234.616H47.1094V240.085C47.1094 240.465 47.151 240.78 47.2344 241.03C47.3229 241.275 47.4401 241.47 47.5859 241.616C47.737 241.757 47.9036 241.856 48.0859 241.913C48.2734 241.97 48.4661 241.999 48.6641 241.999C49.2786 241.999 49.7656 241.882 50.125 241.647C50.4844 241.408 50.7422 241.088 50.8984 240.687C51.0599 240.28 51.1406 239.83 51.1406 239.335ZM55.9609 236.296V243.069H54.5078V234.616H55.8828L55.9609 236.296ZM55.6641 238.522L54.9922 238.499C54.9974 237.921 55.0729 237.387 55.2188 236.897C55.3646 236.403 55.5807 235.973 55.8672 235.608C56.1536 235.244 56.5104 234.963 56.9375 234.765C57.3646 234.562 57.8594 234.46 58.4219 234.46C58.8177 234.46 59.1823 234.517 59.5156 234.632C59.849 234.741 60.138 234.916 60.3828 235.155C60.6276 235.395 60.8177 235.702 60.9531 236.077C61.0885 236.452 61.1562 236.905 61.1562 237.437V243.069H59.7109V237.507C59.7109 237.064 59.6354 236.71 59.4844 236.444C59.3385 236.179 59.1302 235.986 58.8594 235.866C58.5885 235.741 58.2708 235.679 57.9062 235.679C57.4792 235.679 57.1224 235.754 56.8359 235.905C56.5495 236.056 56.3203 236.265 56.1484 236.53C55.9766 236.796 55.8516 237.101 55.7734 237.444C55.7005 237.783 55.6641 238.142 55.6641 238.522ZM61.1406 237.726L60.1719 238.022C60.1771 237.559 60.2526 237.114 60.3984 236.687C60.5495 236.259 60.7656 235.879 61.0469 235.546C61.3333 235.213 61.6849 234.95 62.1016 234.757C62.5182 234.559 62.9948 234.46 63.5312 234.46C63.9844 234.46 64.3854 234.52 64.7344 234.64C65.0885 234.759 65.3854 234.944 65.625 235.194C65.8698 235.439 66.0547 235.754 66.1797 236.14C66.3047 236.525 66.3672 236.983 66.3672 237.515V243.069H64.9141V237.499C64.9141 237.025 64.8385 236.658 64.6875 236.397C64.5417 236.132 64.3333 235.947 64.0625 235.843C63.7969 235.733 63.4792 235.679 63.1094 235.679C62.7917 235.679 62.5104 235.733 62.2656 235.843C62.0208 235.952 61.8151 236.103 61.6484 236.296C61.4818 236.483 61.3542 236.7 61.2656 236.944C61.1823 237.189 61.1406 237.45 61.1406 237.726ZM70 236.421V243.069H68.5547V234.616H69.9219L70 236.421ZM69.6562 238.522L69.0547 238.499C69.0599 237.921 69.1458 237.387 69.3125 236.897C69.4792 236.403 69.7135 235.973 70.0156 235.608C70.3177 235.244 70.6771 234.963 71.0938 234.765C71.5156 234.562 71.9818 234.46 72.4922 234.46C72.9089 234.46 73.2839 234.517 73.6172 234.632C73.9505 234.741 74.2344 234.918 74.4688 235.163C74.7083 235.408 74.8906 235.726 75.0156 236.116C75.1406 236.502 75.2031 236.973 75.2031 237.53V243.069H73.75V237.515C73.75 237.072 73.6849 236.718 73.5547 236.452C73.4245 236.181 73.2344 235.986 72.9844 235.866C72.7344 235.741 72.4271 235.679 72.0625 235.679C71.7031 235.679 71.375 235.754 71.0781 235.905C70.7865 236.056 70.5339 236.265 70.3203 236.53C70.112 236.796 69.9479 237.101 69.8281 237.444C69.7135 237.783 69.6562 238.142 69.6562 238.522ZM78.9688 234.616V243.069H77.5156V234.616H78.9688ZM77.4062 232.374C77.4062 232.14 77.4766 231.942 77.6172 231.78C77.763 231.619 77.9766 231.538 78.2578 231.538C78.5339 231.538 78.7448 231.619 78.8906 231.78C79.0417 231.942 79.1172 232.14 79.1172 232.374C79.1172 232.598 79.0417 232.791 78.8906 232.952C78.7448 233.108 78.5339 233.187 78.2578 233.187C77.9766 233.187 77.763 233.108 77.6172 232.952C77.4766 232.791 77.4062 232.598 77.4062 232.374ZM84.875 238.937V238.757C84.875 238.147 84.9635 237.582 85.1406 237.062C85.3177 236.535 85.5729 236.08 85.9062 235.694C86.2396 235.304 86.6432 235.002 87.1172 234.788C87.5911 234.569 88.1224 234.46 88.7109 234.46C89.3047 234.46 89.8385 234.569 90.3125 234.788C90.7917 235.002 91.1979 235.304 91.5312 235.694C91.8698 236.08 92.1276 236.535 92.3047 237.062C92.4818 237.582 92.5703 238.147 92.5703 238.757V238.937C92.5703 239.546 92.4818 240.111 92.3047 240.632C92.1276 241.153 91.8698 241.608 91.5312 241.999C91.1979 242.384 90.7943 242.687 90.3203 242.905C89.8516 243.119 89.3203 243.226 88.7266 243.226C88.1328 243.226 87.599 243.119 87.125 242.905C86.651 242.687 86.2448 242.384 85.9062 241.999C85.5729 241.608 85.3177 241.153 85.1406 240.632C84.9635 240.111 84.875 239.546 84.875 238.937ZM86.3203 238.757V238.937C86.3203 239.358 86.3698 239.757 86.4688 240.132C86.5677 240.502 86.7161 240.83 86.9141 241.116C87.1172 241.403 87.3698 241.629 87.6719 241.796C87.974 241.957 88.3255 242.038 88.7266 242.038C89.1224 242.038 89.4688 241.957 89.7656 241.796C90.0677 241.629 90.3177 241.403 90.5156 241.116C90.7135 240.83 90.862 240.502 90.9609 240.132C91.0651 239.757 91.1172 239.358 91.1172 238.937V238.757C91.1172 238.34 91.0651 237.947 90.9609 237.577C90.862 237.202 90.7109 236.871 90.5078 236.585C90.3099 236.293 90.0599 236.064 89.7578 235.897C89.4609 235.731 89.112 235.647 88.7109 235.647C88.3151 235.647 87.9661 235.731 87.6641 235.897C87.3672 236.064 87.1172 236.293 86.9141 236.585C86.7161 236.871 86.5677 237.202 86.4688 237.577C86.3698 237.947 86.3203 238.34 86.3203 238.757ZM96.5391 243.069H95.0938V233.726C95.0938 233.116 95.2031 232.603 95.4219 232.187C95.6458 231.765 95.9661 231.447 96.3828 231.233C96.7995 231.015 97.2943 230.905 97.8672 230.905C98.0339 230.905 98.2005 230.916 98.3672 230.937C98.5391 230.957 98.7057 230.989 98.8672 231.03L98.7891 232.21C98.6797 232.184 98.5547 232.166 98.4141 232.155C98.2786 232.145 98.1432 232.14 98.0078 232.14C97.7005 232.14 97.4349 232.202 97.2109 232.327C96.9922 232.447 96.8255 232.624 96.7109 232.858C96.5964 233.093 96.5391 233.382 96.5391 233.726V243.069ZM98.3359 234.616V235.726H93.7578V234.616H98.3359ZM108.023 231.694V243.069H106.539V231.694H108.023ZM111.68 231.694V232.929H102.891V231.694H111.68ZM114 235.944V243.069H112.555V234.616H113.961L114 235.944ZM116.641 234.569L116.633 235.913C116.513 235.887 116.398 235.871 116.289 235.866C116.185 235.856 116.065 235.851 115.93 235.851C115.596 235.851 115.302 235.903 115.047 236.007C114.792 236.111 114.576 236.257 114.398 236.444C114.221 236.632 114.081 236.856 113.977 237.116C113.878 237.371 113.812 237.653 113.781 237.96L113.375 238.194C113.375 237.684 113.424 237.205 113.523 236.757C113.628 236.309 113.786 235.913 114 235.569C114.214 235.22 114.484 234.95 114.812 234.757C115.146 234.559 115.542 234.46 116 234.46C116.104 234.46 116.224 234.473 116.359 234.499C116.495 234.52 116.589 234.543 116.641 234.569ZM121.328 243.226C120.74 243.226 120.206 243.127 119.727 242.929C119.253 242.726 118.844 242.442 118.5 242.077C118.161 241.713 117.901 241.28 117.719 240.78C117.536 240.28 117.445 239.733 117.445 239.14V238.812C117.445 238.124 117.547 237.512 117.75 236.976C117.953 236.434 118.229 235.976 118.578 235.601C118.927 235.226 119.323 234.942 119.766 234.749C120.208 234.556 120.667 234.46 121.141 234.46C121.745 234.46 122.266 234.564 122.703 234.772C123.146 234.981 123.508 235.272 123.789 235.647C124.07 236.017 124.279 236.455 124.414 236.96C124.549 237.46 124.617 238.007 124.617 238.601V239.249H118.305V238.069H123.172V237.96C123.151 237.585 123.073 237.22 122.938 236.866C122.807 236.512 122.599 236.22 122.312 235.991C122.026 235.762 121.635 235.647 121.141 235.647C120.812 235.647 120.51 235.718 120.234 235.858C119.958 235.994 119.721 236.197 119.523 236.468C119.326 236.739 119.172 237.069 119.062 237.46C118.953 237.851 118.898 238.301 118.898 238.812V239.14C118.898 239.541 118.953 239.918 119.062 240.272C119.177 240.621 119.341 240.929 119.555 241.194C119.773 241.46 120.036 241.668 120.344 241.819C120.656 241.97 121.01 242.046 121.406 242.046C121.917 242.046 122.349 241.942 122.703 241.733C123.057 241.525 123.367 241.246 123.633 240.897L124.508 241.593C124.326 241.869 124.094 242.132 123.812 242.382C123.531 242.632 123.185 242.835 122.773 242.991C122.367 243.147 121.885 243.226 121.328 243.226ZM127.75 236.421V243.069H126.305V234.616H127.672L127.75 236.421ZM127.406 238.522L126.805 238.499C126.81 237.921 126.896 237.387 127.062 236.897C127.229 236.403 127.464 235.973 127.766 235.608C128.068 235.244 128.427 234.963 128.844 234.765C129.266 234.562 129.732 234.46 130.242 234.46C130.659 234.46 131.034 234.517 131.367 234.632C131.701 234.741 131.984 234.918 132.219 235.163C132.458 235.408 132.641 235.726 132.766 236.116C132.891 236.502 132.953 236.973 132.953 237.53V243.069H131.5V237.515C131.5 237.072 131.435 236.718 131.305 236.452C131.174 236.181 130.984 235.986 130.734 235.866C130.484 235.741 130.177 235.679 129.812 235.679C129.453 235.679 129.125 235.754 128.828 235.905C128.536 236.056 128.284 236.265 128.07 236.53C127.862 236.796 127.698 237.101 127.578 237.444C127.464 237.783 127.406 238.142 127.406 238.522ZM138.688 234.616V235.726H134.117V234.616H138.688ZM135.664 232.562H137.109V240.976C137.109 241.262 137.154 241.478 137.242 241.624C137.331 241.77 137.445 241.866 137.586 241.913C137.727 241.96 137.878 241.983 138.039 241.983C138.159 241.983 138.284 241.973 138.414 241.952C138.549 241.926 138.651 241.905 138.719 241.89L138.727 243.069C138.612 243.106 138.461 243.14 138.273 243.171C138.091 243.207 137.87 243.226 137.609 243.226C137.255 243.226 136.93 243.155 136.633 243.015C136.336 242.874 136.099 242.64 135.922 242.312C135.75 241.978 135.664 241.53 135.664 240.968V232.562ZM149.523 241.116V234.616H150.977V243.069H149.594L149.523 241.116ZM149.797 239.335L150.398 239.319C150.398 239.882 150.339 240.403 150.219 240.882C150.104 241.356 149.917 241.767 149.656 242.116C149.396 242.465 149.055 242.739 148.633 242.937C148.211 243.129 147.698 243.226 147.094 243.226C146.682 243.226 146.305 243.166 145.961 243.046C145.622 242.926 145.331 242.741 145.086 242.491C144.841 242.241 144.651 241.916 144.516 241.515C144.385 241.114 144.32 240.632 144.32 240.069V234.616H145.766V240.085C145.766 240.465 145.807 240.78 145.891 241.03C145.979 241.275 146.096 241.47 146.242 241.616C146.393 241.757 146.56 241.856 146.742 241.913C146.93 241.97 147.122 241.999 147.32 241.999C147.935 241.999 148.422 241.882 148.781 241.647C149.141 241.408 149.398 241.088 149.555 240.687C149.716 240.28 149.797 239.83 149.797 239.335ZM154.625 236.421V243.069H153.18V234.616H154.547L154.625 236.421ZM154.281 238.522L153.68 238.499C153.685 237.921 153.771 237.387 153.938 236.897C154.104 236.403 154.339 235.973 154.641 235.608C154.943 235.244 155.302 234.963 155.719 234.765C156.141 234.562 156.607 234.46 157.117 234.46C157.534 234.46 157.909 234.517 158.242 234.632C158.576 234.741 158.859 234.918 159.094 235.163C159.333 235.408 159.516 235.726 159.641 236.116C159.766 236.502 159.828 236.973 159.828 237.53V243.069H158.375V237.515C158.375 237.072 158.31 236.718 158.18 236.452C158.049 236.181 157.859 235.986 157.609 235.866C157.359 235.741 157.052 235.679 156.688 235.679C156.328 235.679 156 235.754 155.703 235.905C155.411 236.056 155.159 236.265 154.945 236.53C154.737 236.796 154.573 237.101 154.453 237.444C154.339 237.783 154.281 238.142 154.281 238.522ZM163.594 234.616V243.069H162.141V234.616H163.594ZM162.031 232.374C162.031 232.14 162.102 231.942 162.242 231.78C162.388 231.619 162.602 231.538 162.883 231.538C163.159 231.538 163.37 231.619 163.516 231.78C163.667 231.942 163.742 232.14 163.742 232.374C163.742 232.598 163.667 232.791 163.516 232.952C163.37 233.108 163.159 233.187 162.883 233.187C162.602 233.187 162.388 233.108 162.242 232.952C162.102 232.791 162.031 232.598 162.031 232.374ZM168.484 241.765L170.797 234.616H172.273L169.234 243.069H168.266L168.484 241.765ZM166.555 234.616L168.938 241.804L169.102 243.069H168.133L165.07 234.616H166.555ZM177.062 243.226C176.474 243.226 175.94 243.127 175.461 242.929C174.987 242.726 174.578 242.442 174.234 242.077C173.896 241.713 173.635 241.28 173.453 240.78C173.271 240.28 173.18 239.733 173.18 239.14V238.812C173.18 238.124 173.281 237.512 173.484 236.976C173.688 236.434 173.964 235.976 174.312 235.601C174.661 235.226 175.057 234.942 175.5 234.749C175.943 234.556 176.401 234.46 176.875 234.46C177.479 234.46 178 234.564 178.438 234.772C178.88 234.981 179.242 235.272 179.523 235.647C179.805 236.017 180.013 236.455 180.148 236.96C180.284 237.46 180.352 238.007 180.352 238.601V239.249H174.039V238.069H178.906V237.96C178.885 237.585 178.807 237.22 178.672 236.866C178.542 236.512 178.333 236.22 178.047 235.991C177.76 235.762 177.37 235.647 176.875 235.647C176.547 235.647 176.245 235.718 175.969 235.858C175.693 235.994 175.456 236.197 175.258 236.468C175.06 236.739 174.906 237.069 174.797 237.46C174.688 237.851 174.633 238.301 174.633 238.812V239.14C174.633 239.541 174.688 239.918 174.797 240.272C174.911 240.621 175.076 240.929 175.289 241.194C175.508 241.46 175.771 241.668 176.078 241.819C176.391 241.97 176.745 242.046 177.141 242.046C177.651 242.046 178.083 241.942 178.438 241.733C178.792 241.525 179.102 241.246 179.367 240.897L180.242 241.593C180.06 241.869 179.828 242.132 179.547 242.382C179.266 242.632 178.919 242.835 178.508 242.991C178.102 243.147 177.62 243.226 177.062 243.226ZM183.484 235.944V243.069H182.039V234.616H183.445L183.484 235.944ZM186.125 234.569L186.117 235.913C185.997 235.887 185.883 235.871 185.773 235.866C185.669 235.856 185.549 235.851 185.414 235.851C185.081 235.851 184.786 235.903 184.531 236.007C184.276 236.111 184.06 236.257 183.883 236.444C183.706 236.632 183.565 236.856 183.461 237.116C183.362 237.371 183.297 237.653 183.266 237.96L182.859 238.194C182.859 237.684 182.909 237.205 183.008 236.757C183.112 236.309 183.271 235.913 183.484 235.569C183.698 235.22 183.969 234.95 184.297 234.757C184.63 234.559 185.026 234.46 185.484 234.46C185.589 234.46 185.708 234.473 185.844 234.499C185.979 234.52 186.073 234.543 186.125 234.569ZM192.383 240.827C192.383 240.619 192.336 240.426 192.242 240.249C192.154 240.067 191.969 239.903 191.688 239.757C191.411 239.606 190.995 239.476 190.438 239.366C189.969 239.267 189.544 239.15 189.164 239.015C188.789 238.879 188.469 238.715 188.203 238.522C187.943 238.33 187.742 238.103 187.602 237.843C187.461 237.582 187.391 237.278 187.391 236.929C187.391 236.595 187.464 236.28 187.609 235.983C187.76 235.687 187.971 235.424 188.242 235.194C188.518 234.965 188.849 234.785 189.234 234.655C189.62 234.525 190.049 234.46 190.523 234.46C191.201 234.46 191.779 234.58 192.258 234.819C192.737 235.059 193.104 235.379 193.359 235.78C193.615 236.176 193.742 236.616 193.742 237.101H192.297C192.297 236.866 192.227 236.64 192.086 236.421C191.951 236.197 191.75 236.012 191.484 235.866C191.224 235.72 190.904 235.647 190.523 235.647C190.122 235.647 189.797 235.71 189.547 235.835C189.302 235.955 189.122 236.108 189.008 236.296C188.898 236.483 188.844 236.681 188.844 236.89C188.844 237.046 188.87 237.187 188.922 237.312C188.979 237.431 189.078 237.543 189.219 237.647C189.359 237.746 189.557 237.84 189.812 237.929C190.068 238.017 190.393 238.106 190.789 238.194C191.482 238.351 192.052 238.538 192.5 238.757C192.948 238.976 193.281 239.244 193.5 239.562C193.719 239.879 193.828 240.265 193.828 240.718C193.828 241.088 193.75 241.426 193.594 241.733C193.443 242.041 193.221 242.306 192.93 242.53C192.643 242.749 192.299 242.921 191.898 243.046C191.503 243.166 191.057 243.226 190.562 243.226C189.818 243.226 189.188 243.093 188.672 242.827C188.156 242.562 187.766 242.218 187.5 241.796C187.234 241.374 187.102 240.929 187.102 240.46H188.555C188.576 240.856 188.69 241.171 188.898 241.405C189.107 241.634 189.362 241.799 189.664 241.897C189.966 241.991 190.266 242.038 190.562 242.038C190.958 242.038 191.289 241.986 191.555 241.882C191.826 241.778 192.031 241.634 192.172 241.452C192.312 241.27 192.383 241.062 192.383 240.827ZM197.297 234.616V243.069H195.844V234.616H197.297ZM195.734 232.374C195.734 232.14 195.805 231.942 195.945 231.78C196.091 231.619 196.305 231.538 196.586 231.538C196.862 231.538 197.073 231.619 197.219 231.78C197.37 231.942 197.445 232.14 197.445 232.374C197.445 232.598 197.37 232.791 197.219 232.952C197.073 233.108 196.862 233.187 196.586 233.187C196.305 233.187 196.091 233.108 195.945 232.952C195.805 232.791 195.734 232.598 195.734 232.374ZM203.156 234.616V235.726H198.586V234.616H203.156ZM200.133 232.562H201.578V240.976C201.578 241.262 201.622 241.478 201.711 241.624C201.799 241.77 201.914 241.866 202.055 241.913C202.195 241.96 202.346 241.983 202.508 241.983C202.628 241.983 202.753 241.973 202.883 241.952C203.018 241.926 203.12 241.905 203.188 241.89L203.195 243.069C203.081 243.106 202.93 243.14 202.742 243.171C202.56 243.207 202.339 243.226 202.078 243.226C201.724 243.226 201.398 243.155 201.102 243.015C200.805 242.874 200.568 242.64 200.391 242.312C200.219 241.978 200.133 241.53 200.133 240.968V232.562ZM207.227 242.194L209.578 234.616H211.125L207.734 244.374C207.656 244.582 207.552 244.806 207.422 245.046C207.297 245.291 207.135 245.522 206.938 245.741C206.74 245.96 206.5 246.137 206.219 246.272C205.943 246.413 205.612 246.483 205.227 246.483C205.112 246.483 204.966 246.468 204.789 246.437C204.612 246.405 204.487 246.379 204.414 246.358L204.406 245.187C204.448 245.192 204.513 245.197 204.602 245.202C204.695 245.213 204.76 245.218 204.797 245.218C205.125 245.218 205.404 245.174 205.633 245.085C205.862 245.002 206.055 244.858 206.211 244.655C206.372 244.457 206.51 244.184 206.625 243.835L207.227 242.194ZM205.5 234.616L207.695 241.179L208.07 242.702L207.031 243.233L203.922 234.616H205.5Z" fill="#666362"/>
</svg>
