<svg width="20" height="21" viewBox="0 0 20 21" fill="none" xmlns="http://www.w3.org/2000/svg">
<path d="M15.9815 17.2248C14.6121 15.4175 12.4424 14.25 10 14.25C7.55761 14.25 5.38789 15.4175 4.01846 17.2248M15.9815 17.2248C17.8335 15.5763 19 13.1744 19 10.5C19 5.52944 14.9706 1.5 10 1.5C5.02944 1.5 1 5.52944 1 10.5C1 13.1744 2.1665 15.5763 4.01846 17.2248M15.9815 17.2248C14.3915 18.6401 12.2962 19.5 10 19.5C7.70383 19.5 5.60851 18.6401 4.01846 17.2248M13 8.25C13 9.90685 11.6569 11.25 10 11.25C8.34315 11.25 7 9.90685 7 8.25C7 6.59315 8.34315 5.25 10 5.25C11.6569 5.25 13 6.59315 13 8.25Z" stroke="#3D4447" stroke-width="1.5" stroke-linecap="round" stroke-linejoin="round"/>
</svg>
