<svg width="208" height="216" viewBox="0 0 208 216" fill="none" xmlns="http://www.w3.org/2000/svg">
<g clip-path="url(#clip0_10612_9841)">
<path d="M66.24 215.359C102.293 215.359 131.52 213.354 131.52 210.879C131.52 208.405 102.293 206.399 66.24 206.399C30.1868 206.399 0.959961 208.405 0.959961 210.879C0.959961 213.354 30.1868 215.359 66.24 215.359Z" fill="#E6E6E6"/>
<path d="M92.2654 125.949C92.9061 122.351 96.2227 120.237 99.5295 119.39C103.304 118.425 107.327 118.543 111.168 118.979C118.903 119.856 126.498 122.227 134.348 121.86C141.173 121.516 147.788 119.387 153.533 115.686C159.311 111.972 163.968 106.752 167.001 100.589C170.056 94.3858 171.411 87.4835 170.927 80.5861C170.863 79.7286 170.766 78.8747 170.645 78.0234C170.559 77.4142 169.634 77.6734 169.719 78.2786C170.654 85.1362 169.688 92.1187 166.929 98.4656C164.219 104.748 159.816 110.153 154.212 114.078C148.625 117.98 142.096 120.315 135.302 120.842C127.552 121.408 120.023 119.181 112.407 118.172C108.561 117.662 104.638 117.473 100.798 118.141C97.3967 118.732 93.9069 120.253 92.1608 123.405C91.763 124.117 91.4856 124.891 91.3397 125.694C91.2322 126.298 92.1571 126.557 92.2654 125.949Z" fill="#3F3D56"/>
<path d="M167.04 80C189.131 80 207.04 62.0914 207.04 40C207.04 17.9086 189.131 0 167.04 0C144.949 0 127.04 17.9086 127.04 40C127.04 62.0914 144.949 80 167.04 80Z" fill="#2F9A6B"/>
<path d="M152.001 42.2398C157.656 42.2398 162.241 37.6552 162.241 31.9998C162.241 26.3444 157.656 21.7598 152.001 21.7598C146.345 21.7598 141.761 26.3444 141.761 31.9998C141.761 37.6552 146.345 42.2398 152.001 42.2398Z" fill="white"/>
<path d="M155.209 52.4795C155.293 54.0338 155.969 55.497 157.098 56.5683C158.227 57.6396 159.724 58.2376 161.281 58.2395H177.921C179.477 58.2376 180.974 57.6396 182.103 56.5683C183.232 55.497 183.908 54.0338 183.992 52.4795H155.209Z" fill="white"/>
<path d="M148.161 40.7989C151.165 40.7989 153.601 38.3634 153.601 35.3589C153.601 32.3545 151.165 29.9189 148.161 29.9189C145.156 29.9189 142.721 32.3545 142.721 35.3589C142.721 38.3634 145.156 40.7989 148.161 40.7989Z" fill="#3F3D56"/>
<path d="M150.08 34.3998C150.787 34.3998 151.36 33.8268 151.36 33.1198C151.36 32.4129 150.787 31.8398 150.08 31.8398C149.373 31.8398 148.8 32.4129 148.8 33.1198C148.8 33.8268 149.373 34.3998 150.08 34.3998Z" fill="white"/>
<path d="M185.28 42.3989C190.935 42.3989 195.52 37.8143 195.52 32.1589C195.52 26.5035 190.935 21.9189 185.28 21.9189C179.625 21.9189 175.04 26.5035 175.04 32.1589C175.04 37.8143 179.625 42.3989 185.28 42.3989Z" fill="white"/>
<path d="M181.44 40.7989C184.444 40.7989 186.88 38.3634 186.88 35.3589C186.88 32.3545 184.444 29.9189 181.44 29.9189C178.436 29.9189 176 32.3545 176 35.3589C176 38.3634 178.436 40.7989 181.44 40.7989Z" fill="#3F3D56"/>
<path d="M183.361 34.3998C184.068 34.3998 184.641 33.8268 184.641 33.1198C184.641 32.4129 184.068 31.8398 183.361 31.8398C182.654 31.8398 182.081 32.4129 182.081 33.1198C182.081 33.8268 182.654 34.3998 183.361 34.3998Z" fill="white"/>
<path d="M167.68 47.3597C169.801 47.3597 171.52 45.6405 171.52 43.5197C171.52 41.3989 169.801 39.6797 167.68 39.6797C165.559 39.6797 163.84 41.3989 163.84 43.5197C163.84 45.6405 165.559 47.3597 167.68 47.3597Z" fill="#3F3D56"/>
<path d="M173.44 77.7598H166.4V83.1998H173.44V77.7598Z" fill="#2F9A6B"/>
<path d="M72.4043 184.678C72.4043 184.678 76.9215 197.907 74.9856 202.747L80.7934 207.91L84.3427 203.393C84.3427 203.393 80.4708 199.521 80.7934 196.617C81.1161 193.713 81.4388 183.388 81.4388 183.388L72.4043 184.678Z" fill="#FFB9B9"/>
<path d="M94.0204 210.489C93.7566 210.643 93.505 210.79 93.2737 210.923H73.2468C73.0612 210.817 72.9121 210.657 72.8194 210.464C72.7266 210.272 72.6945 210.055 72.7274 209.844C72.8207 209.365 73.0601 208.391 73.3564 207.271C74.0584 204.621 75.0892 201.151 75.3124 201.521L75.314 201.521L75.3153 201.522L75.3161 201.523L75.3164 201.525C75.6289 202.101 76.2742 204.682 77.8893 204.361C79.5044 204.037 82.0854 203.392 82.0854 203.392C82.0854 203.392 81.1642 201.322 82.0448 200.486C82.2342 200.31 82.4741 200.198 82.7306 200.165C84.6664 199.845 84.6664 202.746 84.6664 202.746L91.7641 206.618C92.3759 206.787 92.973 207.006 93.5497 207.271C94.9903 207.945 96.4147 209.097 94.0204 210.489Z" fill="#2F2E41"/>
<path d="M59.4984 179.838L51.1092 189.84L48.8506 195.003L51.7545 197.262L54.3358 196.294C54.3358 196.294 56.5944 190.486 58.853 189.518C61.1117 188.55 66.5969 182.097 66.5969 182.097L59.4984 179.838Z" fill="#FFB9B9"/>
<path d="M77.0821 172.162L72.8037 180.093L69.7384 185.772C68.7575 186.356 67.4507 186.346 66.0439 186.001C65.3884 185.833 64.7457 185.618 64.1209 185.359C60.2812 183.787 56.3867 180.667 56.3867 180.667L63.7563 171.459L66.1633 168.455L66.7344 167.738L69.4867 168.916L74.3428 170.991L77.0821 172.162Z" fill="#2F2E41"/>
<path d="M57.988 103.677L54.5703 117.696L58.0882 135.682C58.0882 135.682 58.1749 143.034 61.3986 142.476C64.6224 141.918 61.2439 134.503 61.2439 134.503L59.6671 119.756L64.7087 105.186C65.1171 104.006 64.6013 102.739 63.4184 102.017C61.4222 100.797 58.5854 101.665 57.988 103.677Z" fill="#FFB9B9"/>
<path d="M69.9849 91.5904L67.0809 100.625L61.5957 97.7209C61.5957 97.7209 63.8543 91.2677 63.8543 90.2998C63.8543 89.3318 69.9849 91.5904 69.9849 91.5904Z" fill="#FFB9B9"/>
<path d="M67.7251 95.1396C71.4673 95.1396 74.5009 92.106 74.5009 88.3637C74.5009 84.6215 71.4673 81.5879 67.7251 81.5879C63.9829 81.5879 60.9492 84.6215 60.9492 88.3637C60.9492 92.106 63.9829 95.1396 67.7251 95.1396Z" fill="#FFB9B9"/>
<path d="M69.5003 102.722L68.2097 101.432L67.887 99.8185C67.887 99.8185 63.6924 94.3333 60.1432 96.2693C59.034 96.8743 58.2085 98.267 57.5976 99.896C56.0417 104.154 56.1869 108.847 58.0029 113.001L63.6924 126.277L76.5988 124.986L74.3402 116.597C74.3402 116.597 76.5988 111.434 72.4042 107.885L69.5003 102.722Z" fill="#2F9A6B"/>
<path opacity="0.3" d="M77.083 172.162L72.8046 180.093L69.7393 185.772C68.7584 186.356 67.4516 186.346 66.0448 186.001C65.7996 184.368 67.2645 175.74 66.1126 168.706L66.1642 168.455L66.7353 167.738L69.4876 168.916L74.3437 170.991L77.083 172.162Z" fill="black"/>
<path d="M77.082 124.179C77.082 124.179 68.6928 119.016 62.8849 125.469L63.2076 127.405C63.2076 127.405 58.3677 132.891 61.2716 144.506C64.1756 156.122 68.6928 186.452 68.6928 186.452C68.6928 186.452 79.3406 187.097 84.1805 183.548C84.1805 183.548 82.5672 143.538 77.082 139.666V124.179Z" fill="#2F2E41"/>
<path d="M59.5891 106.208L68.6931 117.403L85.1488 125.47C85.1488 125.47 91.0589 129.844 92.5626 126.938C94.0663 124.033 86.1167 122.243 86.1167 122.243L73.4142 114.587L64.8531 101.766C64.1596 100.727 62.8385 100.372 61.548 100.878C59.3703 101.732 58.347 104.516 59.5891 106.208Z" fill="#FFB9B9"/>
<path d="M53.5573 195.584C53.5573 195.584 55.5351 193.097 56.7166 194.664C57.898 196.231 55.3233 197.575 55.3233 197.575L55.1735 205.659C55.1735 205.659 56.5785 211.841 52.7852 209.452C48.9919 207.064 48.8427 206.778 48.0965 205.348C47.3504 203.917 45.8085 198.171 44.4778 196.318C43.1471 194.464 41.9285 190.733 43.5081 190.273C45.0877 189.813 52.4507 188.175 52.0839 188.72C51.717 189.266 49.7269 191.032 50.7591 192.313C51.7914 193.594 53.5573 195.584 53.5573 195.584Z" fill="#2F2E41"/>
<path d="M71.2742 82.58C71.2742 82.5718 71.2748 82.5636 71.2748 82.5553C71.2748 80.7047 70.726 78.8956 69.6978 77.3568C68.6697 75.818 67.2083 74.6187 65.4985 73.9105C63.7887 73.2023 61.9073 73.017 60.0922 73.378C58.2771 73.7391 56.6098 74.6303 55.3012 75.9389C53.9926 77.2475 53.1014 78.9148 52.7403 80.7299C52.3793 82.545 52.5646 84.4264 53.2728 86.1362C53.981 87.846 55.1804 89.3074 56.7191 90.3355C58.2579 91.3637 60.067 91.9125 61.9177 91.9125C62.135 91.9125 62.9946 93.5404 63.2083 93.5258C63.2211 88.5866 66.4162 82.9116 71.2742 82.58Z" fill="#2F2E41"/>
<path d="M51.9147 81.5882C55.3005 81.5882 58.0453 78.8435 58.0453 75.4577C58.0453 72.0719 55.3005 69.3271 51.9147 69.3271C48.5289 69.3271 45.7842 72.0719 45.7842 75.4577C45.7842 78.8435 48.5289 81.5882 51.9147 81.5882Z" fill="#2F2E41"/>
<path d="M51.6338 66.171C53.1111 66.1617 54.5419 66.6869 55.6624 67.6497C56.7828 68.6126 57.5173 69.9481 57.7304 71.41C57.9435 72.8718 57.6207 74.3615 56.8217 75.6041C56.0227 76.8467 54.8013 77.7584 53.3828 78.1712C54.2611 78.1698 55.1289 77.9795 55.9272 77.6133C56.7256 77.247 57.4358 76.7134 58.0098 76.0486C58.5838 75.3838 59.0081 74.6033 59.254 73.7601C59.4999 72.9169 59.5616 72.0307 59.435 71.1615C59.3083 70.2924 58.9962 69.4606 58.5198 68.7227C58.0435 67.9848 57.414 67.3579 56.6742 66.8845C55.9343 66.4112 55.1013 66.1026 54.2316 65.9794C53.3619 65.8563 52.476 65.9216 51.6338 66.171Z" fill="#2F2E41"/>
<path d="M66.1123 80.6191H71.0238C72.1173 80.6191 73.166 81.0535 73.9392 81.8267C74.7124 82.5999 75.1468 83.6486 75.1468 84.7421V86.427H66.1123V80.6191Z" fill="#2F2E41"/>
</g>
<defs>
<clipPath id="clip0_10612_9841">
<rect width="206.08" height="215.36" fill="white" transform="translate(0.959961)"/>
</clipPath>
</defs>
</svg>
